<?xml version="1.0" encoding="UTF-8"?>
<svg version="1.1" xmlns="http://www.w3.org/2000/svg" width="720" height="720">
<path d="M0 0 C0.80610718 -0.00095673 1.61221436 -0.00191345 2.44274902 -0.00289917 C4.14396238 -0.00357847 5.84517836 -0.00174163 7.54638672 0.00244141 C10.14686925 0.00779319 12.74717907 0.00248796 15.34765625 -0.00390625 C17.00260455 -0.00324542 18.65755274 -0.00196417 20.3125 0 C21.08863647 -0.00202423 21.86477295 -0.00404846 22.66442871 -0.00613403 C26.16656438 0.00903911 29.28708143 0.19290893 32.65625 1.1328125 C32.65625 1.7928125 32.65625 2.4528125 32.65625 3.1328125 C33.64625 3.4628125 34.63625 3.7928125 35.65625 4.1328125 C38.12967266 7.84294649 38.04128486 9.74341512 37.65625 14.1328125 C36.28125 16.5703125 36.28125 16.5703125 34.65625 18.1328125 C33.99625 18.1328125 33.33625 18.1328125 32.65625 18.1328125 C32.65625 18.7928125 32.65625 19.4528125 32.65625 20.1328125 C29.31238602 21.14366678 26.2814382 21.24824713 22.796875 21.23046875 C21.68183594 21.22724609 20.56679687 21.22402344 19.41796875 21.22070312 C18.25910156 21.21232422 17.10023437 21.20394531 15.90625 21.1953125 C14.73191406 21.19080078 13.55757812 21.18628906 12.34765625 21.18164062 C9.45049905 21.16986356 6.55336807 21.15192838 3.65625 21.1328125 C3.65625 28.7228125 3.65625 36.3128125 3.65625 44.1328125 C7.28625 44.1328125 10.91625 44.1328125 14.65625 44.1328125 C17.65625 45.1328125 17.65625 45.1328125 19.34375 47.8828125 C20.65278164 51.12422419 21.25279391 52.72399017 20.65625 56.1328125 C17.41300676 61.75443412 17.41300676 61.75443412 14.65625 63.1328125 C11.02625 63.1328125 7.39625 63.1328125 3.65625 63.1328125 C3.65625 70.7228125 3.65625 78.3128125 3.65625 86.1328125 C6.41935547 86.11541016 6.41935547 86.11541016 9.23828125 86.09765625 C11.64843649 86.08827821 14.05859282 86.07917803 16.46875 86.0703125 C18.29116211 86.05774414 18.29116211 86.05774414 20.15039062 86.04492188 C21.31376953 86.04169922 22.47714844 86.03847656 23.67578125 86.03515625 C24.74932861 86.02991943 25.82287598 86.02468262 26.92895508 86.01928711 C29.65625 86.1328125 29.65625 86.1328125 32.65625 87.1328125 C32.65625 87.7928125 32.65625 88.4528125 32.65625 89.1328125 C34.14125 89.6278125 34.14125 89.6278125 35.65625 90.1328125 C38.15656654 93.88328732 38.19228554 95.69137516 37.65625 100.1328125 C35.40625 103.0703125 35.40625 103.0703125 32.65625 105.1328125 C31.33625 105.1328125 30.01625 105.1328125 28.65625 105.1328125 C28.65625 105.7928125 28.65625 106.4528125 28.65625 107.1328125 C20.40625 107.1328125 12.15625 107.1328125 3.65625 107.1328125 C3.65625 114.3928125 3.65625 121.6528125 3.65625 129.1328125 C7.28625 129.1328125 10.91625 129.1328125 14.65625 129.1328125 C14.65625 129.7928125 14.65625 130.4528125 14.65625 131.1328125 C15.275 131.2153125 15.89375 131.2978125 16.53125 131.3828125 C18.65625 132.1328125 18.65625 132.1328125 19.90625 133.8203125 C21.24107823 137.93603287 21.21524583 140.96158315 19.34375 144.8828125 C17.65625 147.1328125 17.65625 147.1328125 14.65625 149.1328125 C11.02625 149.1328125 7.39625 149.1328125 3.65625 149.1328125 C3.65625 156.7228125 3.65625 164.3128125 3.65625 172.1328125 C5.47511719 172.10960937 7.29398438 172.08640625 9.16796875 172.0625 C11.55989173 172.04373982 13.95181915 172.02553989 16.34375 172.0078125 C17.54193359 171.99105469 18.74011719 171.97429687 19.97460938 171.95703125 C21.13154297 171.95058594 22.28847656 171.94414062 23.48046875 171.9375 C25.07507935 171.92178955 25.07507935 171.92178955 26.7019043 171.90576172 C29.7815124 172.14243931 31.90932437 172.7411332 34.65625 174.1328125 C36.85374944 176.86074284 37.59632896 178.65344416 38.03125 182.1328125 C37.60670234 185.52919377 36.68620698 187.4001781 34.65625 190.1328125 C31.78606559 191.56790471 29.32081277 191.24439756 26.1171875 191.23046875 C24.16425781 191.22563477 24.16425781 191.22563477 22.171875 191.22070312 C20.79166601 191.21234716 19.41145768 191.20388221 18.03125 191.1953125 C16.64323074 191.19029751 15.25520978 191.1857346 13.8671875 191.18164062 C10.46352327 191.16982235 7.0598813 191.1518864 3.65625 191.1328125 C3.65625 199.0528125 3.65625 206.9728125 3.65625 215.1328125 C7.28625 215.1328125 10.91625 215.1328125 14.65625 215.1328125 C14.65625 215.7928125 14.65625 216.4528125 14.65625 217.1328125 C15.275 217.2153125 15.89375 217.2978125 16.53125 217.3828125 C18.65625 218.1328125 18.65625 218.1328125 19.90625 219.8203125 C20.88321861 222.83263238 21.04250228 224.97841892 20.65625 228.1328125 C18.78125 231.0078125 18.78125 231.0078125 16.65625 233.1328125 C15.99625 233.1328125 15.33625 233.1328125 14.65625 233.1328125 C14.65625 233.7928125 14.65625 234.4528125 14.65625 235.1328125 C11.02625 235.1328125 7.39625 235.1328125 3.65625 235.1328125 C3.65625 242.3928125 3.65625 249.6528125 3.65625 257.1328125 C12.23625 257.1328125 20.81625 257.1328125 29.65625 257.1328125 C29.65625 257.7928125 29.65625 258.4528125 29.65625 259.1328125 C30.419375 259.2153125 31.1825 259.2978125 31.96875 259.3828125 C34.65625 260.1328125 34.65625 260.1328125 36.46875 261.7578125 C38.13228223 265.08487697 38.04333602 267.45549527 37.65625 271.1328125 C35.45625 275.7328125 35.45625 275.7328125 32.65625 277.1328125 C30.47800039 277.21840368 28.29709745 277.23994662 26.1171875 277.23046875 C24.81523438 277.22724609 23.51328125 277.22402344 22.171875 277.22070312 C20.79166601 277.21234716 19.41145768 277.20388221 18.03125 277.1953125 C16.64323074 277.19029751 15.25520978 277.1857346 13.8671875 277.18164062 C10.46352327 277.16982235 7.0598813 277.1518864 3.65625 277.1328125 C3.65625 285.0528125 3.65625 292.9728125 3.65625 301.1328125 C7.28625 301.1328125 10.91625 301.1328125 14.65625 301.1328125 C16.63625 302.6178125 16.63625 302.6178125 18.65625 304.1328125 C18.65625 305.1228125 18.65625 306.1128125 18.65625 307.1328125 C19.31625 307.1328125 19.97625 307.1328125 20.65625 307.1328125 C20.98119469 311.79035311 20.56172505 314.42582709 17.65625 318.1328125 C12.87986647 322.20678668 10.76011757 321.1328125 3.65625 321.1328125 C3.65625 328.3928125 3.65625 335.6528125 3.65625 343.1328125 C5.46351562 343.08640625 7.27078125 343.04 9.1328125 342.9921875 C11.51560845 342.95466315 13.8984223 342.91826371 16.28125 342.8828125 C17.47105469 342.84929687 18.66085938 342.81578125 19.88671875 342.78125 C30.9397301 342.65775267 30.9397301 342.65775267 35.65625 347.1328125 C38.12967266 350.84294649 38.04128486 352.74341512 37.65625 357.1328125 C36.28125 359.5703125 36.28125 359.5703125 34.65625 361.1328125 C33.99625 361.1328125 33.33625 361.1328125 32.65625 361.1328125 C32.65625 361.7928125 32.65625 362.4528125 32.65625 363.1328125 C23.08625 363.1328125 13.51625 363.1328125 3.65625 363.1328125 C3.65625 371.0528125 3.65625 378.9728125 3.65625 387.1328125 C7.61625 387.1328125 11.57625 387.1328125 15.65625 387.1328125 C20.61543367 392.09199617 20.61543367 392.09199617 20.78125 396.3203125 C20.74 397.2484375 20.69875 398.1765625 20.65625 399.1328125 C19.99625 399.1328125 19.33625 399.1328125 18.65625 399.1328125 C18.57375 399.9165625 18.49125 400.7003125 18.40625 401.5078125 C18.15875 402.3740625 17.91125 403.2403125 17.65625 404.1328125 C13.65625 406.1328125 13.65625 406.1328125 3.65625 406.1328125 C3.65625 413.7228125 3.65625 421.3128125 3.65625 429.1328125 C5.54730469 429.09800781 7.43835938 429.06320312 9.38671875 429.02734375 C11.87238695 428.99920411 14.35806476 428.97190414 16.84375 428.9453125 C18.71256836 428.90760742 18.71256836 428.90760742 20.61914062 428.86914062 C21.82119141 428.85947266 23.02324219 428.84980469 24.26171875 428.83984375 C25.36668701 428.8241333 26.47165527 428.80842285 27.61010742 428.79223633 C31.04267563 429.1760171 32.88520608 430.1125761 35.65625 432.1328125 C38.22077594 435.55218042 37.81565162 438.98837035 37.65625 443.1328125 C36.99625 443.1328125 36.33625 443.1328125 35.65625 443.1328125 C35.553125 443.7515625 35.45 444.3703125 35.34375 445.0078125 C34.65625 447.1328125 34.65625 447.1328125 31.65625 449.1328125 C28.74536133 449.35986328 28.74536133 449.35986328 25.23828125 449.328125 C23.98466797 449.32167969 22.73105469 449.31523438 21.43945312 449.30859375 C20.12912109 449.29183594 18.81878906 449.27507812 17.46875 449.2578125 C16.13347013 449.24777889 14.79818311 449.2386537 13.46289062 449.23046875 C10.19393355 449.20686617 6.92506929 449.17099469 3.65625 449.1328125 C3.65625 457.0528125 3.65625 464.9728125 3.65625 473.1328125 C7.61625 473.1328125 11.57625 473.1328125 15.65625 473.1328125 C18.73568151 475.18576684 19.44918121 475.79016045 20.65625 479.1328125 C20.78125 482.3828125 20.78125 482.3828125 20.65625 485.1328125 C19.99625 485.1328125 19.33625 485.1328125 18.65625 485.1328125 C18.32625 486.4528125 17.99625 487.7728125 17.65625 489.1328125 C16.99625 489.1328125 16.33625 489.1328125 15.65625 489.1328125 C15.65625 489.7928125 15.65625 490.4528125 15.65625 491.1328125 C13.65625 492.1328125 13.65625 492.1328125 3.65625 492.1328125 C3.65625 505.3328125 3.65625 518.5328125 3.65625 532.1328125 C13.88625 532.1328125 24.11625 532.1328125 34.65625 532.1328125 C34.61668462 522.6789265 34.61668462 522.6789265 34.56616211 513.22509766 C34.56366455 512.05253418 34.56116699 510.8799707 34.55859375 509.671875 C34.55335693 508.46740723 34.54812012 507.26293945 34.54272461 506.02197266 C34.65625 503.1328125 34.65625 503.1328125 35.65625 501.1328125 C36.31625 501.1328125 36.97625 501.1328125 37.65625 501.1328125 C37.65625 500.4728125 37.65625 499.8128125 37.65625 499.1328125 C39.94172148 497.99007676 41.42504905 497.90153993 43.96875 497.8203125 C44.72800781 497.78292969 45.48726563 497.74554687 46.26953125 497.70703125 C49.69871131 498.3187835 51.21725838 499.66656539 53.65625 502.1328125 C54.22387695 505.34082031 54.22387695 505.34082031 54.14453125 509.0859375 C54.13745651 509.74615906 54.13038177 510.40638062 54.12309265 511.08660889 C54.09519727 513.18651742 54.03248287 515.28371629 53.96875 517.3828125 C53.94366017 518.8098572 53.92084817 520.23694388 53.90039062 521.6640625 C53.84964272 525.15551819 53.75182471 528.64114967 53.65625 532.1328125 C61.57625 532.1328125 69.49625 532.1328125 77.65625 532.1328125 C77.594375 530.0496875 77.5325 527.9665625 77.46875 525.8203125 C77.28554004 519.65224386 77.28554004 519.65224386 78.98046875 517.27734375 C82.71601798 514.72602458 86.28362264 514.97664724 90.65625 515.1328125 C93.68825339 516.1434803 94.65503825 516.76774407 96.65625 519.1328125 C97.65625 522.1328125 97.65625 522.1328125 97.65625 532.1328125 C105.24625 532.1328125 112.83625 532.1328125 120.65625 532.1328125 C120.56923828 529.07966797 120.56923828 529.07966797 120.48046875 525.96484375 C120.44568854 523.98237161 120.41109063 521.99989174 120.3815918 520.01733398 C120.35652383 518.64474148 120.32245918 517.27228148 120.27905273 515.90014648 C120.21807469 513.92230554 120.19263991 511.94347066 120.16796875 509.96484375 C120.14178467 508.77608643 120.11560059 507.5873291 120.08862305 506.36254883 C120.82058018 502.19779144 122.40866654 500.744262 125.65625 498.1328125 C128.04296875 497.609375 128.04296875 497.609375 130.34375 497.7578125 C131.49423828 497.80808594 131.49423828 497.80808594 132.66796875 497.859375 C134.65625 498.1328125 134.65625 498.1328125 136.65625 499.1328125 C136.65625 499.7928125 136.65625 500.4528125 136.65625 501.1328125 C137.31625 501.1328125 137.97625 501.1328125 138.65625 501.1328125 C140.09134221 504.00299691 139.76783506 506.46824973 139.75390625 509.671875 C139.75068359 510.97382812 139.74746094 512.27578125 139.74414062 513.6171875 C139.73578466 514.99739649 139.72731971 516.37760482 139.71875 517.7578125 C139.71373501 519.14583176 139.7091721 520.53385272 139.70507812 521.921875 C139.69325985 525.32553923 139.6753239 528.7291812 139.65625 532.1328125 C147.24625 532.1328125 154.83625 532.1328125 162.65625 532.1328125 C162.65625 529.4928125 162.65625 526.8528125 162.65625 524.1328125 C162.98050305 521.21453509 163.22171006 519.68586333 165.03125 517.3828125 C168.62655432 514.61719379 172.31209851 514.97766423 176.65625 515.1328125 C179.65625 516.1328125 179.65625 516.1328125 181.84375 519.1328125 C183.65625 523.1328125 183.65625 523.1328125 183.65625 532.1328125 C190.91625 532.1328125 198.17625 532.1328125 205.65625 532.1328125 C205.62144531 530.16957031 205.58664062 528.20632813 205.55078125 526.18359375 C205.52264214 523.60417522 205.49534211 521.02474744 205.46875 518.4453125 C205.44361328 517.15173828 205.41847656 515.85816406 205.39257812 514.52539062 C205.37807617 512.65463867 205.37807617 512.65463867 205.36328125 510.74609375 C205.33971558 509.02579956 205.33971558 509.02579956 205.31567383 507.27075195 C205.69656225 503.76139078 206.50086239 501.90798832 208.65625 499.1328125 C211.33268957 498.24066598 212.91009378 497.99741039 215.65625 498.0078125 C216.336875 498.00523437 217.0175 498.00265625 217.71875 498 C219.65625 498.1328125 219.65625 498.1328125 222.65625 499.1328125 C222.65625 499.7928125 222.65625 500.4528125 222.65625 501.1328125 C223.31625 501.1328125 223.97625 501.1328125 224.65625 501.1328125 C226.09134221 504.00299691 225.76783506 506.46824973 225.75390625 509.671875 C225.75068359 510.97382812 225.74746094 512.27578125 225.74414062 513.6171875 C225.73578466 514.99739649 225.72731971 516.37760482 225.71875 517.7578125 C225.71373501 519.14583176 225.7091721 520.53385272 225.70507812 521.921875 C225.69325985 525.32553923 225.6753239 528.7291812 225.65625 532.1328125 C233.24625 532.1328125 240.83625 532.1328125 248.65625 532.1328125 C248.65625 529.1628125 248.65625 526.1928125 248.65625 523.1328125 C249.65625 520.0703125 249.65625 520.0703125 250.65625 518.1328125 C251.31625 518.1328125 251.97625 518.1328125 252.65625 518.1328125 C252.65625 517.4728125 252.65625 516.8128125 252.65625 516.1328125 C256.15772041 514.9656557 258.98295036 514.99923797 262.65625 515.1328125 C263.31625 515.4628125 263.97625 515.7928125 264.65625 516.1328125 C264.65625 516.7928125 264.65625 517.4528125 264.65625 518.1328125 C265.64625 518.4628125 266.63625 518.7928125 267.65625 519.1328125 C270.28604194 523.70034588 269.65625 526.3850905 269.65625 532.1328125 C276.91625 532.1328125 284.17625 532.1328125 291.65625 532.1328125 C291.65625 522.5628125 291.65625 512.9928125 291.65625 503.1328125 C292.31625 503.1328125 292.97625 503.1328125 293.65625 503.1328125 C293.759375 502.4934375 293.8625 501.8540625 293.96875 501.1953125 C294.195625 500.5146875 294.4225 499.8340625 294.65625 499.1328125 C297.33268957 498.24066598 298.91009378 497.99741039 301.65625 498.0078125 C302.336875 498.00523437 303.0175 498.00265625 303.71875 498 C305.65625 498.1328125 305.65625 498.1328125 308.65625 499.1328125 C311.65972369 502.99994412 312.01528612 505.92317556 311.94921875 510.74609375 C311.93955078 511.99326172 311.92988281 513.24042969 311.91992188 514.52539062 C311.89478516 515.81896484 311.86964844 517.11253906 311.84375 518.4453125 C311.83021484 519.75822266 311.81667969 521.07113281 311.80273438 522.42382812 C311.76742706 525.660332 311.71362168 528.89662456 311.65625 532.1328125 C318.91625 532.1328125 326.17625 532.1328125 333.65625 532.1328125 C333.65625 529.1628125 333.65625 526.1928125 333.65625 523.1328125 C335.03125 520.0703125 335.03125 520.0703125 336.65625 518.1328125 C337.31625 518.1328125 337.97625 518.1328125 338.65625 518.1328125 C338.65625 517.4728125 338.65625 516.8128125 338.65625 516.1328125 C341.64622825 514.63782337 344.35667775 515.01703804 347.65625 515.1328125 C348.64625 515.4628125 349.63625 515.7928125 350.65625 516.1328125 C350.65625 516.7928125 350.65625 517.4528125 350.65625 518.1328125 C351.64625 518.4628125 352.63625 518.7928125 353.65625 519.1328125 C354.80761852 523.73828659 354.65625 527.07275393 354.65625 532.1328125 C362.24625 532.1328125 369.83625 532.1328125 377.65625 532.1328125 C377.64464844 530.06257812 377.63304687 527.99234375 377.62109375 525.859375 C377.6141414 523.85709757 377.6072241 521.85481985 377.60131836 519.85253906 C377.5962857 518.45962773 377.58945902 517.0667217 377.58081055 515.67382812 C377.56869848 513.67320004 377.56354588 511.67253362 377.55859375 509.671875 C377.55073853 507.86517334 377.55073853 507.86517334 377.54272461 506.02197266 C377.65625 503.1328125 377.65625 503.1328125 378.65625 501.1328125 C379.31625 501.1328125 379.97625 501.1328125 380.65625 501.1328125 C380.65625 500.4728125 380.65625 499.8128125 380.65625 499.1328125 C384.3679819 497.89556853 387.80616351 497.4348436 391.65625 498.1328125 C394.59375 500.5703125 394.59375 500.5703125 396.65625 503.1328125 C396.98625 503.4628125 397.31625 503.7928125 397.65625 504.1328125 C397.74392112 506.20543326 397.76320873 508.28101544 397.75390625 510.35546875 C397.75068359 511.61552734 397.74746094 512.87558594 397.74414062 514.17382812 C397.73578403 515.51432359 397.72731907 516.85481838 397.71875 518.1953125 C397.7137366 519.53971192 397.70917342 520.8841131 397.70507812 522.22851562 C397.69324497 525.52996683 397.67530886 528.8313951 397.65625 532.1328125 C404.91625 532.1328125 412.17625 532.1328125 419.65625 532.1328125 C419.65625 528.8328125 419.65625 525.5328125 419.65625 522.1328125 C420.31625 522.1328125 420.97625 522.1328125 421.65625 522.1328125 C421.800625 521.5140625 421.945 520.8953125 422.09375 520.2578125 C422.65625 518.1328125 422.65625 518.1328125 423.65625 516.1328125 C428.12879497 514.64196418 432.18370503 514.64196418 436.65625 516.1328125 C438.33203125 517.27734375 438.33203125 517.27734375 439.65625 519.1328125 C440.06368792 523.49511452 439.78665636 527.74246508 439.65625 532.1328125 C447.57625 532.1328125 455.49625 532.1328125 463.65625 532.1328125 C463.65625 522.2328125 463.65625 512.3328125 463.65625 502.1328125 C464.64625 501.8028125 465.63625 501.4728125 466.65625 501.1328125 C466.65625 500.4728125 466.65625 499.8128125 466.65625 499.1328125 C469.02238456 497.94974522 470.52405736 497.99926642 473.15625 498.0078125 C474.34734375 498.00394531 474.34734375 498.00394531 475.5625 498 C477.65625 498.1328125 477.65625 498.1328125 479.65625 499.1328125 C479.65625 499.7928125 479.65625 500.4528125 479.65625 501.1328125 C480.31625 501.1328125 480.97625 501.1328125 481.65625 501.1328125 C483.09134221 504.00299691 482.76783506 506.46824973 482.75390625 509.671875 C482.75068359 510.97382812 482.74746094 512.27578125 482.74414062 513.6171875 C482.73578466 514.99739649 482.72731971 516.37760482 482.71875 517.7578125 C482.71373501 519.14583176 482.7091721 520.53385272 482.70507812 521.921875 C482.69325985 525.32553923 482.6753239 528.7291812 482.65625 532.1328125 C490.24625 532.1328125 497.83625 532.1328125 505.65625 532.1328125 C505.65625 528.8328125 505.65625 525.5328125 505.65625 522.1328125 C506.6669178 519.10080911 507.29118157 518.13402425 509.65625 516.1328125 C514.12879497 514.64196418 518.18370503 514.64196418 522.65625 516.1328125 C525.07755331 519.76476746 524.86647785 521.51630598 524.78125 525.8203125 C524.76320313 526.99980469 524.74515625 528.17929687 524.7265625 529.39453125 C524.70335937 530.29816406 524.68015625 531.20179688 524.65625 532.1328125 C525.35709717 532.11710205 526.05794434 532.1013916 526.7800293 532.08520508 C529.96785351 532.02268838 533.15554851 531.98376869 536.34375 531.9453125 C537.99793945 531.90760742 537.99793945 531.90760742 539.68554688 531.86914062 C540.75224609 531.85947266 541.81894531 531.84980469 542.91796875 531.83984375 C543.89725342 531.8241333 544.87653809 531.80842285 545.88549805 531.79223633 C549.15178227 532.19372249 551.00189283 533.22260771 553.65625 535.1328125 C555.69986361 538.0686232 555.87829401 540.18747899 555.46875 543.6953125 C555.35466797 544.84193359 555.35466797 544.84193359 555.23828125 546.01171875 C554.53179749 548.58635421 553.72082589 549.46471402 551.65625 551.1328125 C549.74207556 551.508244 549.74207556 551.508244 547.52965736 551.50885999 C546.68370168 551.51637055 545.837746 551.5238811 544.96615529 551.53161925 C544.03474745 551.52459575 543.1033396 551.51757225 542.14370728 551.51033592 C541.15175755 551.51469624 540.15980783 551.51905657 539.13779902 551.52354902 C535.78134639 551.53458248 532.42529796 551.52404558 529.06884766 551.51376343 C526.6512614 551.51721679 524.23367671 551.52197917 521.81609535 551.52794516 C516.54302702 551.53789527 511.27008023 551.53843663 505.99701691 551.53080368 C498.15597959 551.51948418 490.31502033 551.52524283 482.47398359 551.5344286 C468.47219335 551.55025028 454.47044409 551.54884694 440.46864992 551.54019186 C428.21568816 551.5326547 415.96274144 551.53067065 403.70977783 551.5342598 C402.89802021 551.53448895 402.08626259 551.53471811 401.24990626 551.53495421 C397.95498279 551.53588817 394.66005933 551.53684337 391.36513589 551.5378335 C360.43601313 551.54701711 329.50691652 551.53867964 298.5777978 551.52254281 C271.07984598 551.50830526 243.58193583 551.50957911 216.08398438 551.52392578 C185.21258848 551.53997854 154.3412157 551.5463659 123.46981621 551.53708899 C120.18078487 551.53612679 116.89175352 551.53518827 113.60272217 551.5342598 C112.79283776 551.53402256 111.98295334 551.53378533 111.14852698 551.53354091 C98.90119672 551.53012388 86.65388313 551.53412788 74.40655518 551.54169846 C60.48525792 551.5502607 46.56400819 551.54816501 32.64271688 551.53185622 C24.84483196 551.52302315 17.04704984 551.52250703 9.24916751 551.53379475 C3.43918289 551.54127968 -2.37071011 551.53320859 -8.18068433 551.51887102 C-10.54065769 551.51549996 -12.9006447 551.51726887 -15.26060939 551.52449839 C-18.45100994 551.53352753 -21.64083746 551.52435986 -24.83120728 551.51033592 C-25.76261512 551.51735942 -26.69402297 551.52438292 -27.65365529 551.53161925 C-28.49961097 551.5241087 -29.34556666 551.51659814 -30.21715736 551.50885999 C-30.94725537 551.50865671 -31.67735337 551.50845344 -32.42957556 551.508244 C-34.90575122 551.02258589 -35.79025703 550.08200596 -37.34375 548.1328125 C-38.5858349 543.93487998 -38.80025316 540.26205715 -37.15625 536.1953125 C-35.18198926 533.94873994 -34.1256044 533.17774946 -31.34375 532.1328125 C-27.890625 531.9375 -27.890625 531.9375 -24.09375 532.0078125 C-22.83046875 532.02585937 -21.5671875 532.04390625 -20.265625 532.0625 C-18.81929687 532.09730469 -18.81929687 532.09730469 -17.34375 532.1328125 C-17.34450944 531.02805897 -17.34526888 529.92330544 -17.34605134 528.78507453 C-17.37938045 480.11035601 -17.41023722 431.43563676 -17.42843628 382.76091003 C-17.42885045 381.65600636 -17.42885045 381.65600636 -17.42927299 380.5287814 C-17.43525843 364.52145834 -17.44079885 348.51413516 -17.44588066 332.50681179 C-17.44837539 324.65712905 -17.45096849 316.80744636 -17.45361328 308.95776367 C-17.4538748 308.17661474 -17.45413632 307.39546581 -17.45440576 306.59064569 C-17.46293253 281.25914349 -17.47795819 255.92765019 -17.49634444 230.59615339 C-17.51520023 204.57057183 -17.5275187 178.54499521 -17.53157998 152.51940695 C-17.53215631 148.84573405 -17.53280759 145.17206117 -17.53350449 141.49838829 C-17.53363933 140.7753377 -17.53377418 140.05228712 -17.53391311 139.30732591 C-17.53627901 127.65563743 -17.54556176 116.00396418 -17.55741407 104.35228192 C-17.5691749 92.64602321 -17.57352716 80.93978337 -17.57075275 69.23351858 C-17.56946735 62.88772161 -17.57148581 56.54196942 -17.58216095 50.19618034 C-17.59185347 44.39235177 -17.59241104 38.58859834 -17.58554779 32.7847664 C-17.58469883 30.67971004 -17.58726966 28.5746491 -17.59351636 26.46960185 C-17.60148893 23.61828692 -17.59724892 20.76724677 -17.58984566 17.91593647 C-17.5977267 16.67703007 -17.5977267 16.67703007 -17.60576695 15.41309527 C-17.57578682 10.33759128 -17.14972656 6.43132812 -13.96875 2.3828125 C-9.98464502 -0.68188364 -4.79431579 -0.01250399 0 0 Z " fill="#2C4155" transform="translate(101.34375,101.8671875)"/>
<path d="M0 0 C2.97 0 5.94 0 9 0 C9 0.66 9 1.32 9 2 C9.9590625 2.4640625 9.9590625 2.4640625 10.9375 2.9375 C13 4 13 4 14 5 C14.09807972 7.19440529 14.12371125 9.3920433 14.12304783 11.58863926 C14.12420167 12.28877981 14.12535552 12.98892036 14.12654433 13.71027729 C14.12921772 16.08597318 14.12468294 18.46160299 14.12025452 20.83729553 C14.12069007 22.5458261 14.12156469 24.25435661 14.12284368 25.96288675 C14.12509174 30.6808874 14.12106314 35.39886558 14.11606562 40.11686337 C14.11176574 45.19596619 14.11320721 50.27506763 14.1139679 55.35417175 C14.11449343 64.16173162 14.11134361 72.96928411 14.10573006 81.77684212 C14.09761897 94.51124975 14.09500024 107.24565379 14.09374207 119.98006373 C14.09155093 140.63848527 14.08488918 161.29690287 14.07543945 181.95532227 C14.06626693 202.02856425 14.05918532 222.10180517 14.05493164 242.17504883 C14.05453756 244.029579 14.05453756 244.029579 14.05413551 245.92157442 C14.05283052 252.12370928 14.0515668 258.32584415 14.05032361 264.52797902 C14.03994907 316.0186554 14.02232909 367.50932751 14 419 C15.16402819 418.99829126 15.16402819 418.99829126 16.3515721 418.996548 C62.32957617 418.92943543 108.30757493 418.87795127 154.28561816 418.84680401 C159.80442586 418.84305182 165.32323346 418.83916886 170.84204102 418.83520508 C171.94075108 418.83441815 173.03946114 418.83363122 174.17146545 418.83282044 C191.96909924 418.81976123 209.76670401 418.79610455 227.56432057 418.76854161 C245.82196292 418.74050175 264.07959004 418.72382674 282.33725303 418.71773452 C293.60610678 418.71361513 304.87487848 418.70059739 316.14370697 418.6762506 C323.86780497 418.66041094 331.59186046 418.65559563 339.31597353 418.65949587 C343.77450868 418.66142017 348.23290033 418.65843946 352.69141006 418.64238358 C356.77326885 418.62779128 360.85488751 418.62704325 364.93675732 418.63730332 C366.41332376 418.63857151 367.88990515 418.63476022 369.36644215 418.62535045 C383.25369937 418.5419959 383.25369937 418.5419959 389 422 C391.27042717 424.70986468 391.91835776 426.45183064 392.4375 429.9375 C391.87637875 433.86534874 390.53358258 435.97377636 388 439 C384.59847822 440.29214558 381.15587933 440.12533548 377.55314636 440.12584114 C376.90477062 440.12729458 376.25639488 440.12874802 375.5883714 440.13024551 C373.40679123 440.13390688 371.22528087 440.13041844 369.04370117 440.12698364 C367.46742562 440.1281354 365.89115033 440.1297233 364.3148756 440.13171089 C359.976227 440.13589662 355.63760032 440.1338169 351.29895163 440.13072467 C346.62269026 440.12846774 341.94643273 440.13195165 337.27017212 440.13470459 C328.10654164 440.13915811 318.94291934 440.13818767 309.77928853 440.13529195 C302.3337645 440.13303628 294.88824278 440.13272611 287.44271851 440.13381577 C285.85498179 440.13404561 285.85498179 440.13404561 284.23516959 440.13428011 C282.08506465 440.13459982 279.93495971 440.13492404 277.78485477 440.1352527 C257.60927871 440.13810627 237.43370718 440.13482239 217.25813186 440.12945233 C199.93543199 440.12498441 182.61273882 440.12576037 165.29003906 440.13037109 C145.18811209 440.13571902 125.0861891 440.13783159 104.98426151 440.13475883 C102.84193484 440.13444027 100.69960817 440.1341259 98.55728149 440.13381577 C96.97606051 440.13358435 96.97606051 440.13358435 95.36289567 440.13334826 C87.92376338 440.13248377 80.48463361 440.13394454 73.04550171 440.13629532 C63.98336208 440.13909593 54.92123111 440.1383495 45.85909247 440.13301457 C41.23285555 440.13038112 36.60663309 440.12936652 31.98039627 440.13266373 C27.74903605 440.13563395 23.51770375 440.13402166 19.28634608 440.12868617 C17.75208458 440.12756511 16.21782074 440.12814634 14.68356073 440.13056196 C12.60462441 440.13358516 10.52578484 440.13050141 8.44685364 440.12584114 C7.29011548 440.12567879 6.13337732 440.12551644 4.94158649 440.12534916 C0.35634859 439.92995945 0.35634859 439.92995945 -2 439 C-4 436 -4 436 -4 433 C-4.66 433 -5.32 433 -6 433 C-6 292.42 -6 151.84 -6 7 C-5.34 7 -4.68 7 -4 7 C-3.67 5.35 -3.34 3.7 -3 2 C-2.01 2 -1.02 2 0 2 C0 1.34 0 0.68 0 0 Z " fill="#2B4155" transform="translate(167,137)"/>
<path d="M0 0 C1.22822479 -0.01283524 2.45644958 -0.02567047 3.72189331 -0.03889465 C5.06866046 -0.04706146 6.41543216 -0.05450531 7.76220703 -0.0612793 C8.43939915 -0.06535482 9.11659126 -0.06943035 9.81430435 -0.07362938 C13.3980097 -0.09448623 16.98167678 -0.10879005 20.56542969 -0.11816406 C24.26680065 -0.12923324 27.96757119 -0.16363897 31.66872978 -0.20333576 C34.51519896 -0.22947942 37.3615245 -0.23785378 40.20810318 -0.24144554 C41.57247095 -0.24631674 42.93683208 -0.2579461 44.30108261 -0.27648354 C46.21099122 -0.30082397 48.12119166 -0.29749518 50.03125 -0.29296875 C51.11775848 -0.29883499 52.20426697 -0.30470123 53.32369995 -0.31074524 C56.90862378 0.30901317 57.8924795 1.36172143 60.14501953 4.17700195 C60.64641619 6.76477617 60.64641619 6.76477617 60.64838409 9.7621069 C60.65881508 10.90605795 60.66924607 12.050009 60.67999315 13.22862524 C60.66660882 15.11454243 60.66660882 15.11454243 60.6529541 17.03855896 C60.65756203 18.38726429 60.66391422 19.73596461 60.67186308 21.08465439 C60.68859501 24.7944148 60.68029278 28.50376477 60.66791821 32.21352684 C60.65888562 36.21293648 60.67282856 40.21227443 60.68383789 44.21166992 C60.70164741 52.04818103 60.6977722 59.88453911 60.68618733 67.72105628 C60.67716218 74.08916183 60.67592502 80.45722443 60.68028259 86.82533455 C60.68089552 87.7308921 60.68150846 88.63644965 60.68213996 89.56944834 C60.68341884 91.40895256 60.68471569 93.24845677 60.68603033 95.08796097 C60.69744342 112.34739779 60.68431134 129.60674972 60.66282886 146.86617262 C60.64496024 161.68084382 60.64805863 176.49538966 60.66650391 191.31005859 C60.68790297 208.5052149 60.69634153 225.70029672 60.68405485 242.89546448 C60.68278063 244.72859417 60.68152315 246.56172388 60.68028259 248.39485359 C60.67966549 249.29683414 60.67904839 250.19881468 60.67841259 251.12812797 C60.67495656 257.48928546 60.68079352 263.85039577 60.69020081 270.21154594 C60.7014116 277.96278071 60.6984003 285.71385342 60.67707783 293.46506958 C60.66655448 297.42115309 60.66246721 301.37696627 60.67567444 305.33304787 C60.6875781 308.9533835 60.68106996 312.57319777 60.65976423 316.19348598 C60.65316663 318.12620291 60.66625257 320.05895592 60.67999315 321.99163526 C60.66434667 323.71147346 60.66434667 323.71147346 60.64838409 325.46605587 C60.64773468 326.45533736 60.64708528 327.44461885 60.64641619 328.46387857 C59.99960749 331.96384566 58.61747591 333.66038261 56.14501953 336.17700195 C53.3371582 336.80519104 53.3371582 336.80519104 50.06298828 336.80810547 C48.83491455 336.82063858 47.60684082 336.83317169 46.34155273 336.84608459 C45.00519754 336.8338162 43.6688525 336.82039616 42.33251953 336.8059082 C40.95776176 336.80673718 39.5830041 336.80919763 38.20825195 336.81321716 C35.32977392 336.81607329 32.45207481 336.80139424 29.57373047 336.77392578 C25.88794003 336.73984143 22.20354205 336.74586189 18.51768494 336.76458836 C15.67969195 336.77516781 12.84202182 336.76621234 10.00405884 336.75120354 C8.64532429 336.74602807 7.28655594 336.74649586 5.92782593 336.75274849 C4.02752309 336.75821092 2.12720349 336.73495219 0.22705078 336.71044922 C-1.39366333 336.70115135 -1.39366333 336.70115135 -3.04711914 336.69166565 C-6.58287481 336.0435834 -7.73526652 335.0486399 -9.85498047 332.17700195 C-10.78174924 328.61569643 -10.98166003 325.26901255 -10.98640823 321.59937477 C-10.99024938 320.48253323 -10.99409052 319.36569169 -10.99804807 318.21500647 C-10.99718158 316.99313301 -10.9963151 315.77125955 -10.99542236 314.51235962 C-10.99839349 313.21037325 -11.00136461 311.90838689 -11.00442576 310.56694639 C-11.01248454 306.95465142 -11.01428471 303.34237634 -11.01502323 299.73007345 C-11.01687569 295.83359845 -11.0244239 291.93713372 -11.03115845 288.04066467 C-11.0447333 279.5221688 -11.05076488 271.00367764 -11.05516911 262.48517275 C-11.05793239 257.16648922 -11.06216985 251.84780751 -11.06667328 246.52912521 C-11.07886376 231.80332618 -11.08916421 217.0775286 -11.09254837 202.35172462 C-11.09276794 201.40949317 -11.0929875 200.46726172 -11.09321372 199.49647781 C-11.093432 198.55199811 -11.09365028 197.60751842 -11.09387517 196.63441813 C-11.09431864 194.72055284 -11.0947652 192.80668755 -11.09521484 190.89282227 C-11.09543627 189.94347983 -11.0956577 188.9941374 -11.09588584 188.01602702 C-11.0998353 172.62748576 -11.11729482 157.23899181 -11.14057437 141.85046883 C-11.1642819 126.05157147 -11.17674991 110.25269787 -11.17791629 94.45378244 C-11.17883327 85.58309055 -11.18459162 76.71246034 -11.2027359 67.84178543 C-11.21812866 60.28976167 -11.22326215 52.73781867 -11.2149978 45.18578221 C-11.21108865 41.33276241 -11.21203378 37.47990527 -11.22605515 33.62690544 C-11.24111743 29.44968972 -11.23293566 25.27284124 -11.22247314 21.09561157 C-11.23052955 19.87819955 -11.23858595 18.66078754 -11.24688649 17.40648425 C-11.21076698 11.25639147 -10.98027917 6.55172049 -7.85498047 1.17700195 C-5.15449199 -0.17324229 -3.02358384 0.02743508 0 0 Z M9.14501953 19.17700195 C9.14501953 117.18700195 9.14501953 215.19700195 9.14501953 316.17700195 C19.37501953 316.17700195 29.60501953 316.17700195 40.14501953 316.17700195 C40.14501953 218.16700195 40.14501953 120.15700195 40.14501953 19.17700195 C29.91501953 19.17700195 19.68501953 19.17700195 9.14501953 19.17700195 Z " fill="#0ACCB1" transform="translate(204.85498046875,207.822998046875)"/>
<path d="M0 0 C7.90156605 -0.06948567 15.80300463 -0.12280364 23.70480061 -0.15543652 C27.37386676 -0.17109805 31.04272401 -0.19234475 34.71166992 -0.22631836 C38.25188947 -0.25889514 41.79190799 -0.27684934 45.33226585 -0.28463173 C47.34147655 -0.29287924 49.35060628 -0.31630137 51.35969543 -0.33988953 C53.19125435 -0.34022942 53.19125435 -0.34022942 55.05981445 -0.34057617 C56.67530937 -0.35056892 56.67530937 -0.35056892 58.32344055 -0.36076355 C61 0 61 0 62.8712616 1.39628601 C64 3 64 3 64 5 C64.66 5 65.32 5 66 5 C66 84.53 66 164.06 66 246 C65.34 246 64.68 246 64 246 C63.5359375 246.9590625 63.5359375 246.9590625 63.0625 247.9375 C62 250 62 250 61 251 C59.11920792 251.10964189 57.23428858 251.14910371 55.3503418 251.16113281 C54.14206223 251.17074036 52.93378265 251.1803479 51.68888855 251.19024658 C50.37229752 251.19449646 49.05570648 251.19874634 47.69921875 251.203125 C46.34259539 251.20887499 44.98597205 251.21463274 43.62934875 251.22039795 C40.78032044 251.23091816 37.93132041 251.23675372 35.08227539 251.24023438 C31.43366986 251.24571276 27.78543874 251.2697219 24.13695049 251.29820633 C21.33251359 251.31684544 18.52816648 251.32203903 15.72367287 251.32357025 C13.72505502 251.32806687 11.72648526 251.34671074 9.72795105 251.36553955 C8.510215 251.36253845 7.29247894 251.35953735 6.0378418 251.35644531 C4.4302021 251.36191376 4.4302021 251.36191376 2.79008484 251.36749268 C-0.37171229 250.95104036 -1.7625893 250.24755944 -4 248 C-4.25 245.3125 -4.25 245.3125 -4 243 C-4.66 243 -5.32 243 -6 243 C-6.06844983 213.3089551 -6.12153525 183.61791287 -6.15319599 153.92680606 C-6.15694807 150.42084909 -6.16083104 146.91489228 -6.16479492 143.40893555 C-6.16558185 142.71096786 -6.16636878 142.01300018 -6.16717956 141.29388196 C-6.18023057 129.99509834 -6.20388273 118.69636054 -6.23145839 107.3976041 C-6.25952108 95.80251494 -6.27595356 84.2074525 -6.28226548 72.61233097 C-6.28617888 66.10016036 -6.2953864 59.58809367 -6.31719017 53.07595634 C-6.33754429 46.94716268 -6.3438359 40.8185158 -6.33932304 34.68969154 C-6.34014872 32.43988116 -6.34612064 30.19006589 -6.35761642 27.94028473 C-6.37254343 24.86845157 -6.36895255 21.79717254 -6.36076355 18.72532654 C-6.36950207 17.83523453 -6.3782406 16.94514252 -6.38724393 16.02807802 C-6.34812877 10.59902974 -5.47590168 6.84666847 -3 2 C-2.01 2 -1.02 2 0 2 C0 1.34 0 0.68 0 0 Z M15 20 C15 89.63 15 159.26 15 231 C25.23 231 35.46 231 46 231 C46 161.37 46 91.74 46 20 C35.77 20 25.54 20 15 20 Z " fill="#2C4254" transform="translate(285,293)"/>
<path d="M0 0 C1.80735123 -0.02398109 1.80735123 -0.02398109 3.6512146 -0.04844666 C4.95434601 -0.05380936 6.25747742 -0.05917206 7.60009766 -0.06469727 C8.95146789 -0.07366565 10.30283711 -0.08278753 11.65420532 -0.09205627 C14.48710542 -0.10854309 17.31988739 -0.11624572 20.15283203 -0.11914062 C23.77693236 -0.1245229 27.39991717 -0.16219509 31.02370262 -0.20788479 C33.81533832 -0.23767949 36.60670623 -0.24486468 39.39848709 -0.24586678 C41.38217271 -0.25210164 43.36574142 -0.28156369 45.34921265 -0.31138611 C46.56041779 -0.30530838 47.77162292 -0.29923065 49.01953125 -0.29296875 C50.08303802 -0.2980394 51.1465448 -0.30311005 52.24227905 -0.30833435 C56.21557009 0.53481538 57.58160118 2.19488525 60.13916016 5.30639648 C60.7543993 8.34232807 60.7543993 8.34232807 60.74043274 11.79206848 C60.74730606 13.10313568 60.75417938 14.41420288 60.76126099 15.76499939 C60.74356732 17.2108517 60.7253933 18.6566982 60.70678711 20.10253906 C60.70537622 21.63035028 60.70616943 23.15816488 60.70899963 24.68597412 C60.71043361 28.82840556 60.68104746 32.97011239 60.64612985 37.1123755 C60.61486295 41.44318097 60.61193535 45.77400325 60.60600281 50.10490417 C60.59046531 58.30369422 60.54943822 66.50215072 60.49925536 74.70079392 C60.44335889 84.03563068 60.41587465 93.37048342 60.39077818 102.70544589 C60.3385222 121.90595182 60.25058184 141.10614733 60.13916016 160.30639648 C59.47916016 160.30639648 58.81916016 160.30639648 58.13916016 160.30639648 C57.80916016 161.29639648 57.47916016 162.28639648 57.13916016 163.30639648 C56.47916016 163.30639648 55.81916016 163.30639648 55.13916016 163.30639648 C55.13916016 163.96639648 55.13916016 164.62639648 55.13916016 165.30639648 C47.27224799 165.42237799 39.40553702 165.51115541 31.53798389 165.56545734 C27.88447123 165.59152343 24.23154456 165.62686425 20.57836914 165.68359375 C17.05107068 165.73802414 13.52433488 165.76783951 9.99664879 165.7807827 C7.99959614 165.79448287 6.00276909 165.83349942 4.00605774 165.87287903 C-6.09457511 165.87600344 -6.09457511 165.87600344 -9.1628418 162.96337891 C-11.74502086 158.92285341 -11.98853048 155.98666166 -12.00128174 151.28469849 C-12.00699188 150.02567719 -12.01270203 148.76665588 -12.01858521 147.46948242 C-12.01983054 146.0715333 -12.02095564 144.67358407 -12.02197266 143.27563477 C-12.02660124 141.80548986 -12.03162595 140.33534616 -12.03701782 138.86520386 C-12.05013904 134.86930591 -12.05658611 130.87342476 -12.06102848 126.87750864 C-12.06395935 124.38138891 -12.06806416 121.88527376 -12.07253265 119.38915634 C-12.08620618 111.58034287 -12.09587383 103.77153989 -12.09973454 95.96271527 C-12.10421661 86.94656855 -12.12177197 77.93057334 -12.15073514 68.9144727 C-12.17234342 61.94623571 -12.18243835 54.97804137 -12.18377566 48.00977123 C-12.18482421 43.84736806 -12.19074254 39.68510733 -12.20859528 35.52273941 C-12.22506151 31.60750754 -12.22723862 27.69252541 -12.21845627 23.77727127 C-12.21768514 22.34096102 -12.22203863 20.90463741 -12.23191452 19.4683609 C-12.24461371 17.50630192 -12.23697288 15.54414282 -12.22833252 13.58206177 C-12.22979908 12.48441561 -12.23126564 11.38676945 -12.23277664 10.25586128 C-11.80601465 6.8716318 -10.88972576 5.02790515 -8.86083984 2.30639648 C-5.41171635 0.00698082 -4.06755641 0.04075464 0 0 Z M9.13916016 20.30639648 C9.13916016 61.55639648 9.13916016 102.80639648 9.13916016 145.30639648 C19.36916016 145.30639648 29.59916016 145.30639648 40.13916016 145.30639648 C40.13916016 104.05639648 40.13916016 62.80639648 40.13916016 20.30639648 C29.90916016 20.30639648 19.67916016 20.30639648 9.13916016 20.30639648 Z " fill="#09CDB1" transform="translate(376.86083984375,378.693603515625)"/>
<path d="M0 0 C0.74209312 -0.00367669 1.48418623 -0.00735338 2.24876702 -0.01114148 C4.74838128 -0.02220053 7.24795401 -0.02602588 9.74758911 -0.02983093 C11.53447604 -0.03609381 13.32136167 -0.04274046 15.10824585 -0.04974365 C19.97187271 -0.06716752 24.83548973 -0.07770879 29.69914007 -0.08594918 C32.73546489 -0.09109547 35.77178663 -0.09717131 38.80810928 -0.10346031 C48.30148978 -0.12251464 57.79486248 -0.13674632 67.28825843 -0.14507228 C78.25936769 -0.1548523 89.23027559 -0.18119074 100.20131385 -0.22157317 C108.67353518 -0.25169172 117.14569865 -0.26653702 125.61797249 -0.26985329 C130.68191776 -0.2722083 135.74564797 -0.28122722 140.80953598 -0.30631447 C145.5718216 -0.32952634 150.33374953 -0.33385631 155.09607697 -0.32355309 C156.84564781 -0.32305596 158.59523585 -0.32942816 160.34475327 -0.34310913 C162.73026855 -0.36072247 165.11448533 -0.35377523 167.5 -0.34057617 C168.19513698 -0.35154542 168.89027397 -0.36251466 169.60647571 -0.37381631 C172.92867542 -0.32932271 174.61760575 -0.05232239 177.28335762 1.99796772 C179.36010834 4.79872488 179.73790308 6.67015703 179.87698364 10.14717102 C179.16970394 13.75429749 178.66674851 15.53909576 175.72813416 17.80166626 C172.22866383 19.45312379 169.74827932 19.50863748 165.88357544 19.48774719 C164.85835533 19.48840431 164.85835533 19.48840431 163.81242371 19.48907471 C161.56671994 19.48699462 159.32177477 19.46370179 157.07620239 19.44013977 C155.51393542 19.43454101 153.95166317 19.43027223 152.38938904 19.42727661 C148.28755015 19.41584981 144.18603248 19.38640157 140.08432007 19.35316467 C135.89480941 19.3224169 131.7052466 19.30876124 127.51565552 19.2936554 C119.30261787 19.26152953 111.08984077 19.2103597 102.87698364 19.14717102 C102.87698364 21.12717102 102.87698364 23.10717102 102.87698364 25.14717102 C104.09281128 25.12098694 105.30863892 25.09480286 106.56130981 25.06782532 C111.08049045 24.97719342 115.59959108 24.91987454 120.11941528 24.87251282 C122.07397987 24.84739821 124.02845081 24.81329971 125.98269653 24.76997375 C128.79535032 24.70918668 131.60676066 24.6809312 134.41995239 24.65888977 C135.29097092 24.63308334 136.16198944 24.60727692 137.05940247 24.58068848 C141.5133218 24.57863839 143.29995887 24.69792229 146.92654419 27.5214386 C149.03957335 30.36605353 149.55663227 31.64965856 149.50198364 35.14717102 C149.51487427 35.97217102 149.52776489 36.79717102 149.54104614 37.64717102 C148.52924722 41.45629639 147.02774662 42.7634866 143.87698364 45.14717102 C140.19894811 45.88873087 136.57334579 45.80968639 132.83206177 45.7624054 C131.16052284 45.77072891 131.16052284 45.77072891 129.45521545 45.77922058 C125.77245051 45.79102924 122.09091251 45.76672724 118.40823364 45.74092102 C115.84903011 45.73921021 113.28982483 45.7392753 110.73062134 45.74104309 C105.36727803 45.73938913 100.0043628 45.72125878 94.6411438 45.68916321 C88.44657079 45.65227193 82.25245976 45.64348802 76.05779123 45.65046072 C70.09101031 45.65677301 64.12436624 45.64578437 58.15760803 45.62649536 C55.62185946 45.61946106 53.08609693 45.61634135 50.55033875 45.6171875 C47.00727077 45.61539103 43.46485996 45.59402066 39.92190552 45.5670929 C38.87240219 45.5700235 37.82289886 45.5729541 36.74159241 45.57597351 C27.7689295 45.47069028 27.7689295 45.47069028 23.87698364 42.14717102 C22.70063068 39.79446509 22.74339005 38.32641902 22.75198364 35.70967102 C22.74940552 34.92721008 22.74682739 34.14474915 22.74417114 33.33857727 C22.87698364 31.14717102 22.87698364 31.14717102 23.87698364 28.14717102 C24.53698364 28.14717102 25.19698364 28.14717102 25.87698364 28.14717102 C25.87698364 27.48717102 25.87698364 26.82717102 25.87698364 26.14717102 C29.63546538 24.89434377 33.13189283 25.02335267 37.04495239 25.04951477 C37.83976517 25.05092972 38.63457794 25.05234467 39.45347595 25.05380249 C41.9905169 25.05939724 44.5274694 25.07194874 47.06448364 25.08467102 C48.78518549 25.0896867 50.50588873 25.09424949 52.22659302 25.0983429 C56.44342394 25.10936495 60.6601888 25.12662596 64.87698364 25.14717102 C64.87698364 23.16717102 64.87698364 21.18717102 64.87698364 19.14717102 C64.00890076 19.15161224 63.14081787 19.15605347 62.24642944 19.16062927 C54.06551129 19.20070361 45.8846261 19.23115423 37.70363235 19.25079536 C33.49770165 19.26123251 29.29185205 19.27539045 25.08596802 19.29804993 C21.02704826 19.31978077 16.96820653 19.33174017 12.90923309 19.33692551 C11.36068239 19.34062083 9.81213596 19.34783685 8.26361847 19.35863113 C6.09460726 19.37314937 3.92591844 19.37514884 1.75686646 19.3742218 C-0.0951236 19.38088364 -0.0951236 19.38088364 -1.98452759 19.38768005 C-4.96180128 19.15952527 -6.62485615 18.71576856 -9.12301636 17.14717102 C-9.12301636 16.48717102 -9.12301636 15.82717102 -9.12301636 15.14717102 C-9.78301636 15.14717102 -10.44301636 15.14717102 -11.12301636 15.14717102 C-12.44835288 9.24339923 -11.91657723 6.32043189 -9.12301636 1.14717102 C-6.18518782 -0.32174325 -3.22082691 -0.00084877 0 0 Z " fill="#0ACDB1" transform="translate(276.1230163574219,668.8528289794922)"/>
<path d="M0 0 C1.22822479 -0.01283524 2.45644958 -0.02567047 3.72189331 -0.03889465 C5.06866046 -0.04706146 6.41543216 -0.05450531 7.76220703 -0.0612793 C8.43939915 -0.06535482 9.11659126 -0.06943035 9.81430435 -0.07362938 C13.3980097 -0.09448623 16.98167678 -0.10879005 20.56542969 -0.11816406 C24.26680065 -0.12923324 27.96757119 -0.16363897 31.66872978 -0.20333576 C34.51519896 -0.22947942 37.3615245 -0.23785378 40.20810318 -0.24144554 C41.57247095 -0.24631674 42.93683208 -0.2579461 44.30108261 -0.27648354 C46.21099122 -0.30082397 48.12119166 -0.29749518 50.03125 -0.29296875 C51.11775848 -0.29883499 52.20426697 -0.30470123 53.32369995 -0.31074524 C56.14501953 0.17700195 56.14501953 0.17700195 58.49676514 1.77935791 C60.71035131 4.99936552 60.63991422 7.11538937 60.63085938 11.00927734 C60.63465607 11.68779251 60.63845276 12.36630768 60.6423645 13.06538391 C60.64975827 15.30228289 60.62840847 17.53787523 60.60595703 19.7746582 C60.60357202 21.33117012 60.60266741 22.88768495 60.60317993 24.44419861 C60.6000541 27.70338001 60.58350462 30.96212082 60.55664062 34.22119141 C60.52263263 38.40000015 60.51501296 42.57832558 60.51653099 46.75725651 C60.51598736 49.9700126 60.50502178 53.18266291 60.49052811 56.39538383 C60.48416198 57.93636716 60.48022164 59.47736247 60.47874069 61.01835823 C60.47440719 63.17048725 60.45690678 65.32210241 60.43554688 67.47412109 C60.42411148 69.31134483 60.42411148 69.31134483 60.41244507 71.1856842 C60.14501953 74.17700195 60.14501953 74.17700195 58.14501953 77.17700195 C57.48501953 77.17700195 56.82501953 77.17700195 56.14501953 77.17700195 C56.14501953 77.83700195 56.14501953 78.49700195 56.14501953 79.17700195 C48.13036607 79.26971402 40.11593694 79.34077233 32.10087967 79.38425064 C28.37907205 79.40511899 24.65763151 79.43342176 20.93603516 79.47875977 C17.34392443 79.52224608 13.75216658 79.54614472 10.15981293 79.55651093 C8.78984777 79.56389745 7.41990176 79.57832197 6.05008698 79.59992218 C4.13042564 79.62898676 2.21040863 79.63063611 0.29052734 79.63110352 C-0.80201355 79.63998596 -1.89455444 79.64886841 -3.02020264 79.65802002 C-6.54664623 79.05963694 -7.68577902 77.96748529 -9.85498047 75.17700195 C-10.95752772 71.86936019 -10.98193533 69.4165959 -10.984375 65.93310547 C-10.98752716 64.64489395 -10.99067932 63.35668243 -10.993927 62.0294342 C-10.99213692 60.62159186 -10.99008589 59.21374982 -10.98779297 57.8059082 C-10.98846665 56.3624622 -10.98943722 54.9190163 -10.99069214 53.47557068 C-10.99216654 50.45017415 -10.99002312 47.42480716 -10.98535156 44.39941406 C-10.97965953 40.52456335 -10.98293156 36.64978198 -10.98892403 32.77493382 C-10.99254093 29.79379252 -10.99138577 26.8126676 -10.98879623 23.8315258 C-10.98812983 22.40300424 -10.98894539 20.97448119 -10.99127579 19.54596138 C-10.9938202 17.54740554 -10.98925337 15.54884448 -10.984375 13.55029297 C-10.98357941 12.41350601 -10.98278381 11.27671906 -10.98196411 10.10548401 C-10.87374986 7.60985943 -10.58448148 5.55225888 -9.85498047 3.17700195 C-9.19498047 3.17700195 -8.53498047 3.17700195 -7.85498047 3.17700195 C-7.85498047 2.51700195 -7.85498047 1.85700195 -7.85498047 1.17700195 C-5.15449199 -0.17324229 -3.02358384 0.02743508 0 0 Z M10.14501953 19.17700195 C10.14501953 32.37700195 10.14501953 45.57700195 10.14501953 59.17700195 C20.37501953 59.17700195 30.60501953 59.17700195 41.14501953 59.17700195 C41.14501953 45.97700195 41.14501953 32.77700195 41.14501953 19.17700195 C30.91501953 19.17700195 20.68501953 19.17700195 10.14501953 19.17700195 Z " fill="#2B4153" transform="translate(461.85498046875,464.822998046875)"/>
<path d="M0 0 C6.33531015 -0.10141463 12.67041102 -0.17147114 19.00634766 -0.21972656 C21.16170067 -0.23984276 23.31699911 -0.26713925 25.47216797 -0.30175781 C28.57012395 -0.35027486 31.66735846 -0.37296873 34.765625 -0.390625 C35.72929993 -0.41127014 36.69297485 -0.43191528 37.68585205 -0.45318604 C44.36719507 -0.45542734 44.36719507 -0.45542734 47.60424805 1.87426758 C49.27052747 4.41201376 49.56715985 5.91325509 49.5625 8.9375 C49.58441406 9.77152344 49.60632813 10.60554687 49.62890625 11.46484375 C48.68836321 15.25622533 47.07294198 16.60693201 44 19 C40.82820224 19.71134017 37.73922974 19.65429218 34.5 19.59375 C33.13004883 19.59381042 33.13004883 19.59381042 31.73242188 19.59387207 C29.80591939 19.5885225 27.87941705 19.57096383 25.953125 19.54199219 C23.00973588 19.50013844 20.06863656 19.50092565 17.125 19.5078125 C15.24998415 19.4973192 13.37498006 19.48438035 11.5 19.46875 C10.62279297 19.46854858 9.74558594 19.46834717 8.84179688 19.46813965 C3.63131607 19.36756596 -0.13048928 18.86951072 -4 15 C-4.07226502 13.14712498 -4.0838122 11.29166122 -4.0625 9.4375 C-4.05347656 8.42558594 -4.04445313 7.41367187 -4.03515625 6.37109375 C-4.02355469 5.58863281 -4.01195312 4.80617188 -4 4 C-3.01 3.67 -2.02 3.34 -1 3 C-0.67 2.01 -0.34 1.02 0 0 Z " fill="#0ACDB1" transform="translate(466,669)"/>
<path d="M0 0 C14.85 0 29.7 0 45 0 C45.495 1.485 45.495 1.485 46 3 C46.99 3.33 47.98 3.66 49 4 C49.08114106 5.77007714 49.13925505 7.54122098 49.1875 9.3125 C49.23970703 10.79169922 49.23970703 10.79169922 49.29296875 12.30078125 C49 15 49 15 47.67578125 16.79296875 C44.84399178 18.83264928 42.26179436 19.13289061 38.88330078 19.19287109 C38.05879425 19.20893402 37.23428772 19.22499695 36.38479614 19.24154663 C32.62454201 19.28613429 28.86446057 19.32704266 25.10400391 19.35009766 C23.12146273 19.36667028 21.13898162 19.39397749 19.15673828 19.43212891 C16.29428202 19.48691048 13.43322241 19.50877105 10.5703125 19.5234375 C9.68683136 19.54610687 8.80335022 19.56877625 7.89309692 19.59213257 C3.42102998 19.57679147 1.5827509 19.44936517 -2.06762695 16.63452148 C-4.26266578 13.64189179 -4.55584423 12.33766344 -4.3125 8.6875 C-4.26738281 7.80449219 -4.22226563 6.92148437 -4.17578125 6.01171875 C-4.11777344 5.34785156 -4.05976563 4.68398438 -4 4 C-3.01 3.67 -2.02 3.34 -1 3 C-0.67 2.01 -0.34 1.02 0 0 Z " fill="#0ACEB1" transform="translate(209,669)"/>
<path d="M0 0 C0.89203125 0.10183594 1.7840625 0.20367187 2.703125 0.30859375 C3.37859375 0.39238281 4.0540625 0.47617188 4.75 0.5625 C4.75 1.2225 4.75 1.8825 4.75 2.5625 C6.07 3.2225 7.39 3.8825 8.75 4.5625 C8.75 5.2225 8.75 5.8825 8.75 6.5625 C9.41 6.5625 10.07 6.5625 10.75 6.5625 C12.3617046 11.3976138 12.35116168 16.75901495 10.75 21.5625 C10.09 21.5625 9.43 21.5625 8.75 21.5625 C8.09 22.8825 7.43 24.2025 6.75 25.5625 C6.09 25.5625 5.43 25.5625 4.75 25.5625 C4.75 26.2225 4.75 26.8825 4.75 27.5625 C-1.96641978 28.66697792 -6.60947574 28.76597521 -12.625 25.125 C-13.16125 24.609375 -13.6975 24.09375 -14.25 23.5625 C-14.25 22.5725 -14.25 21.5825 -14.25 20.5625 C-14.91 20.5625 -15.57 20.5625 -16.25 20.5625 C-16.25 16.2725 -16.25 11.9825 -16.25 7.5625 C-15.59 7.5625 -14.93 7.5625 -14.25 7.5625 C-14.1675 6.964375 -14.085 6.36625 -14 5.75 C-13.02052189 2.89318885 -11.81298332 2.10028999 -9.25 0.5625 C-6.00495498 -0.5308629 -3.38069565 -0.40034554 0 0 Z M-7.25 11.5625 C-7.63286803 15.29546326 -7.39915785 16.33876323 -5.25 19.5625 C-2.38381787 20.0034511 -0.88344953 19.97751866 1.5625 18.375 C3.16501866 15.92905047 3.1909511 14.42868213 2.75 11.5625 C-1.05093172 9.02854552 -3.83671681 8.14921681 -7.25 11.5625 Z " fill="#2A4053" transform="translate(295.25,8.4375)"/>
<path d="M0 0 C1.20462891 -0.01836914 1.20462891 -0.01836914 2.43359375 -0.03710938 C6.72553652 -0.04771549 10.30001864 -0.00132013 14.125 2.1875 C16.24834287 5.3725143 16.44446711 6.43206307 16.5 10.125 C16.52835938 10.97964844 16.55671875 11.83429687 16.5859375 12.71484375 C15.96617015 16.0395279 14.72966457 17.07371663 12.125 19.1875 C9.53125 19.70507812 9.53125 19.70507812 6.625 19.71875 C5.573125 19.72390625 4.52125 19.7290625 3.4375 19.734375 C2.344375 19.71890625 1.25125 19.7034375 0.125 19.6875 C-1.5146875 19.71070313 -1.5146875 19.71070313 -3.1875 19.734375 C-4.239375 19.72921875 -5.29125 19.7240625 -6.375 19.71875 C-7.3340625 19.71423828 -8.293125 19.70972656 -9.28125 19.70507812 C-12.59985973 19.04285555 -13.80221652 17.81190163 -15.875 15.1875 C-16.265625 12.609375 -16.265625 12.609375 -16.125 9.9375 C-16.08890625 9.04546875 -16.0528125 8.1534375 -16.015625 7.234375 C-15.96921875 6.55890625 -15.9228125 5.8834375 -15.875 5.1875 C-15.215 5.1875 -14.555 5.1875 -13.875 5.1875 C-13.606875 4.548125 -13.33875 3.90875 -13.0625 3.25 C-10.51267197 -1.17864868 -4.52823369 0.00359955 0 0 Z " fill="#2B4154" transform="translate(678.875,633.8125)"/>
<path d="M0 0 C0.79857422 -0.020625 1.59714844 -0.04125 2.41992188 -0.0625 C7.16093275 -0.09392344 10.18814189 0.22109005 14.0625 3.25 C16.0625 5.25 16.0625 5.25 16.2578125 7.6328125 C16.23460937 8.53773438 16.21140625 9.44265625 16.1875 10.375 C16.16945312 11.28507813 16.15140625 12.19515625 16.1328125 13.1328125 C16.10960937 13.83148437 16.08640625 14.53015625 16.0625 15.25 C15.0725 15.58 14.0825 15.91 13.0625 16.25 C12.7325 17.24 12.4025 18.23 12.0625 19.25 C8.14608289 19.36618764 4.23010899 19.43724654 0.3125 19.5 C-1.35425781 19.55027344 -1.35425781 19.55027344 -3.0546875 19.6015625 C-4.12460937 19.61445312 -5.19453125 19.62734375 -6.296875 19.640625 C-7.77365723 19.6720459 -7.77365723 19.6720459 -9.28027344 19.70410156 C-12.67850807 19.12336687 -13.83619154 17.92650986 -15.9375 15.25 C-16.36328125 12.7421875 -16.36328125 12.7421875 -16.25 10.125 C-16.22550781 9.25617187 -16.20101563 8.38734375 -16.17578125 7.4921875 C-15.9375 5.25 -15.9375 5.25 -14.9375 3.25 C-14.2775 3.25 -13.6175 3.25 -12.9375 3.25 C-12.9375 2.59 -12.9375 1.93 -12.9375 1.25 C-8.60032158 0.03566305 -4.47799948 0.02877429 0 0 Z " fill="#2B4154" transform="translate(40.9375,633.75)"/>
<path d="M0 0 C1.65 1.65 3.3 3.3 5 5 C5.33 4.34 5.66 3.68 6 3 C6.66 3 7.32 3 8 3 C8 2.01 8 1.02 8 0 C10.475 0.495 10.475 0.495 13 1 C13 1.66 13 2.32 13 3 C13.66 3 14.32 3 15 3 C13.125 7.75 13.125 7.75 12 10 C13.98 10 15.96 10 18 10 C18 12.31 18 14.62 18 17 C16.35 17.33 14.7 17.66 13 18 C13 18.99 13 19.98 13 21 C13.66 21 14.32 21 15 21 C15 21.99 15 22.98 15 24 C12.69 24.66 10.38 25.32 8 26 C7.34 24.35 6.68 22.7 6 21 C5.34 21 4.68 21 4 21 C3.896875 21.61875 3.79375 22.2375 3.6875 22.875 C3 25 3 25 0 27 C0 26.34 0 25.68 0 25 C-0.99 25 -1.98 25 -3 25 C-4 22 -4 22 -3.0625 19.8125 C-2.5365625 18.9153125 -2.5365625 18.9153125 -2 18 C-3.98 17.67 -5.96 17.34 -8 17 C-8 14.69 -8 12.38 -8 10 C-6.02 9.67 -4.04 9.34 -2 9 C-2.66 7.02 -3.32 5.04 -4 3 C-2.68 2.01 -1.36 1.02 0 0 Z " fill="#07CBAD" transform="translate(637,140)"/>
<path d="M0 0 C0.66 1.32 1.32 2.64 2 4 C2.99 4 3.98 4 5 4 C5.33 2.68 5.66 1.36 6 0 C8.31 0.33 10.62 0.66 13 1 C13 1.99 13 2.98 13 4 C12.34 4 11.68 4 11 4 C10.34 5.65 9.68 7.3 9 9 C9.99 9.33 10.98 9.66 12 10 C12 9.34 12 8.68 12 8 C13.32 8 14.64 8 16 8 C16 10.31 16 12.62 16 15 C13.69 15 11.38 15 9 15 C10.0209375 16.1446875 10.0209375 16.1446875 11.0625 17.3125 C11.701875 18.199375 12.34125 19.08625 13 20 C12.67 20.99 12.34 21.98 12 23 C11.34 23 10.68 23 10 23 C10 23.66 10 24.32 10 25 C8.68 25 7.36 25 6 25 C4.25 22.5 4.25 22.5 3 20 C2.67 20.66 2.34 21.32 2 22 C1.34 22 0.68 22 0 22 C0 22.99 0 23.98 0 25 C-1.32 25 -2.64 25 -4 25 C-4 24.34 -4 23.68 -4 23 C-4.99 23 -5.98 23 -7 23 C-6.43628586 19.73045798 -5.50037734 18.17424117 -3 16 C-5.31 15.67 -7.62 15.34 -10 15 C-10 12.69 -10 10.38 -10 8 C-7.23723823 8.52268466 -4.6739124 9.10869587 -2 10 C-2 9.34 -2 8.68 -2 8 C-2.99 7.67 -3.98 7.34 -5 7 C-5 6.34 -5 5.68 -5 5 C-5.66 5 -6.32 5 -7 5 C-7 3.68 -7 2.36 -7 1 C-4.53721199 -0.231394 -2.7204945 -0.07159196 0 0 Z " fill="#08CBAD" transform="translate(30,153)"/>
<path d="M0 0 C1.98 0 3.96 0 6 0 C6 0.99 6 1.98 6 3 C6.99 3 7.98 3 9 3 C9 2.01 9 1.02 9 0 C10.65 0 12.3 0 14 0 C14.93423645 3.01031744 15.04449911 3.86650268 14 7 C15.32 7 16.64 7 18 7 C18 9.31 18 11.62 18 14 C16.68 14.33 15.36 14.66 14 15 C14.33 16.65 14.66 18.3 15 20 C13.35 20.66 11.7 21.32 10 22 C8.68 20.68 7.36 19.36 6 18 C6 18.99 6 19.98 6 21 C4.1875 21.625 4.1875 21.625 2 22 C1.01 21.34 0.02 20.68 -1 20 C-0.49396008 17.83125748 -0.00016187 16.00032373 1 14 C-0.65 14 -2.3 14 -4 14 C-4 11.69 -4 9.38 -4 7 C-2.68 7 -1.36 7 0 7 C-0.2784375 5.824375 -0.2784375 5.824375 -0.5625 4.625 C-1 2 -1 2 0 0 Z M13 7 C12.67 7.66 12.34 8.32 12 9 C12.66 9 13.32 9 14 9 C13.67 8.34 13.34 7.68 13 7 Z " fill="#07CBAD" transform="translate(514,75)"/>
<path d="M0 0 C0.7734375 0.495 0.7734375 0.495 1.5625 1 C1.5625 1.66 1.5625 2.32 1.5625 3 C2.2225 3 2.8825 3 3.5625 3 C4.50602493 7.61506761 4.88517261 11.03198216 3.375 15.5625 C-0.5468166 18.96140772 -3.61353502 18.59747772 -8.66015625 18.50390625 C-11.4375 18 -11.4375 18 -13.2890625 16.83984375 C-14.9448055 14.18727588 -14.79940729 12.10125739 -14.75 9 C-14.74613281 7.948125 -14.74226562 6.89625 -14.73828125 5.8125 C-14.4375 3 -14.4375 3 -12.4375 0 C-8.17949462 -1.41933513 -4.20838462 -1.72651677 0 0 Z " fill="#293F51" transform="translate(14.4375,635)"/>
<path d="M0 0 C1.625 1.125 1.625 1.125 2.625 3.125 C2.77279962 5.1003988 2.84618966 7.08178924 2.875 9.0625 C2.90078125 10.12339844 2.9265625 11.18429687 2.953125 12.27734375 C2.625 15.125 2.625 15.125 1.48828125 16.98046875 C-1.19101467 18.62624171 -3.31661852 18.52275248 -6.4375 18.5 C-7.50097656 18.50773438 -8.56445312 18.51546875 -9.66015625 18.5234375 C-10.55605469 18.39195312 -11.45195313 18.26046875 -12.375 18.125 C-14.375 15.125 -14.375 15.125 -14.375 12.125 C-15.035 12.125 -15.695 12.125 -16.375 12.125 C-16.375 10.145 -16.375 8.165 -16.375 6.125 C-15.715 6.125 -15.055 6.125 -14.375 6.125 C-14.2925 5.34125 -14.21 4.5575 -14.125 3.75 C-13.375 1.125 -13.375 1.125 -11.75 -0.1875 C-7.71247959 -1.35625591 -3.9630378 -1.46006656 0 0 Z " fill="#2A3F51" transform="translate(717.375,634.875)"/>
<path d="M0 0 C2.97 0 5.94 0 9 0 C9 0.66 9 1.32 9 2 C9.99 2 10.98 2 12 2 C14.62432894 7.14368472 15.56309176 10.19423062 14 16 C12.10466125 18.58455285 11.11173483 18.96275506 8 20 C4.31617231 20.13156527 1.50946415 20.16982138 -2 19 C-4.88110026 14.99847186 -6.0407122 13.22136585 -5.875 8.25 C-5 5 -5 5 -3 2 C-2.01 2 -1.02 2 0 2 C0 1.34 0 0.68 0 0 Z M2 7 C2 8.65 2 10.3 2 12 C2.99 12.33 3.98 12.66 5 13 C5.66 12.67 6.32 12.34 7 12 C7 10.35 7 8.7 7 7 C5.35 7 3.7 7 2 7 Z " fill="#273D50" transform="translate(371,155)"/>
<path d="M0 0 C2.46126229 4.03647016 2.2966279 7.96655344 1.5625 12.5625 C-0.08411935 15.37547472 -1.19048896 16.21625268 -4.30859375 17.08203125 C-8.47226216 17.79827667 -11.75227323 17.87892826 -15.4375 15.5625 C-17.63499944 12.83456966 -18.37757896 11.04186834 -18.8125 7.5625 C-18.37348244 4.0503595 -17.70550347 2.28410416 -15.4375 -0.4375 C-10.11476963 -3.09886519 -5.16268221 -3.04465874 0 0 Z M-11.4375 6.5625 C-11.4375 7.2225 -11.4375 7.8825 -11.4375 8.5625 C-8.4675 9.0575 -8.4675 9.0575 -5.4375 9.5625 C-5.7675 8.2425 -6.0975 6.9225 -6.4375 5.5625 C-9.3629644 5.3388932 -9.3629644 5.3388932 -11.4375 6.5625 Z " fill="#273D50" transform="translate(699.4375,269.4375)"/>
<path d="M0 0 C3.28764019 0.07686929 4.30144517 0.40608146 7.25 2.1875 C10.16293024 6.82998257 9.67081874 11.03527777 9.25 16.375 C8.26 16.705 7.27 17.035 6.25 17.375 C6.25 18.035 6.25 18.695 6.25 19.375 C2.74419924 21.12790038 -0.93379058 21.05270616 -4.75 20.375 C-7.92457096 17.7835135 -9.29580349 16.30064305 -10.22265625 12.37109375 C-10.52286653 8.31440613 -9.90121947 6.55723885 -7.3125 3.4375 C-6.466875 2.756875 -5.62125 2.07625 -4.75 1.375 C-3.75 0.375 -3.75 0.375 0 0 Z M-1.75 7.375 C-2.08 8.695 -2.41 10.015 -2.75 11.375 C-0.77 12.365 -0.77 12.365 1.25 13.375 C2.26111093 10.32586772 2.26111093 10.32586772 1.25 7.375 C0.26 7.375 -0.73 7.375 -1.75 7.375 Z " fill="#293E51" transform="translate(27.75,5.625)"/>
<path d="M0 0 C0 0.66 0 1.32 0 2 C0.639375 2.28875 1.27875 2.5775 1.9375 2.875 C4 4 4 4 5 6 C5.375 9.3125 5.375 9.3125 5 13 C2.54905772 15.98087575 0.20472002 17.86351998 -3 20 C-5.6875 20.125 -5.6875 20.125 -8 20 C-8 19.34 -8 18.68 -8 18 C-8.78375 17.896875 -9.5675 17.79375 -10.375 17.6875 C-13 17 -13 17 -15 14 C-15.70129078 9.6454735 -15.42472101 5.99101568 -13.6875 1.9375 C-9.44949976 -1.1178025 -5.05554416 -0.3922405 0 0 Z M-7 7 C-7.33 8.32 -7.66 9.64 -8 11 C-6.68 11.33 -5.36 11.66 -4 12 C-3.34 10.68 -2.68 9.36 -2 8 C-3.65 7.67 -5.3 7.34 -7 7 Z " fill="#283D50" transform="translate(688,26)"/>
<path d="M0 0 C0.80566406 0.00257812 1.61132812 0.00515625 2.44140625 0.0078125 C3.64603516 0.00394531 3.64603516 0.00394531 4.875 0 C7.00390625 0.1328125 7.00390625 0.1328125 9.00390625 1.1328125 C9.00390625 2.1228125 9.00390625 3.1128125 9.00390625 4.1328125 C9.99390625 4.7928125 10.98390625 5.4528125 12.00390625 6.1328125 C11.67390625 7.7828125 11.34390625 9.4328125 11.00390625 11.1328125 C10.34390625 11.1328125 9.68390625 11.1328125 9.00390625 11.1328125 C9.00390625 12.4528125 9.00390625 13.7728125 9.00390625 15.1328125 C5.04390625 15.1328125 1.08390625 15.1328125 -2.99609375 15.1328125 C-2.99609375 14.1428125 -2.99609375 13.1528125 -2.99609375 12.1328125 C-3.65609375 11.8028125 -4.31609375 11.4728125 -4.99609375 11.1328125 C-4.99609375 9.1528125 -4.99609375 7.1728125 -4.99609375 5.1328125 C-4.33609375 4.8028125 -3.67609375 4.4728125 -2.99609375 4.1328125 C-2.99609375 3.1428125 -2.99609375 2.1528125 -2.99609375 1.1328125 C-1.99609375 0.1328125 -1.99609375 0.1328125 0 0 Z " fill="#07C7AB" transform="translate(171.99609375,59.8671875)"/>
</svg>
