<?xml version="1.0" encoding="UTF-8"?>
<svg version="1.1" xmlns="http://www.w3.org/2000/svg" width="720" height="720">
<path d="M0 0 C2.25 1.6875 2.25 1.6875 4.25 4.6875 C4.39245897 7.45405324 4.43769445 10.11403306 4.375 12.875 C4.36597656 13.62458984 4.35695313 14.37417969 4.34765625 15.14648438 C4.32412578 16.99362654 4.28825561 18.84060412 4.25 20.6875 C5.24580078 20.65269531 5.24580078 20.65269531 6.26171875 20.6171875 C15.03207381 20.43793937 15.03207381 20.43793937 19.25 22.6875 C19.25 23.6775 19.25 24.6675 19.25 25.6875 C19.91 25.6875 20.57 25.6875 21.25 25.6875 C21.25 28.9875 21.25 32.2875 21.25 35.6875 C20.59 35.6875 19.93 35.6875 19.25 35.6875 C19.25 36.6775 19.25 37.6675 19.25 38.6875 C17.8793189 39.19922094 16.50315925 39.69627492 15.125 40.1875 C14.35929687 40.4659375 13.59359375 40.744375 12.8046875 41.03125 C10.25 41.6875 10.25 41.6875 4.25 41.6875 C4.25 46.3075 4.25 50.9275 4.25 55.6875 C6.30863281 55.66429687 8.36726563 55.64109375 10.48828125 55.6171875 C12.48396319 55.60328031 14.47964633 55.58944417 16.4753418 55.57763672 C17.86144048 55.5675843 19.24751799 55.5539403 20.63354492 55.53662109 C22.6266975 55.51234048 24.62000533 55.50207969 26.61328125 55.4921875 C28.41212769 55.47647705 28.41212769 55.47647705 30.24731445 55.46044922 C33.25 55.6875 33.25 55.6875 36.25 57.6875 C36.25 58.3475 36.25 59.0075 36.25 59.6875 C36.91 59.6875 37.57 59.6875 38.25 59.6875 C38.25 63.3175 38.25 66.9475 38.25 70.6875 C37.59 70.6875 36.93 70.6875 36.25 70.6875 C35.755 72.1725 35.755 72.1725 35.25 73.6875 C31.89264863 74.80661712 29.36794614 74.80115586 25.83203125 74.78515625 C23.95161133 74.78032227 23.95161133 74.78032227 22.03320312 74.77539062 C20.72287109 74.76701172 19.41253906 74.75863281 18.0625 74.75 C16.72721519 74.74498317 15.39192859 74.74042059 14.05664062 74.73632812 C10.7877412 74.72452704 7.51886498 74.70659136 4.25 74.6875 C4.25 79.3075 4.25 83.9275 4.25 88.6875 C6.5703125 88.5946875 6.5703125 88.5946875 8.9375 88.5 C13.22636051 88.5 15.86795944 88.83390328 19.25 91.6875 C21.37334287 94.8725143 21.56946711 95.93206307 21.625 99.625 C21.65335937 100.47964844 21.68171875 101.33429688 21.7109375 102.21484375 C21.08069461 105.595723 20.04498984 106.70733619 17.25 108.6875 C12.85786271 109.21795136 8.69112074 108.86514483 4.25 108.6875 C4.25 113.9675 4.25 119.2475 4.25 124.6875 C6.36921875 124.64109375 8.4884375 124.5946875 10.671875 124.546875 C12.7304444 124.51565632 14.78898717 124.49138203 16.84765625 124.46777344 C18.27551121 124.44769018 19.70328425 124.42041748 21.13085938 124.38574219 C23.18640368 124.33707331 25.24085855 124.31450033 27.296875 124.296875 C28.53276367 124.27592773 29.76865234 124.25498047 31.04199219 124.23339844 C34.25 124.6875 34.25 124.6875 36.65356445 126.55957031 C38.58758463 129.13747516 38.7605236 130.49393439 38.6875 133.6875 C38.68621094 134.533125 38.68492187 135.37875 38.68359375 136.25 C38.16058913 139.1901341 37.33877979 140.56556497 35.25 142.6875 C31.84167968 143.88703846 28.53884183 143.80207001 24.953125 143.78515625 C23.74785156 143.78193359 22.54257813 143.77871094 21.30078125 143.77539062 C20.04652344 143.76701172 18.79226562 143.75863281 17.5 143.75 C16.23027344 143.74548828 14.96054688 143.74097656 13.65234375 143.73632812 C10.51820905 143.72454566 7.38409858 143.70661036 4.25 143.6875 C4.25 148.3075 4.25 152.9275 4.25 157.6875 C5.9825 157.625625 7.715 157.56375 9.5 157.5 C12.8628109 157.37989961 14.68693975 157.35656227 17.609375 159.07421875 C18.15078125 159.60660156 18.6921875 160.13898438 19.25 160.6875 C19.25 161.3475 19.25 162.0075 19.25 162.6875 C19.91 162.6875 20.57 162.6875 21.25 162.6875 C21.68064363 167.61597709 21.96241283 171.41533423 19.5 175.8125 C14.42834818 178.73845297 10.0433099 178.00581373 4.25 177.6875 C4.25 182.3075 4.25 186.9275 4.25 191.6875 C13.49 191.6875 22.73 191.6875 32.25 191.6875 C32.25 192.3475 32.25 193.0075 32.25 193.6875 C32.86875 193.81125 33.4875 193.935 34.125 194.0625 C36.25 194.6875 36.25 194.6875 38.25 196.6875 C38.4453125 199.2890625 38.4453125 199.2890625 38.375 202.3125 C38.35695313 203.31539062 38.33890625 204.31828125 38.3203125 205.3515625 C38.29710937 206.12242187 38.27390625 206.89328125 38.25 207.6875 C37.59 207.6875 36.93 207.6875 36.25 207.6875 C36.25 208.3475 36.25 209.0075 36.25 209.6875 C35.26 209.6875 34.27 209.6875 33.25 209.6875 C33.25 210.3475 33.25 211.0075 33.25 211.6875 C23.68 211.6875 14.11 211.6875 4.25 211.6875 C4.25 216.6375 4.25 221.5875 4.25 226.6875 C8.54 226.6875 12.83 226.6875 17.25 226.6875 C18.24 229.1625 18.24 229.1625 19.25 231.6875 C19.91 231.6875 20.57 231.6875 21.25 231.6875 C21.71666667 239.77638889 21.71666667 239.77638889 19.9375 243.25 C18.25 244.6875 18.25 244.6875 15.25 244.6875 C15.25 245.3475 15.25 246.0075 15.25 246.6875 C11.62 246.6875 7.99 246.6875 4.25 246.6875 C4.25 251.3075 4.25 255.9275 4.25 260.6875 C6.23644531 260.67589844 8.22289062 260.66429687 10.26953125 260.65234375 C12.19571813 260.64539001 14.12190532 260.63847185 16.0480957 260.63256836 C18.04314768 260.62507271 20.03817786 260.61236655 22.03320312 260.59960938 C23.28681641 260.59638672 24.54042969 260.59316406 25.83203125 260.58984375 C26.98936768 260.58460693 28.1467041 260.57937012 29.33911133 260.57397461 C32.39775796 260.6932626 34.42237757 261.09138035 36.92578125 262.89453125 C38.79688507 265.42797271 38.54719646 267.26693376 38.4375 270.375 C38.41042969 271.36886719 38.38335937 272.36273438 38.35546875 273.38671875 C38.32066406 274.14597656 38.28585938 274.90523438 38.25 275.6875 C37.59 275.6875 36.93 275.6875 36.25 275.6875 C35.92 276.6775 35.59 277.6675 35.25 278.6875 C34.59 278.6875 33.93 278.6875 33.25 278.6875 C33.25 279.3475 33.25 280.0075 33.25 280.6875 C23.68 280.6875 14.11 280.6875 4.25 280.6875 C4.25 285.3075 4.25 289.9275 4.25 294.6875 C6.3228125 294.625625 6.3228125 294.625625 8.4375 294.5625 C13.17433183 294.57737231 16.38972033 295.08381063 20.0625 298.25 C21.87592027 301.97228371 21.48472483 305.61893633 21.25 309.6875 C20.59 309.6875 19.93 309.6875 19.25 309.6875 C19.25 310.6775 19.25 311.6675 19.25 312.6875 C13.9847804 315.92763514 10.25352801 315.96038764 4.25 315.6875 C4.25 320.3075 4.25 324.9275 4.25 329.6875 C6.30863281 329.66429687 8.36726563 329.64109375 10.48828125 329.6171875 C12.48396319 329.60328031 14.47964633 329.58944417 16.4753418 329.57763672 C17.86144048 329.5675843 19.24751799 329.5539403 20.63354492 329.53662109 C22.6266975 329.51234048 24.62000533 329.50207969 26.61328125 329.4921875 C27.81251221 329.48171387 29.01174316 329.47124023 30.24731445 329.46044922 C33.25 329.6875 33.25 329.6875 36.25 331.6875 C36.25 332.3475 36.25 333.0075 36.25 333.6875 C36.91 333.6875 37.57 333.6875 38.25 333.6875 C38.25 337.3175 38.25 340.9475 38.25 344.6875 C37.59 344.6875 36.93 344.6875 36.25 344.6875 C35.92 345.6775 35.59 346.6675 35.25 347.6875 C31.66331687 350.07862209 30.08603431 349.92131027 25.83203125 349.8828125 C24.57841797 349.87636719 23.32480469 349.86992187 22.03320312 349.86328125 C20.72287109 349.84652344 19.41253906 349.82976562 18.0625 349.8125 C16.72722013 349.80246639 15.39193311 349.7933412 14.05664062 349.78515625 C10.78768355 349.76155367 7.51881929 349.72568219 4.25 349.6875 C4.25 354.3075 4.25 358.9275 4.25 363.6875 C6.8796875 363.6565625 6.8796875 363.6565625 9.5625 363.625 C12.86185544 363.58618405 15.10069107 363.63773036 18.25 364.6875 C21.01848508 367.60580898 21.68142078 369.69953438 21.6875 373.6875 C21.70683594 374.533125 21.72617188 375.37875 21.74609375 376.25 C21.25 378.6875 21.25 378.6875 17.25 382.6875 C12.96 382.6875 8.67 382.6875 4.25 382.6875 C4.25 392.2575 4.25 401.8275 4.25 411.6875 C13.16 411.6875 22.07 411.6875 31.25 411.6875 C31.25 408.7175 31.25 405.7475 31.25 402.6875 C31.75 399.625 31.75 399.625 32.25 397.6875 C32.91 397.6875 33.57 397.6875 34.25 397.6875 C34.58 396.6975 34.91 395.7075 35.25 394.6875 C37.18681161 394.60642417 39.1245934 394.54827525 41.0625 394.5 C42.14144531 394.46519531 43.22039062 394.43039062 44.33203125 394.39453125 C47.25 394.6875 47.25 394.6875 49.13671875 395.94921875 C50.25 397.6875 50.25 397.6875 50.25 401.6875 C50.91 401.6875 51.57 401.6875 52.25 401.6875 C52.25 404.9875 52.25 408.2875 52.25 411.6875 C56.87 411.6875 61.49 411.6875 66.25 411.6875 C66.20359375 409.56828125 66.1571875 407.4490625 66.109375 405.265625 C66.07815632 403.2070556 66.05388203 401.14851283 66.03027344 399.08984375 C66.01019018 397.66198879 65.98291748 396.23421575 65.94824219 394.80664062 C65.89957331 392.75109632 65.87700033 390.69664145 65.859375 388.640625 C65.83842773 387.40473633 65.81748047 386.16884766 65.79589844 384.89550781 C66.25 381.6875 66.25 381.6875 68.08691406 379.25292969 C70.25 377.6875 70.25 377.6875 73.25 377.6875 C73.25 377.0275 73.25 376.3675 73.25 375.6875 C74.9 375.6875 76.55 375.6875 78.25 375.6875 C78.25 376.3475 78.25 377.0075 78.25 377.6875 C79.013125 377.77 79.77625 377.8525 80.5625 377.9375 C83.92296241 378.87530346 84.54107412 379.68305319 86.25 382.6875 C86.59057617 385.80371094 86.59057617 385.80371094 86.54296875 389.421875 C86.5284668 391.36513672 86.5284668 391.36513672 86.51367188 393.34765625 C86.48860783 394.71094354 86.46321302 396.07422479 86.4375 397.4375 C86.42244518 398.81639184 86.40875817 400.19529935 86.39648438 401.57421875 C86.36112149 404.94548064 86.30731481 408.31653986 86.25 411.6875 C90.87 411.6875 95.49 411.6875 100.25 411.6875 C100.20875 409.79 100.1675 407.8925 100.125 405.9375 C100.03835847 401.95198951 99.99453406 399.06281267 102.25 395.6875 C104.84516521 394.38991739 106.79183027 394.55480898 109.6875 394.5625 C110.65558594 394.55992187 111.62367188 394.55734375 112.62109375 394.5546875 C115.25 394.6875 115.25 394.6875 118.25 395.6875 C119.9713061 400.85141829 119.30353552 406.28041236 119.25 411.6875 C124.53 411.6875 129.81 411.6875 135.25 411.6875 C135.21519531 409.48449219 135.18039062 407.28148437 135.14453125 405.01171875 C135.12113217 402.87704769 135.1029177 400.74239093 135.08520508 398.60766602 C135.07012232 397.12452801 135.04965311 395.64143456 135.02368164 394.15844727 C134.98727384 392.02609255 134.97026927 389.89432765 134.95703125 387.76171875 C134.93346558 385.83718872 134.93346558 385.83718872 134.90942383 383.8737793 C135.25 380.6875 135.25 380.6875 136.65112305 378.82348633 C141.21444721 375.58128946 141.21444721 375.58128946 144.6875 375.9375 C151.7903701 378.01638881 151.7903701 378.01638881 153.38232422 380.34082031 C154.53555574 383.45980212 154.47446217 386.0988123 154.4453125 389.421875 C154.43564453 391.36513672 154.43564453 391.36513672 154.42578125 393.34765625 C154.40907193 394.71094019 154.39214206 396.07422144 154.375 397.4375 C154.3649634 398.81639985 154.35583873 400.19530665 154.34765625 401.57421875 C154.32408165 404.94538723 154.28821072 408.31646564 154.25 411.6875 C159.2 411.6875 164.15 411.6875 169.25 411.6875 C169.1675 409.625 169.085 407.5625 169 405.4375 C168.75813296 399.3908239 168.75813296 399.3908239 170.921875 396.296875 C173.74614885 394.34452462 175.33913733 394.15001799 178.75 394.1875 C180.15765625 394.17203125 180.15765625 394.17203125 181.59375 394.15625 C185.06733881 394.85096776 186.22408776 395.79063483 188.25 398.6875 C188.78045136 403.07963729 188.42764483 407.24637926 188.25 411.6875 C192.87 411.6875 197.49 411.6875 202.25 411.6875 C202.21519531 409.80804687 202.18039062 407.92859375 202.14453125 405.9921875 C202.1163886 403.51563395 202.08908895 401.03907072 202.0625 398.5625 C202.02479492 396.70625 202.02479492 396.70625 201.98632812 394.8125 C201.97666016 393.61367188 201.96699219 392.41484375 201.95703125 391.1796875 C201.9413208 390.07995605 201.92561035 388.98022461 201.90942383 387.84716797 C202.30471868 384.17985188 203.33150733 381.82305849 205.25 378.6875 C208.27957691 376.6458286 210.14081709 375.63339352 213.8125 375.8125 C217.57338596 377.16256162 220.49626944 378.21660408 222.38232422 381.8972168 C223.37916488 385.10287011 223.47711117 387.72727128 223.4453125 391.08203125 C223.43886719 392.28408203 223.43242187 393.48613281 223.42578125 394.72460938 C223.40902344 395.97048828 223.39226562 397.21636719 223.375 398.5 C223.36597656 399.76521484 223.35695313 401.03042969 223.34765625 402.33398438 C223.32412478 405.45190405 223.28825489 408.56972622 223.25 411.6875 C227.87 411.6875 232.49 411.6875 237.25 411.6875 C237.25 407.3975 237.25 403.1075 237.25 398.6875 C237.91 398.6875 238.57 398.6875 239.25 398.6875 C239.58 397.6975 239.91 396.7075 240.25 395.6875 C244.22154945 393.70172527 248.92990356 394.16423869 253.25 394.6875 C255.9375 396.4375 255.9375 396.4375 257.25 399.6875 C257.55117951 403.7507815 257.42969289 407.59948686 257.25 411.6875 C261.87 411.6875 266.49 411.6875 271.25 411.6875 C271.25 402.1175 271.25 392.5475 271.25 382.6875 C271.91 382.6875 272.57 382.6875 273.25 382.6875 C273.62125 381.511875 273.62125 381.511875 274 380.3125 C275.25 377.6875 275.25 377.6875 277.0625 376.3125 C281.43817682 375.06230662 285.22101441 376.96079189 289.25 378.6875 C289.25 379.6775 289.25 380.6675 289.25 381.6875 C289.91 381.6875 290.57 381.6875 291.25 381.6875 C291.25 391.5875 291.25 401.4875 291.25 411.6875 C296.2 411.6875 301.15 411.6875 306.25 411.6875 C306.1675 409.625 306.085 407.5625 306 405.4375 C305.7587482 399.40620491 305.7587482 399.40620491 307.88671875 396.29296875 C310.88319384 394.25734683 312.71325211 394.18309948 316.3125 394.25 C317.35535156 394.25128906 318.39820313 394.25257813 319.47265625 394.25390625 C322.25 394.6875 322.25 394.6875 324.05859375 396.02734375 C327.35682202 400.6232356 326.31325118 406.31114966 326.25 411.6875 C330.87 411.6875 335.49 411.6875 340.25 411.6875 C340.25 401.7875 340.25 391.8875 340.25 381.6875 C340.91 381.6875 341.57 381.6875 342.25 381.6875 C342.4975 381.06875 342.745 380.45 343 379.8125 C344.50822744 377.24851336 345.42636058 376.57492953 348.25 375.6875 C352.20123991 375.99144153 355.04157777 377.39576984 358.25 379.6875 C358.25 380.3475 358.25 381.0075 358.25 381.6875 C358.91 381.6875 359.57 381.6875 360.25 381.6875 C360.25 391.5875 360.25 401.4875 360.25 411.6875 C364.87 411.6875 369.49 411.6875 374.25 411.6875 C374.188125 409.975625 374.12625 408.26375 374.0625 406.5 C374.05102196 402.04078276 374.29872472 399.22903034 377.25 395.6875 C379.05271782 393.88478218 381.69408749 394.47247716 384.125 394.4375 C385.19492187 394.41171875 386.26484375 394.3859375 387.3671875 394.359375 C390.25 394.6875 390.25 394.6875 392.12109375 395.75390625 C394.72098754 400.20701152 393.38468989 406.79376724 393.25 411.6875 C398.53 411.6875 403.81 411.6875 409.25 411.6875 C409.21519531 409.56828125 409.18039062 407.4490625 409.14453125 405.265625 C409.12111712 403.20704495 409.10291124 401.14847988 409.08520508 399.08984375 C409.07014319 397.66204154 409.04968938 396.2342854 409.02368164 394.80664062 C408.98718158 392.75118627 408.97024834 390.69634495 408.95703125 388.640625 C408.9413208 387.40473633 408.92561035 386.16884766 408.90942383 384.89550781 C409.27532709 381.44893513 409.86661356 380.13748587 412.25 377.6875 C415.27517089 375.67071941 417.64733924 375.24815113 421.25 375.6875 C425.42957907 377.57826196 427.24996342 379.59938388 429.25 383.6875 C429.59057617 386.82543945 429.59057617 386.82543945 429.54296875 390.30078125 C429.53330078 391.54794922 429.52363281 392.79511719 429.51367188 394.08007812 C429.48853516 395.37365234 429.46339844 396.66722656 429.4375 398 C429.42396484 399.31291016 429.41042969 400.62582031 429.39648438 401.97851562 C429.36117706 405.2150195 429.30737168 408.45131206 429.25 411.6875 C433.87 411.6875 438.49 411.6875 443.25 411.6875 C443.2190625 408.8103125 443.2190625 408.8103125 443.1875 405.875 C443.15039392 402.42413415 443.15493508 399.97269475 444.25 396.6875 C447.55386358 394.48492428 448.81817877 394.36500097 452.6875 394.3125 C453.63496094 394.28414062 454.58242188 394.25578125 455.55859375 394.2265625 C459.08917321 394.83121907 460.0732303 395.86779647 462.25 398.6875 C462.640625 401.921875 462.640625 401.921875 462.5 405.4375 C462.46390625 406.60796875 462.4278125 407.7784375 462.390625 408.984375 C462.32101562 410.32242188 462.32101562 410.32242188 462.25 411.6875 C463.01666992 411.66655273 463.78333984 411.64560547 464.57324219 411.62402344 C468.0486946 411.54084842 471.52393763 411.48883425 475 411.4375 C476.2065625 411.40398437 477.413125 411.37046875 478.65625 411.3359375 C479.81640625 411.32304688 480.9765625 411.31015625 482.171875 411.296875 C483.24018555 411.27592773 484.30849609 411.25498047 485.40917969 411.23339844 C488.95127752 411.79959833 490.07640964 412.89034903 492.25 415.6875 C493.65608814 420.30750389 493.04221238 423.25968119 491.25 427.6875 C490.59 427.6875 489.93 427.6875 489.25 427.6875 C489.25 428.3475 489.25 429.0075 489.25 429.6875 C485.56983068 430.91422311 482.18476206 430.82369804 478.35328388 430.81054783 C477.12739741 430.8122786 477.12739741 430.8122786 475.87674555 430.81404433 C473.11469445 430.81670927 470.35270065 430.81218981 467.59065247 430.80775452 C465.59990938 430.80819024 463.60916636 430.80906518 461.61842364 430.81034368 C456.12963584 430.81258836 450.64086741 430.80856772 445.15208209 430.80356562 C439.24001414 430.79926093 433.32794736 430.80070756 427.4158783 430.8014679 C416.49816331 430.80202738 405.58045542 430.79813145 394.66274222 430.79212701 C384.57970826 430.78662872 374.49667639 430.78339728 364.41364098 430.78237724 C363.41162158 430.78227413 363.41162158 430.78227413 362.38935937 430.78216894 C358.9969846 430.78183062 355.60460983 430.78152923 352.21223506 430.78124207 C328.17184313 430.77914056 304.13145451 430.77240016 280.09106445 430.76293945 C256.73331724 430.75375798 233.37557092 430.74667292 210.01782227 430.74243164 C209.29808189 430.74230011 208.57834152 430.74216859 207.83679084 430.74203308 C200.60899094 430.74071458 193.38119104 430.73943876 186.15339113 430.73819422 C171.42897681 430.73565787 156.70456255 430.73283662 141.98014832 430.72984314 C140.96459763 430.7296372 140.96459763 430.7296372 139.92853077 430.72942711 C94.70235244 430.72022341 49.47617607 430.70430112 4.25 430.6875 C4.25 439.5975 4.25 448.5075 4.25 457.6875 C6.83956197 457.68657821 9.42912394 457.68565641 12.09715748 457.68470669 C57.39356223 457.66869707 102.68996714 457.65395843 147.9863739 457.64515686 C148.69505771 457.6450188 149.40374153 457.64488075 150.13390061 457.64473851 C165.53409569 457.64174586 180.9342908 457.63897564 196.33448597 457.63643467 C203.88632073 457.63518729 211.43815548 457.63389074 218.98999023 457.63256836 C219.74150383 457.6324376 220.49301743 457.63230684 221.26730417 457.63217212 C245.64274621 457.62790787 270.01818594 457.6203944 294.39362659 457.61120278 C319.43458875 457.60177731 344.47554962 457.59561621 369.51651353 457.59358501 C373.05028196 457.59329684 376.5840504 457.5929712 380.11781883 457.59262276 C380.81334126 457.59255533 381.50886368 457.59248791 382.22546254 457.59241844 C393.43865947 457.59123497 404.65185246 457.5865922 415.86504778 457.58066797 C427.12766614 457.57479101 438.39028064 457.57261062 449.65290085 457.57399862 C455.75945558 457.57464181 461.86599867 457.57362666 467.97255135 457.56829453 C473.55544042 457.56345499 479.13830995 457.56316505 484.72119989 457.56660111 C486.74815816 457.56702625 488.77511761 457.56573518 490.80207352 457.56261682 C493.54317975 457.55864269 496.28421412 457.56074306 499.0253191 457.56445217 C499.82442382 457.56182516 500.62352853 457.55919814 501.44684854 457.55649152 C504.64881241 457.56637918 507.1893906 457.66729687 510.25 458.6875 C510.25 459.3475 510.25 460.0075 510.25 460.6875 C511.24 461.0175 512.23 461.3475 513.25 461.6875 C514.64268276 465.86554828 514.91403661 469.79754966 513.4375 474 C512.25 475.6875 512.25 475.6875 509.25 477.6875 C507.34155959 477.93826034 507.34155959 477.93826034 505.13738209 477.939349 C504.29454947 477.94461226 503.45171684 477.94987552 502.58334383 477.95529827 C501.65543053 477.95090179 500.72751722 477.94650531 499.77148533 477.94197559 C498.28907526 477.94678531 498.28907526 477.94678531 496.77671751 477.95169219 C493.43283891 477.96005787 490.08913637 477.95404505 486.74525452 477.94819641 C484.3366315 477.9512141 481.92800944 477.95510165 479.51938909 477.95978898 C474.26590094 477.96796334 469.01246532 477.96985583 463.75897598 477.96628571 C455.94697549 477.96099082 448.13501289 477.96706171 440.32301651 477.97536864 C425.56101438 477.99063354 410.79902936 477.99231116 396.03702099 477.98984561 C384.64028867 477.9880151 373.24356198 477.98976746 361.84683037 477.99407005 C360.21122471 477.99467245 358.57561905 477.99527364 356.94001339 477.99587366 C354.47551082 477.99678088 352.01100826 477.99768954 349.54650569 477.99860601 C326.62381035 478.00703931 303.70111713 478.01136861 280.77842045 478.00719929 C279.91372898 478.00704291 279.04903751 478.00688654 278.15814327 478.00672542 C273.77524281 478.0059196 269.39234236 478.00507383 265.00944192 478.00421212 C263.70368449 478.00395549 263.70368449 478.00395549 262.37154811 478.00369367 C260.61117458 478.00334702 258.85080105 478.00299849 257.09042752 478.00264808 C229.69316617 477.99728973 202.29593699 478.005223 174.89868164 478.02368164 C144.13897983 478.04438127 113.37929796 478.05512827 82.61958879 478.05110615 C79.34205433 478.05071079 76.06451987 478.05034925 72.7869854 478.05000877 C71.97993471 478.04991804 71.17288402 478.04982731 70.34137725 478.04973383 C58.1394576 478.04856614 45.93755802 478.05522914 33.73564339 478.06582069 C19.86451697 478.07784866 5.99343489 478.07945948 -7.87769216 478.06703053 C-15.64648656 478.06038165 -23.41517508 478.06207944 -31.18396111 478.07561904 C-36.97406148 478.08478793 -42.76407471 478.07839564 -48.55417103 478.06577124 C-50.90474254 478.06310058 -53.25532625 478.06556413 -55.60588586 478.07350711 C-58.78600238 478.08351262 -61.96555129 478.07527764 -65.14564419 478.06223011 C-66.07121633 478.06953946 -66.99678847 478.0768488 -67.95040825 478.08437964 C-74.09625981 478.03163845 -74.09625981 478.03163845 -77.28777224 476.35157937 C-80.34335721 472.87418956 -79.98184095 469.09247806 -79.75 464.6875 C-78.75 462.25 -78.75 462.25 -77.75 460.6875 C-77.09 460.6875 -76.43 460.6875 -75.75 460.6875 C-75.75 460.0275 -75.75 459.3675 -75.75 458.6875 C-72.62167111 457.6447237 -70.45810913 457.56673155 -67.17700195 457.57397461 C-66.03604568 457.57405014 -64.89508942 457.57412567 -63.71955872 457.57420349 C-62.48823715 457.57936478 -61.25691559 457.58452606 -59.98828125 457.58984375 C-58.09688667 457.59196617 -58.09688667 457.59196617 -56.1672821 457.59413147 C-52.81848291 457.59878425 -49.46975189 457.60776658 -46.12097168 457.61883545 C-42.70239867 457.62907313 -39.28381841 457.63368895 -35.86523438 457.63867188 C-29.16011784 457.64885893 -22.45512074 457.66843331 -15.75 457.6875 C-15.75 448.7775 -15.75 439.8675 -15.75 430.6875 C-19.59591797 430.70490234 -19.59591797 430.70490234 -23.51953125 430.72265625 C-26.00170773 430.73045415 -28.48388284 430.73652675 -30.96606445 430.74243164 C-32.6916566 430.74746158 -34.41724448 430.75428626 -36.14282227 430.76293945 C-38.6225693 430.77506361 -41.10226 430.78074169 -43.58203125 430.78515625 C-44.73998955 430.79289818 -44.73998955 430.79289818 -45.92134094 430.80079651 C-53.14081188 430.80155331 -53.14081188 430.80155331 -56.375 428.5625 C-58.51663355 425.64209061 -58.63040688 423.2752937 -58.75 419.6875 C-58.02926142 417.06380417 -57.06183294 415.11682026 -55.75 412.6875 C-43.82057792 406.72278896 -29.08749935 411.6875 -15.75 411.6875 C-15.75 277.3775 -15.75 143.0675 -15.75 4.6875 C-15.09 4.6875 -14.43 4.6875 -13.75 4.6875 C-13.6675 4.06875 -13.585 3.45 -13.5 2.8125 C-12.75 0.6875 -12.75 0.6875 -11.0625 -0.5625 C-6.94677963 -1.89732823 -3.92122935 -1.87149583 0 0 Z " fill="#2C4255" transform="translate(142.75,156.3125)"/>
<path d="M0 0 C2.2890625 1.43359375 2.2890625 1.43359375 4 4 C4.51779384 7.1585811 4.42173127 10.24611156 4.3125 13.4375 C4.29630615 14.32606689 4.2801123 15.21463379 4.26342773 16.13012695 C3.81518708 36.18481292 3.81518708 36.18481292 2 38 C1.8684967 39.41439104 1.76967538 40.83188775 1.6875 42.25 C1.34323288 45.29021805 0.89832165 47.22646541 -0.375 50.0625 C-4.55474324 53.14754858 -8.97972235 52.3895043 -14 52 C-14 51.34 -14 50.68 -14 50 C-14.99 49.67 -15.98 49.34 -17 49 C-18.1875 45.9375 -18.1875 45.9375 -19 43 C-19.66 43.99 -20.32 44.98 -21 46 C-21.66 46 -22.32 46 -23 46 C-23.33 46.99 -23.66 47.98 -24 49 C-25.6454378 50.68762851 -27.31288577 52.3540349 -29 54 C-29.66 54.99 -30.32 55.98 -31 57 C-31.66 57 -32.32 57 -33 57 C-33.26296875 57.57878906 -33.5259375 58.15757812 -33.796875 58.75390625 C-37.06329728 64.85193485 -42.49728469 69.90495605 -48 74 C-48.66 74 -49.32 74 -50 74 C-50.185625 74.66 -50.37125 75.32 -50.5625 76 C-53.56797133 82.272288 -58.61324452 86.7472983 -64 91 C-65.68732277 92.98260426 -67.35366057 94.9832342 -69 97 C-70.66666667 98.66666667 -72.33333333 100.33333333 -74 102 C-74.66 102.99 -75.32 103.98 -76 105 C-76.66 105 -77.32 105 -78 105 C-78.4021875 105.8971875 -78.4021875 105.8971875 -78.8125 106.8125 C-79.99917406 108.99847854 -81.09599113 110.41332594 -83 112 C-83.66 112 -84.32 112 -85 112 C-85.4021875 112.8971875 -85.4021875 112.8971875 -85.8125 113.8125 C-86.99917406 115.99847854 -88.09599113 117.41332594 -90 119 C-90.66 119 -91.32 119 -92 119 C-92.33 119.99 -92.66 120.98 -93 122 C-93.66 122 -94.32 122 -95 122 C-95.24105469 122.55945313 -95.48210937 123.11890625 -95.73046875 123.6953125 C-97.26525428 126.48153854 -99.15089294 128.54264415 -101.3125 130.875 C-103.8689724 133.65644197 -106.39270273 136.42272994 -108.75 139.375 C-110.98241437 141.97948343 -113.32966281 143.86373025 -116 146 C-116.91721788 147.04409529 -117.81277242 148.10755774 -118.6875 149.1875 C-121 152 -121 152 -123 153 C-124.87379605 153.07033769 -126.75001102 153.0843022 -128.625 153.0625 C-129.62789063 153.05347656 -130.63078125 153.04445313 -131.6640625 153.03515625 C-132.82035156 153.01775391 -132.82035156 153.01775391 -134 153 C-134.33 152.01 -134.66 151.02 -135 150 C-135.66 150 -136.32 150 -137 150 C-137.26103516 149.4423999 -137.52207031 148.8847998 -137.79101562 148.31030273 C-139.02331313 145.68411706 -140.26065709 143.06036847 -141.5 140.4375 C-141.94980225 139.48544678 -142.39960449 138.53339355 -142.86303711 137.55249023 C-146.17406706 130.60020405 -149.71451521 123.83086746 -153.50390625 117.12890625 C-154.99504176 114.01036957 -155.62351968 111.41926643 -156 108 C-156.66 108 -157.32 108 -158 108 C-158.84026396 106.23244474 -159.67198722 104.46082737 -160.5 102.6875 C-160.9640625 101.70136719 -161.428125 100.71523438 -161.90625 99.69921875 C-163 97 -163 97 -163 94 C-163.66 94 -164.32 94 -165 94 C-165.33 92.02 -165.66 90.04 -166 88 C-166.66 88 -167.32 88 -168 88 C-169.25664978 85.09399739 -170 83.20395416 -170 80 C-170.66 80 -171.32 80 -172 80 C-172.33 78.02 -172.66 76.04 -173 74 C-173.66 74 -174.32 74 -175 74 C-176.25664978 71.09399739 -177 69.20395416 -177 66 C-177.66 66 -178.32 66 -179 66 C-179.33 65.34 -179.66 64.68 -180 64 C-180.66 64 -181.32 64 -182 64 C-182.33 64.99 -182.66 65.98 -183 67 C-183.66 67 -184.32 67 -185 67 C-185.0825 67.721875 -185.165 68.44375 -185.25 69.1875 C-186.15713831 72.58926868 -187.60010879 74.45466084 -190 77 C-190.66 77 -191.32 77 -192 77 C-192.144375 77.61875 -192.28875 78.2375 -192.4375 78.875 C-193 81 -193 81 -194 83 C-194.66 83 -195.32 83 -196 83 C-196.185625 83.9590625 -196.185625 83.9590625 -196.375 84.9375 C-196.58125 85.618125 -196.7875 86.29875 -197 87 C-197.99 87.495 -197.99 87.495 -199 88 C-199.72159424 89.64363134 -200.39351421 91.31050386 -201 93 C-201.66 93 -202.32 93 -203 93 C-203.103125 93.598125 -203.20625 94.19625 -203.3125 94.8125 C-204.10636936 97.33844795 -204.95572409 98.34885407 -207 100 C-210.89164348 101.29721449 -213.89429226 101.13033993 -218 101 C-218.66 100.67 -219.32 100.34 -220 100 C-220 99.34 -220 98.68 -220 98 C-220.556875 97.95875 -221.11375 97.9175 -221.6875 97.875 C-225.17293296 96.55618753 -226.72741349 93.8706356 -229 91 C-229.66 90.67 -230.32 90.34 -231 90 C-231 89.34 -231 88.68 -231 88 C-232.65 87.34 -234.3 86.68 -236 86 C-236 85.34 -236 84.68 -236 84 C-236.99 83.67 -237.98 83.34 -239 83 C-239 82.34 -239 81.68 -239 81 C-240.65 80.34 -242.3 79.68 -244 79 C-244.99 80.98 -244.99 80.98 -246 83 C-246.66 83 -247.32 83 -248 83 C-248.33 84.32 -248.66 85.64 -249 87 C-249.66 87 -250.32 87 -251 87 C-251.2165625 87.8971875 -251.2165625 87.8971875 -251.4375 88.8125 C-251.8872439 90.56150404 -252.42892341 92.28677023 -253 94 C-253.66 94 -254.32 94 -255 94 C-255.33 95.32 -255.66 96.64 -256 98 C-256.66 98 -257.32 98 -258 98 C-258.144375 98.78375 -258.28875 99.5675 -258.4375 100.375 C-259 103 -259 103 -260 105 C-260.66 105 -261.32 105 -262 105 C-262.33 106.65 -262.66 108.3 -263 110 C-263.66 110 -264.32 110 -265 110 C-265.268125 110.886875 -265.53625 111.77375 -265.8125 112.6875 C-266.9250635 115.7909666 -268.10195778 118.31110685 -270 121 C-270.66 121 -271.32 121 -272 121 C-272.33 122.65 -272.66 124.3 -273 126 C-273.66 126 -274.32 126 -275 126 C-275.3403125 127.2684375 -275.3403125 127.2684375 -275.6875 128.5625 C-276.99334605 131.98257298 -278.51875998 134.29923433 -280.69140625 137.1875 C-282.71531301 139.9907619 -284.33248818 142.97377485 -286 146 C-286.99 146 -287.98 146 -289 146 C-289 146.66 -289 147.32 -289 148 C-291.97 148 -294.94 148 -298 148 C-298 147.34 -298 146.68 -298 146 C-299.32 145.67 -300.64 145.34 -302 145 C-302 144.34 -302 143.68 -302 143 C-302.66 143 -303.32 143 -304 143 C-308 138.52941176 -308 138.52941176 -308 136 C-308.99 135.67 -309.98 135.34 -311 135 C-313.1875 133.0625 -313.1875 133.0625 -315 131 C-315 130.34 -315 129.68 -315 129 C-315.99 128.67 -316.98 128.34 -318 128 C-320.1875 126.0625 -320.1875 126.0625 -322 124 C-322 123.34 -322 122.68 -322 122 C-322.66 122 -323.32 122 -324 122 C-324.495 123.98 -324.495 123.98 -325 126 C-325.66 126 -326.32 126 -327 126 C-327.66 127.65 -328.32 129.3 -329 131 C-329.66 131 -330.32 131 -331 131 C-331.0825 131.5775 -331.165 132.155 -331.25 132.75 C-332.21797787 135.6539336 -333.68694284 137.03740604 -336 139 C-336.66 139 -337.32 139 -338 139 C-338.33 140.32 -338.66 141.64 -339 143 C-339.66 143 -340.32 143 -341 143 C-341.268125 143.556875 -341.53625 144.11375 -341.8125 144.6875 C-344.33308472 149.59600708 -347.03374405 153.13544292 -351 157 C-351.66 157.99 -352.32 158.98 -353 160 C-353.66 160 -354.32 160 -355 160 C-355.20625 160.721875 -355.4125 161.44375 -355.625 162.1875 C-357.46929649 165.95992464 -359.50523557 167.69213669 -363 170 C-366.84245864 170.39075851 -369.34711807 170.21762731 -373 169 C-374.6875 167.5625 -374.6875 167.5625 -376 166 C-376 165.34 -376 164.68 -376 164 C-376.5775 163.731875 -377.155 163.46375 -377.75 163.1875 C-380.05550043 161.97070811 -382.02056192 160.69666121 -384 159 C-384 158.34 -384 157.68 -384 157 C-385.32 156.34 -386.64 155.68 -388 155 C-388 154.34 -388 153.68 -388 153 C-388.99 152.67 -389.98 152.34 -391 152 C-391 151.34 -391 150.68 -391 150 C-392.32 149.34 -393.64 148.68 -395 148 C-395 147.34 -395 146.68 -395 146 C-402.8137313 146.47355947 -408.70686713 154.46293136 -413.6875 159.8125 C-415 161 -415 161 -417 161 C-417 161.66 -417 162.32 -417 163 C-417.9590625 163.1546875 -417.9590625 163.1546875 -418.9375 163.3125 C-419.618125 163.539375 -420.29875 163.76625 -421 164 C-421.33 164.99 -421.66 165.98 -422 167 C-422.66 167 -423.32 167 -424 167 C-424 167.66 -424 168.32 -424 169 C-431.20877817 170.34400949 -431.20877817 170.34400949 -434.875 168.75 C-437.29262581 166.75901404 -438.80193356 165.0945777 -439.37109375 161.94921875 C-439.50103333 157.52362953 -439.32647783 155.49438071 -436.8125 151.6875 C-434.2983215 149.28506277 -431.75381551 147.11831962 -429 145 C-427.9171875 143.88625 -427.9171875 143.88625 -426.8125 142.75 C-425 141 -425 141 -423 141 C-422.7525 140.401875 -422.505 139.80375 -422.25 139.1875 C-420.81927475 136.68373081 -419.4308418 135.51927612 -417 134 C-416.34 134 -415.68 134 -415 134 C-414.67 133.01 -414.34 132.02 -414 131 C-413.34 131 -412.68 131 -412 131 C-411.67 130.01 -411.34 129.02 -411 128 C-409.0625 125.8125 -409.0625 125.8125 -407 124 C-406.34 124 -405.68 124 -405 124 C-405 123.34 -405 122.68 -405 122 C-402.32356043 121.10785348 -400.74615622 120.86459789 -398 120.875 C-397.319375 120.87242187 -396.63875 120.86984375 -395.9375 120.8671875 C-394 121 -394 121 -391 122 C-389.30911778 123.97956942 -387.64169528 125.97945196 -386 128 C-385.34 128.33 -384.68 128.66 -384 129 C-384 129.66 -384 130.32 -384 131 C-383.4225 131.268125 -382.845 131.53625 -382.25 131.8125 C-379.94449957 133.02929189 -377.97943808 134.30333879 -376 136 C-376 136.66 -376 137.32 -376 138 C-375.01 138.33 -374.02 138.66 -373 139 C-370.8125 140.9375 -370.8125 140.9375 -369 143 C-369 143.66 -369 144.32 -369 145 C-368.34 145 -367.68 145 -367 145 C-366.731875 144.443125 -366.46375 143.88625 -366.1875 143.3125 C-363.66691528 138.40399292 -360.96625595 134.86455708 -357 131 C-356.34 130.01 -355.68 129.02 -355 128 C-354.34 128 -353.68 128 -353 128 C-352.505 126.02 -352.505 126.02 -352 124 C-351.34 124 -350.68 124 -350 124 C-349.731875 123.443125 -349.46375 122.88625 -349.1875 122.3125 C-346.66691528 117.40399292 -343.96625595 113.86455708 -340 110 C-339.01 108.515 -339.01 108.515 -338 107 C-337.34 107 -336.68 107 -336 107 C-335.731875 106.443125 -335.46375 105.88625 -335.1875 105.3125 C-331.58181818 98.29090909 -331.58181818 98.29090909 -329 97 C-323.61687616 96.39320665 -319.40154629 95.9196414 -315 99.3125 C-314.01 100.6428125 -314.01 100.6428125 -313 102 C-312.401875 102.556875 -311.80375 103.11375 -311.1875 103.6875 C-310 105 -310 105 -310 107 C-309.01 107.33 -308.02 107.66 -307 108 C-307 108.66 -307 109.32 -307 110 C-305.68 110.66 -304.36 111.32 -303 112 C-303 112.66 -303 113.32 -303 114 C-302.01 114.33 -301.02 114.66 -300 115 C-300 115.66 -300 116.32 -300 117 C-299.01 117.33 -298.02 117.66 -297 118 C-295.3125 119.5625 -295.3125 119.5625 -294 121 C-293.67 119.68 -293.34 118.36 -293 117 C-292.34 117 -291.68 117 -291 117 C-290.8453125 115.9171875 -290.8453125 115.9171875 -290.6875 114.8125 C-289.93654526 111.74041242 -288.7124083 109.63996279 -287 107 C-286.67 106.34 -286.34 105.68 -286 105 C-285.34 105 -284.68 105 -284 105 C-283.67 103.35 -283.34 101.7 -283 100 C-282.34 100 -281.68 100 -281 100 C-280.34 98.02 -279.68 96.04 -279 94 C-278.34 94 -277.68 94 -277 94 C-276.67 92.35 -276.34 90.7 -276 89 C-275.34 89 -274.68 89 -274 89 C-273.6596875 87.7315625 -273.6596875 87.7315625 -273.3125 86.4375 C-272.05880666 83.15401744 -270.47943667 80.7988447 -268.375 78.01171875 C-265.80677026 74.25422353 -263.94171892 70.10652894 -262 66 C-261.34 66 -260.68 66 -260 66 C-259.731875 65.113125 -259.46375 64.22625 -259.1875 63.3125 C-258.0749365 60.2090334 -256.89804222 57.68889315 -255 55 C-254.34 55 -253.68 55 -253 55 C-253 54.34 -253 53.68 -253 53 C-249.28929959 51.76309986 -245.85602246 51.43735081 -242 52 C-239 53.875 -239 53.875 -237 56 C-237 56.66 -237 57.32 -237 58 C-236.278125 58.226875 -235.55625 58.45375 -234.8125 58.6875 C-231.45437121 60.25462677 -229.5381948 62.328216 -227 65 C-226.01 65.66 -225.02 66.32 -224 67 C-224 67.66 -224 68.32 -224 69 C-223.01 69.33 -222.02 69.66 -221 70 C-219.29413425 71.62652316 -217.6222454 73.29006566 -216 75 C-215.54625 74.505 -215.0925 74.01 -214.625 73.5 C-213 72 -213 72 -211 72 C-210.9175 71.46375 -210.835 70.9275 -210.75 70.375 C-209.72418729 67.12659309 -208.03436106 64.71248141 -206 62 C-205.34 62 -204.68 62 -204 62 C-203.67 60.68 -203.34 59.36 -203 58 C-202.34 58 -201.68 58 -201 58 C-200.5978125 56.9171875 -200.5978125 56.9171875 -200.1875 55.8125 C-199.00098638 53.00233617 -197.72514361 50.51583443 -196 48 C-195.34 48 -194.68 48 -194 48 C-193.72285156 47.43410156 -193.44570313 46.86820312 -193.16015625 46.28515625 C-187.45621692 35.05012424 -187.45621692 35.05012424 -181.5 32.75 C-178.43051114 32.0147623 -176.96837387 32.00682132 -173.8125 32.6875 C-167.06550666 38.23502786 -163.95313154 47.02023252 -160.4453125 54.81640625 C-157.88619581 60.4533795 -155.07445065 65.96224876 -152.1875 71.4375 C-151 74 -151 74 -151 77 C-150.34 77 -149.68 77 -149 77 C-148.16235732 78.95649397 -147.33000941 80.91525556 -146.5 82.875 C-146.0359375 83.96554687 -145.571875 85.05609375 -145.09375 86.1796875 C-144 89 -144 89 -144 91 C-143.34 91 -142.68 91 -142 91 C-141.34 93.97 -140.68 96.94 -140 100 C-139.34 100 -138.68 100 -138 100 C-137.67 101.65 -137.34 103.3 -137 105 C-136.34 105 -135.68 105 -135 105 C-134.67 106.98 -134.34 108.96 -134 111 C-133.34 111 -132.68 111 -132 111 C-127.59225513 120.41002278 -127.59225513 120.41002278 -127 125 C-122.82568154 122.91284077 -120.31674342 120.27685135 -117.4296875 116.71875 C-116.02470576 115.02970092 -114.64483261 113.45812188 -113 112 C-112.34 112 -111.68 112 -111 112 C-110.72671875 111.41089844 -110.4534375 110.82179688 -110.171875 110.21484375 C-107.05057639 104.31558937 -102.06515176 100.20299827 -97 96 C-95.30911778 94.02043058 -93.64169528 92.02054804 -92 90 C-90.33333333 88.33333333 -88.66666667 86.66666667 -87 85 C-86.09565314 83.90279531 -85.19978004 82.79855154 -84.3125 81.6875 C-83.549375 80.800625 -82.78625 79.91375 -82 79 C-81.34 79 -80.68 79 -80 79 C-79.5978125 78.1028125 -79.5978125 78.1028125 -79.1875 77.1875 C-78.00082594 75.00152146 -76.90400887 73.58667406 -75 72 C-74.34 72 -73.68 72 -73 72 C-72.5978125 71.1028125 -72.5978125 71.1028125 -72.1875 70.1875 C-71.00082594 68.00152146 -69.90400887 66.58667406 -68 65 C-67.34 65 -66.68 65 -66 65 C-65.72671875 64.42121094 -65.4534375 63.84242188 -65.171875 63.24609375 C-62.616657 58.34859259 -59.26651095 53.83149712 -54.9375 50.375 C-51.75164499 47.79920233 -49.56080569 45.18370437 -47 42 C-45.3125 40.125 -45.3125 40.125 -44 39 C-43.34 39 -42.68 39 -42 39 C-41.773125 38.443125 -41.54625 37.88625 -41.3125 37.3125 C-39.64103234 34.36753316 -37.44723648 32.31843456 -35 30 C-36.093125 29.731875 -37.18625 29.46375 -38.3125 29.1875 C-43.23392719 27.60263362 -43.23392719 27.60263362 -45 25 C-46.375 22.1875 -46.375 22.1875 -47 19 C-45.67318387 15.43854617 -44.13496321 12.25717351 -41 10 C-39.68 10 -38.36 10 -37 10 C-37 9.34 -37 8.68 -37 8 C-35.58461283 7.66127487 -34.16762037 7.32925376 -32.75 7 C-31.96109375 6.814375 -31.1721875 6.62875 -30.359375 6.4375 C-28 6 -28 6 -24 6 C-24 5.34 -24 4.68 -24 4 C-23.11248047 3.81824219 -23.11248047 3.81824219 -22.20703125 3.6328125 C-17.26909913 2.61978658 -17.26909913 2.61978658 -12.5625 0.875 C-8.5139542 -0.50743027 -4.20748256 -0.80728934 0 0 Z " fill="#0ACDB0" transform="translate(631,306)"/>
<path d="M0 0 C0.74294754 -0.00538554 1.48589508 -0.01077108 2.25135618 -0.01631981 C4.74802454 -0.03066029 7.24416723 -0.02348089 9.74085999 -0.01637268 C11.52789742 -0.02207309 13.31493121 -0.02903606 15.10195923 -0.03717041 C19.96145156 -0.05515361 24.82076384 -0.05392374 29.68027949 -0.04822803 C33.73363667 -0.04514355 37.78695889 -0.05122036 41.84031111 -0.05726677 C51.40094015 -0.07132741 60.96147987 -0.06973799 70.52210999 -0.05836487 C80.39297845 -0.04688233 90.26357527 -0.06095812 100.13440794 -0.08776134 C108.6024209 -0.10989642 117.07034846 -0.11656067 125.53838831 -0.11068493 C130.59894059 -0.10730886 135.65931871 -0.10977341 140.71984673 -0.12693596 C145.47807625 -0.14236808 150.23590246 -0.13849121 154.99411583 -0.11963081 C156.74206208 -0.11593453 158.49003797 -0.11908355 160.237957 -0.1295166 C162.62126538 -0.1426578 165.00322499 -0.1312416 167.38647461 -0.11352539 C168.08092947 -0.1231304 168.77538434 -0.1327354 169.49088329 -0.14263147 C172.78838416 -0.09207214 174.5024391 0.19527962 177.16268253 2.20806789 C179.4062313 5.27577381 179.62666289 7.61575922 179.75672913 11.38768005 C178.81922913 14.82518005 178.81922913 14.82518005 177.75672913 17.38768005 C176.10672913 17.71768005 174.45672913 18.04768005 172.75672913 18.38768005 C172.75672913 19.04768005 172.75672913 19.70768005 172.75672913 20.38768005 C149.65672913 20.38768005 126.55672913 20.38768005 102.75672913 20.38768005 C102.75672913 22.03768005 102.75672913 23.68768005 102.75672913 25.38768005 C103.97255676 25.36149597 105.1883844 25.33531189 106.4410553 25.30833435 C110.96023593 25.21770245 115.47933656 25.16038358 119.99916077 25.11302185 C121.95372536 25.08790724 123.9081963 25.05380874 125.86244202 25.01048279 C128.67509581 24.94969571 131.48650615 24.92144023 134.29969788 24.8993988 C135.1707164 24.87359238 136.04173492 24.84778595 136.93914795 24.82119751 C141.39306728 24.81914742 143.17970435 24.93843132 146.80628967 27.76194763 C148.91931884 30.60656256 149.43637776 31.8901676 149.38172913 35.38768005 C149.39461975 36.21268005 149.40751038 37.03768005 149.42079163 37.88768005 C148.40847567 41.6987519 146.91106806 43.00477856 143.75672913 45.38768005 C140.06675135 46.12057756 136.4311502 46.02963623 132.68006897 45.97117615 C131.00371117 45.97468079 131.00371117 45.97468079 129.29348755 45.97825623 C125.60107144 45.97987058 121.90990549 45.94583918 118.21766663 45.91111755 C115.65367585 45.90432885 113.08967884 45.89960623 110.52568054 45.89686584 C105.15393339 45.88618658 99.78262508 45.86016824 94.411026 45.81980896 C86.83523861 45.76294061 79.25963053 45.74064938 71.68366313 45.72452426 C65.79913961 45.71056222 59.91465261 45.68598521 54.03016663 45.66111755 C52.7723576 45.65620678 51.51454857 45.65129601 50.21862411 45.64623642 C46.67055329 45.62999837 43.12261103 45.6065943 39.57460022 45.58055115 C37.9895594 45.57416122 37.9895594 45.57416122 36.37249756 45.56764221 C34.92570869 45.55474152 34.92570869 45.55474152 33.44969177 45.5415802 C32.6109017 45.5360079 31.77211163 45.5304356 30.90790367 45.52469444 C28.75672913 45.38768005 28.75672913 45.38768005 25.75672913 44.38768005 C25.75672913 43.72768005 25.75672913 43.06768005 25.75672913 42.38768005 C25.09672913 42.38768005 24.43672913 42.38768005 23.75672913 42.38768005 C22.52981846 39.93385871 22.55496981 38.18783902 22.50672913 35.45018005 C22.48094788 34.57490662 22.45516663 33.69963318 22.42860413 32.7978363 C22.82322736 29.89923469 23.48850052 29.1630459 25.75672913 27.38768005 C29.54515385 24.86206357 32.54206242 25.13376432 36.92469788 25.19236755 C38.11691704 25.1966124 38.11691704 25.1966124 39.33322144 25.20094299 C41.87037751 25.21213301 44.40717985 25.23723515 46.94422913 25.26268005 C48.66492715 25.27271139 50.38563071 25.28183697 52.1063385 25.2900238 C56.32327155 25.31206845 60.53994038 25.34658999 64.75672913 25.38768005 C64.75672913 23.73768005 64.75672913 22.08768005 64.75672913 20.38768005 C41.65672913 20.38768005 18.55672913 20.38768005 -5.24327087 20.38768005 C-5.24327087 19.72768005 -5.24327087 19.06768005 -5.24327087 18.38768005 C-6.56327087 18.05768005 -7.88327087 17.72768005 -9.24327087 17.38768005 C-9.24327087 16.72768005 -9.24327087 16.06768005 -9.24327087 15.38768005 C-9.90327087 15.38768005 -10.56327087 15.38768005 -11.24327087 15.38768005 C-12.35771687 10.70700685 -12.20406317 7.79946273 -10.24327087 3.38768005 C-7.63886327 -0.43428014 -4.23335806 -0.03651959 0 0 Z " fill="#0ACDB1" transform="translate(276.24327087402344,648.6123199462891)"/>
<path d="M0 0 C0.98367554 -0.0038269 1.96735107 -0.00765381 2.98083496 -0.01159668 C5.05868555 -0.01431627 7.13657035 -0.00695182 9.21435547 0.00976562 C12.39498211 0.03117416 15.57334987 0.00996512 18.75390625 -0.015625 C20.77344249 -0.01298173 22.79297732 -0.00785678 24.8125 0 C25.76362671 -0.00809692 26.71475342 -0.01619385 27.69470215 -0.02453613 C34.26517201 0.06878678 34.26517201 0.06878678 37.51049805 2.40991211 C39.22398648 5.01416276 39.35410046 6.49935846 39.21875 9.59375 C39.18201172 10.87958984 39.18201172 10.87958984 39.14453125 12.19140625 C38.90625 14.53125 38.90625 14.53125 37.90625 17.53125 C32.85582357 20.9318572 28.4246625 20.9316236 22.5703125 20.82421875 C21.69096039 20.81997391 20.81160828 20.81572906 19.90560913 20.81135559 C17.11383658 20.79464461 14.32280212 20.75700692 11.53125 20.71875 C9.63152089 20.70369334 7.73178039 20.69000666 5.83203125 20.67773438 C1.18982242 20.64476598 -3.45183891 20.59303653 -8.09375 20.53125 C-8.09375 19.87125 -8.09375 19.21125 -8.09375 18.53125 C-8.7125 18.4075 -9.33125 18.28375 -9.96875 18.15625 C-12.09375 17.53125 -12.09375 17.53125 -14.09375 15.53125 C-14.4296875 13.0703125 -14.4296875 13.0703125 -14.46875 10.15625 C-14.49710937 9.19976563 -14.52546875 8.24328125 -14.5546875 7.2578125 C-13.20425159 -0.73035926 -6.58420291 -0.0560512 0 0 Z " fill="#09CCB0" transform="translate(476.09375,648.46875)"/>
<path d="M0 0 C6.33531015 -0.10141463 12.67041102 -0.17147114 19.00634766 -0.21972656 C21.16170067 -0.23984276 23.31699911 -0.26713925 25.47216797 -0.30175781 C28.57012395 -0.35027486 31.66735846 -0.37296873 34.765625 -0.390625 C35.72929993 -0.41127014 36.69297485 -0.43191528 37.68585205 -0.45318604 C44.35996117 -0.45542492 44.35996117 -0.45542492 47.60864258 1.85620117 C49.38006177 4.58559789 49.50356598 6.32526681 49.4375 9.5625 C49.43621094 10.51253906 49.43492187 11.46257813 49.43359375 12.44140625 C49 15 49 15 47.66015625 16.83984375 C46 18 46 18 43 18 C43 18.66 43 19.32 43 20 C37.41327806 20.07436251 31.82684661 20.12870254 26.23974609 20.16479492 C24.34060647 20.17984691 22.44150141 20.20029316 20.54248047 20.22631836 C17.80687919 20.26285992 15.071739 20.27976238 12.3359375 20.29296875 C11.49195404 20.30845261 10.64797058 20.32393646 9.77841187 20.33988953 C4.79874355 20.34129931 1.26570037 19.87222705 -3 17 C-4.00496852 13.98509443 -4.10335303 11.95818308 -4.0625 8.8125 C-4.05347656 7.91144531 -4.04445312 7.01039063 -4.03515625 6.08203125 C-4.02355469 5.39496094 -4.01195312 4.70789063 -4 4 C-3.01 3.67 -2.02 3.34 -1 3 C-0.67 2.01 -0.34 1.02 0 0 Z " fill="#09CCB0" transform="translate(209,649)"/>
<path d="M0 0 C0.85078125 -0.020625 1.7015625 -0.04125 2.578125 -0.0625 C7.4105182 -0.09260837 10.74099241 0.04081998 14.625 3.25 C16.63971597 6.27207395 16.96219034 7.16726699 17.0625 10.625 C17.12244141 11.75035156 17.12244141 11.75035156 17.18359375 12.8984375 C16.27391514 16.7279936 14.84245745 17.98440649 11.625 20.25 C7.75625555 20.98442364 3.98952134 20.94821979 0.0625 20.875 C-0.97841797 20.89433594 -2.01933594 20.91367187 -3.09179688 20.93359375 C-10.6140605 20.88521906 -10.6140605 20.88521906 -14.0703125 18 C-15.38427961 15.23044059 -15.8384921 13.65525532 -15.6875 10.625 C-15.66300781 9.86960937 -15.63851563 9.11421875 -15.61328125 8.3359375 C-15.375 6.25 -15.375 6.25 -14.375 3.25 C-13.715 3.25 -13.055 3.25 -12.375 3.25 C-12.375 2.59 -12.375 1.93 -12.375 1.25 C-8.23358936 -0.13047021 -4.33798777 0.02605398 0 0 Z " fill="#2A4054" transform="translate(40.375,613.75)"/>
<path d="M0 0 C0 0.66 0 1.32 0 2 C0.598125 2.103125 1.19625 2.20625 1.8125 2.3125 C5.52445211 3.47911352 6.88079612 5.82119418 9 9 C9.69265757 14.20298593 9.81577957 18.61317473 7.125 23.1875 C5 25 5 25 3 25 C3 25.66 3 26.32 3 27 C-0.08506088 28.02835363 -2.2694272 28.13368434 -5.5 28.125 C-6.93859375 28.12886719 -6.93859375 28.12886719 -8.40625 28.1328125 C-11 28 -11 28 -14 27 C-18.5964866 21.86275027 -19.25720638 18.12149933 -19.140625 11.4375 C-18.96638369 8.41731735 -18.71177275 6.53044667 -17 4 C-11.42352799 -0.2985305 -6.8955466 -0.49947621 0 0 Z M-10 11 C-10 12.98 -10 14.96 -10 17 C-9.360625 17.12375 -8.72125 17.2475 -8.0625 17.375 C-7.381875 17.58125 -6.70125 17.7875 -6 18 C-5.67 18.66 -5.34 19.32 -5 20 C-3.35 18.68 -1.7 17.36 0 16 C-0.33 14.35 -0.66 12.7 -1 11 C-5.61507774 9.95785309 -5.61507774 9.95785309 -10 11 Z " fill="#293F52" transform="translate(677,26)"/>
<path d="M0 0 C0.83080078 0.00193359 1.66160156 0.00386719 2.51757812 0.00585938 C3.80631836 0.02422852 3.80631836 0.02422852 5.12109375 0.04296875 C5.98412109 0.04361328 6.84714844 0.04425781 7.73632812 0.04492188 C14.13621652 0.08967634 14.13621652 0.08967634 17.55859375 1.23046875 C17.55859375 1.89046875 17.55859375 2.55046875 17.55859375 3.23046875 C18.21859375 3.23046875 18.87859375 3.23046875 19.55859375 3.23046875 C20.48726449 6.01648098 20.72201592 7.84112964 20.74609375 10.73046875 C20.76027344 11.50390625 20.77445313 12.27734375 20.7890625 13.07421875 C20.55859375 15.23046875 20.55859375 15.23046875 18.55859375 18.23046875 C17.89859375 18.23046875 17.23859375 18.23046875 16.55859375 18.23046875 C16.55859375 18.89046875 16.55859375 19.55046875 16.55859375 20.23046875 C12.78790543 20.31745375 9.01747443 20.37085454 5.24609375 20.41796875 C4.17423828 20.44310547 3.10238281 20.46824219 1.99804688 20.49414062 C0.97001953 20.50380859 -0.05800781 20.51347656 -1.1171875 20.5234375 C-2.06505127 20.53914795 -3.01291504 20.5548584 -3.98950195 20.57104492 C-6.44140625 20.23046875 -6.44140625 20.23046875 -8.27416992 18.8371582 C-9.44140625 17.23046875 -9.44140625 17.23046875 -9.44140625 15.23046875 C-10.10140625 15.23046875 -10.76140625 15.23046875 -11.44140625 15.23046875 C-11.44140625 12.26046875 -11.44140625 9.29046875 -11.44140625 6.23046875 C-10.78140625 6.23046875 -10.12140625 6.23046875 -9.44140625 6.23046875 C-9.35890625 5.61171875 -9.27640625 4.99296875 -9.19140625 4.35546875 C-8.44140625 2.23046875 -8.44140625 2.23046875 -6.67211914 1.11206055 C-4.26629669 0.16126435 -2.57583265 -0.01400058 0 0 Z " fill="#2B4154" transform="translate(674.44140625,613.76953125)"/>
<path d="M0 0 C0.33 1.98 0.66 3.96 1 6 C3.75383923 4.62308038 4.51483101 2.63279958 6 0 C8.475 0.495 8.475 0.495 11 1 C11.90870687 3.54437925 12.14745938 4.63135155 11.125 7.1875 C10 9 10 9 9 10 C10.98 10 12.96 10 15 10 C15 12.31 15 14.62 15 17 C13.35 17.33 11.7 17.66 10 18 C10.5259375 19.175625 10.5259375 19.175625 11.0625 20.375 C11.5265625 21.674375 11.5265625 21.674375 12 23 C11.67 23.66 11.34 24.32 11 25 C10.01 25 9.02 25 8 25 C8 25.66 8 26.32 8 27 C7.34 27 6.68 27 6 27 C6 26.34 6 25.68 6 25 C5.34 25 4.68 25 4 25 C3.34 23.68 2.68 22.36 2 21 C1.01 22.98 0.02 24.96 -1 27 C-1.99 27 -2.98 27 -4 27 C-4 26.34 -4 25.68 -4 25 C-4.99 24.67 -5.98 24.34 -7 24 C-6.49396008 21.83125748 -6.00016187 20.00032373 -5 18 C-6.98 17.67 -8.96 17.34 -11 17 C-11 14.69 -11 12.38 -11 10 C-8.69 10 -6.38 10 -4 10 C-4 9.34 -4 8.68 -4 8 C-4.66 8 -5.32 8 -6 8 C-6.33 6.35 -6.66 4.7 -7 3 C-2.25 0 -2.25 0 0 0 Z " fill="#08CAAF" transform="translate(26,29)"/>
<path d="M0 0 C1.32 0 2.64 0 4 0 C4.33 1.98 4.66 3.96 5 6 C5.66 6 6.32 6 7 6 C7.66 4.02 8.32 2.04 9 0 C9.99 0 10.98 0 12 0 C12 0.66 12 1.32 12 2 C12.99 2 13.98 2 15 2 C14.67 3.98 14.34 5.96 14 8 C13.34 8 12.68 8 12 8 C12 8.66 12 9.32 12 10 C14.31 10 16.62 10 19 10 C19 12.31 19 14.62 19 17 C17.68 17 16.36 17 15 17 C15 16.34 15 15.68 15 15 C14.01 15.33 13.02 15.66 12 16 C12.495 16.5775 12.99 17.155 13.5 17.75 C15 20 15 20 15 24 C12.69 24.33 10.38 24.66 8 25 C7.34 23.35 6.68 21.7 6 20 C5.01 22.475 5.01 22.475 4 25 C1.69 24.67 -0.62 24.34 -3 24 C-2.67 22.02 -2.34 20.04 -2 18 C-1.34 18 -0.68 18 0 18 C0 17.34 0 16.68 0 16 C-2.31 16.33 -4.62 16.66 -7 17 C-7 14.69 -7 12.38 -7 10 C-4.69 10 -2.38 10 0 10 C-0.7425 9.13375 -0.7425 9.13375 -1.5 8.25 C-3 6 -3 6 -3 2 C-2.01 2 -1.02 2 0 2 C0 1.34 0 0.68 0 0 Z " fill="#08CBAF" transform="translate(520,26)"/>
<path d="M0 0 C1.671549 0.30791692 3.33805547 0.64386903 5 1 C7.9585307 1.10476454 7.9585307 1.10476454 10.625 0.4375 C11.800625 0.2209375 11.800625 0.2209375 13 0 C14 1 14 1 14.0625 3.5625 C14.041875 4.366875 14.02125 5.17125 14 6 C15.32 6.33 16.64 6.66 18 7 C18 9.31 18 11.62 18 14 C16.35 14 14.7 14 13 14 C13.33 16.31 13.66 18.62 14 21 C12.35 21.33 10.7 21.66 9 22 C9 21.34 9 20.68 9 20 C7.68 20 6.36 20 5 20 C4.67 20.66 4.34 21.32 4 22 C2.35 21.67 0.7 21.34 -1 21 C-0.67 18.69 -0.34 16.38 0 14 C-1.65 13.67 -3.3 13.34 -5 13 C-5 11.35 -5 9.7 -5 8 C-3.68 7.34 -2.36 6.68 -1 6 C-1.020625 5.195625 -1.04125 4.39125 -1.0625 3.5625 C-1 1 -1 1 0 0 Z M0 7 C0 7.66 0 8.32 0 9 C0.66 9 1.32 9 2 9 C2 8.34 2 7.68 2 7 C1.34 7 0.68 7 0 7 Z M11 7 C11 7.66 11 8.32 11 9 C11.66 9 12.32 9 13 9 C13 8.34 13 7.68 13 7 C12.34 7 11.68 7 11 7 Z " fill="#07CDAF" transform="translate(161,109)"/>
<path d="M0 0 C2.47021018 3.03482965 3.88036829 5.16257801 4.4375 9.0625 C3.93824346 12.41465104 3.02623884 14.29834822 1 17 C-2.20380017 19.13586678 -3.01939967 19.23132175 -6.6875 19.125 C-7.49574219 19.10695313 -8.30398437 19.08890625 -9.13671875 19.0703125 C-9.75160156 19.04710937 -10.36648437 19.02390625 -11 19 C-11 18.34 -11 17.68 -11 17 C-11.99 17 -12.98 17 -14 17 C-15.35550385 14.2889923 -15.16917207 12.08660831 -15.1875 9.0625 C-15.20167969 8.00160156 -15.21585938 6.94070313 -15.23046875 5.84765625 C-15 3 -15 3 -13 0 C-8.52745503 -1.49084832 -4.47254497 -1.49084832 0 0 Z " fill="#293F52" transform="translate(15,615)"/>
<path d="M0 0 C2.24666134 3.36999202 2.2457371 4.56105462 2.1875 8.5 C2.18105469 9.4590625 2.17460938 10.418125 2.16796875 11.40625 C2 14 2 14 1 17 C0.01 17 -0.98 17 -2 17 C-2 17.66 -2 18.32 -2 19 C-10.04705882 19.46425339 -10.04705882 19.46425339 -13.4375 17.8125 C-16.58860259 14.157221 -17.27110055 10.74425969 -17 6 C-16.34 6 -15.68 6 -15 6 C-14.7834375 5.071875 -14.7834375 5.071875 -14.5625 4.125 C-14 2 -14 2 -13 0 C-8.52745503 -1.49084832 -4.47254497 -1.49084832 0 0 Z " fill="#293F53" transform="translate(718,615)"/>
<path d="M0 0 C9.7374975 -0.76740348 9.7374975 -0.76740348 14.1875 1.9375 C16.62494858 6.0559476 16.45772706 9.33118401 16 14 C15.34 14 14.68 14 14 14 C13.9071875 14.928125 13.9071875 14.928125 13.8125 15.875 C13 18 13 18 10.75 19.25 C8.02003872 19.99453489 5.81296916 20.1607411 3 20 C3 19.34 3 18.68 3 18 C1.68 17.67 0.36 17.34 -1 17 C-1 16.34 -1 15.68 -1 15 C-1.66 15 -2.32 15 -3 15 C-4.49498913 12.01002175 -4.11577446 9.29957225 -4 6 C-3.67 5.01 -3.34 4.02 -3 3 C-2.34 3 -1.68 3 -1 3 C-0.67 2.01 -0.34 1.02 0 0 Z M4 7 C4 8.32 4 9.64 4 11 C5.485 11.99 5.485 11.99 7 13 C7 12.34 7 11.68 7 11 C7.66 11 8.32 11 9 11 C9 10.01 9 9.02 9 8 C7.35 7.67 5.7 7.34 4 7 Z " fill="#283E51" transform="translate(369,109)"/>
<path d="M0 0 C1.95803507 -0.05389087 3.91648909 -0.09274217 5.875 -0.125 C7.51082031 -0.15980469 7.51082031 -0.15980469 9.1796875 -0.1953125 C12 0 12 0 14 2 C14 2.99 14 3.98 14 5 C14.66 5 15.32 5 16 5 C16 7.31 16 9.62 16 12 C15.34 12 14.68 12 14 12 C13.855625 12.61875 13.71125 13.2375 13.5625 13.875 C13 16 13 16 12 18 C7.69002151 19.18435359 4.06120391 19.45480168 -0.0625 17.6875 C-0.701875 17.130625 -1.34125 16.57375 -2 16 C-2 15.34 -2 14.68 -2 14 C-2.66 14 -3.32 14 -4 14 C-4 10.7 -4 7.4 -4 4 C-3.34 4 -2.68 4 -2 4 C-1.34 2.68 -0.68 1.36 0 0 Z M3 7 C3 8.32 3 9.64 3 11 C4.65 11 6.3 11 8 11 C8.33 10.01 8.66 9.02 9 8 C7.93354885 6.70366379 7.93354885 6.70366379 5.4375 6.9375 C4.633125 6.958125 3.82875 6.97875 3 7 Z " fill="#283D50" transform="translate(65,191)"/>
<path d="M0 0 C1.50433594 0.01353516 1.50433594 0.01353516 3.0390625 0.02734375 C3.80992187 0.03894531 4.58078125 0.05054687 5.375 0.0625 C5.705 1.0525 6.035 2.0425 6.375 3.0625 C7.365 3.3925 8.355 3.7225 9.375 4.0625 C9.45653933 5.64496707 9.51443557 7.22866273 9.5625 8.8125 C9.61470703 10.13507812 9.61470703 10.13507812 9.66796875 11.484375 C9.31762147 14.56743103 8.51501467 15.84765964 6.375 18.0625 C2.64162527 19.30695824 -0.75290345 19.70282725 -4.625 19.0625 C-7.625 17.125 -7.625 17.125 -9.625 14.0625 C-10.43092908 9.29479323 -10.19042104 5.2347328 -7.625 1.0625 C-4.98041621 -0.25979189 -2.94738699 -0.03427194 0 0 Z M-3.625 8.0625 C-3.295 9.0525 -2.965 10.0425 -2.625 11.0625 C-0.60991642 11.79573796 -0.60991642 11.79573796 1.375 12.0625 C1.705 10.7425 2.035 9.4225 2.375 8.0625 C-0.67413228 7.05138907 -0.67413228 7.05138907 -3.625 8.0625 Z " fill="#293F51" transform="translate(262.625,31.9375)"/>
<path d="M0 0 C1.77074917 -0.02705729 3.54161711 -0.04642195 5.3125 -0.0625 C6.29863281 -0.07410156 7.28476562 -0.08570313 8.30078125 -0.09765625 C11 0 11 0 14 1 C15.01646891 4.04940673 15.19844676 6.30369903 15.25 9.5 C15.27578125 10.4590625 15.3015625 11.418125 15.328125 12.40625 C15 15 15 15 13.76171875 16.79296875 C11.62746332 18.25524132 10.12914767 18.55713371 7.5625 18.8125 C6.80066406 18.90144531 6.03882813 18.99039063 5.25390625 19.08203125 C2.68684495 18.98860268 1.19293667 18.29378268 -1 17 C-1 16.34 -1 15.68 -1 15 C-1.66 15 -2.32 15 -3 15 C-3.19573608 13.56359829 -3.38127816 12.12580496 -3.5625 10.6875 C-3.66691406 9.88699219 -3.77132812 9.08648437 -3.87890625 8.26171875 C-4 6 -4 6 -3 3 C-2.34 3 -1.68 3 -1 3 C-0.67 2.01 -0.34 1.02 0 0 Z M4 7 C4 8.32 4 9.64 4 11 C4.66 11 5.32 11 6 11 C6.33 11.66 6.66 12.32 7 13 C7 12.34 7 11.68 7 11 C7.66 11 8.32 11 9 11 C9 9.68 9 8.36 9 7 C7.35 7 5.7 7 4 7 Z " fill="#293F52" transform="translate(656,195)"/>
<path d="M0 0 C0.91007813 0.00902344 1.82015625 0.01804687 2.7578125 0.02734375 C3.45648437 0.03894531 4.15515625 0.05054687 4.875 0.0625 C6.37321059 3.43347383 6.875 5.26692119 6.875 9.0625 C5.885 9.3925 4.895 9.7225 3.875 10.0625 C4.535 10.3925 5.195 10.7225 5.875 11.0625 C5.875 12.0525 5.875 13.0425 5.875 14.0625 C1.5585078 14.82423392 -1.86933453 15.22313604 -6.125 14.0625 C-6.455 13.0725 -6.785 12.0825 -7.125 11.0625 C-6.465 10.7325 -5.805 10.4025 -5.125 10.0625 C-6.115 9.7325 -7.105 9.4025 -8.125 9.0625 C-7.5390625 2.91015625 -7.5390625 2.91015625 -7.125 1.0625 C-4.60024538 -0.19987731 -2.81299534 -0.03606404 0 0 Z " fill="#07CEB2" transform="translate(577.125,114.9375)"/>
</svg>
