<?xml version="1.0" encoding="UTF-8"?>
<svg version="1.1" xmlns="http://www.w3.org/2000/svg" width="512" height="512">
<path d="M0 0 C1.06565186 0.25257568 1.06565186 0.25257568 2.15283203 0.51025391 C33.40248493 8.19918714 62.48686378 25.27842051 85.52148438 47.57275391 C87.05844409 49.05641746 88.61501765 50.51772277 90.171875 51.98046875 C125.83425801 86.00553906 145.1935471 135.55350643 146.97851562 184.32861328 C147.61244087 216.19428645 140.9759578 247.37980871 127 276 C126.65598145 276.7125293 126.31196289 277.42505859 125.95751953 278.15917969 C112.50165109 305.72332232 91.79314247 329.98405725 67 348 C66.42588379 348.41846191 65.85176758 348.83692383 65.26025391 349.26806641 C53.17412836 357.95719397 39.85008177 365.5242571 26 371 C27.00579495 371.00081715 27.00579495 371.00081715 28.03190899 371.00165081 C44.34869386 371.01661922 60.66515236 371.05906815 76.98177624 371.13209057 C84.87240374 371.16674135 92.76285654 371.19209618 100.65356445 371.19555664 C107.53126688 371.19859644 114.40865816 371.21908865 121.2862404 371.26052457 C124.92784798 371.28185533 128.56901322 371.29445511 132.21068382 371.28615379 C136.27655291 371.27721255 140.3412402 371.30723571 144.40698242 371.34057617 C145.61395279 371.33195053 146.82092316 371.32332489 148.06446838 371.31443787 C157.14986086 371.43966487 157.14986086 371.43966487 160.29096985 374.34199524 C162 377 162 377 161.9375 380.1875 C161 383 161 383 159 385 C156.08765084 385.25299966 156.08765084 385.25299966 152.26545811 385.25726891 C151.20979958 385.26252802 151.20979958 385.26252802 150.13281462 385.26789337 C147.7507028 385.27727206 145.36883201 385.27226759 142.98670959 385.26742554 C141.27120257 385.27115855 139.55569724 385.27575866 137.84019464 385.28115618 C133.10743114 385.29344475 128.37473801 385.29311887 123.64196217 385.29076743 C118.54508495 385.29036074 113.44823074 385.3013842 108.35136414 385.31088257 C98.35894128 385.3275253 88.36654202 385.33299358 78.37410647 385.33410732 C70.25584963 385.3350562 62.13760061 385.3391584 54.01934624 385.34550858 C31.02594374 385.36312945 8.03255996 385.37234605 -14.96084934 385.37084763 C-16.82185611 385.37072776 -16.82185611 385.37072776 -18.72045898 385.37060547 C-20.5837257 385.37048283 -20.5837257 385.37048283 -22.48463417 385.37035771 C-42.62574234 385.36954443 -62.7667758 385.38869037 -82.90786236 385.4168822 C-103.5657022 385.44557028 -124.22350555 385.45942477 -144.88136584 385.45769465 C-156.48842145 385.45702936 -168.09539872 385.46258215 -179.70243645 385.48405075 C-189.58337758 385.50220896 -199.46420487 385.50665417 -209.34515541 385.4930319 C-214.39055956 385.4864752 -219.43574498 385.48648184 -224.48112869 385.5037384 C-229.09444499 385.5193555 -233.70736705 385.5167231 -238.32067306 385.49917014 C-239.99495068 385.49607499 -241.66925692 385.49982609 -243.34350085 385.51089029 C-245.60935906 385.52487951 -247.87380889 385.51453174 -250.13961697 385.49777794 C-252.0318459 385.49843004 -252.0318459 385.49843004 -253.96230167 385.49909532 C-257 385 -257 385 -258.93268019 383.16029513 C-260.4710598 380.04655738 -260.04134366 378.26287679 -259 375 C-255.94022545 372.0453726 -253.73223547 371.62132297 -249.54571533 371.60127258 C-247.88408607 371.58246536 -247.88408607 371.58246536 -246.18888855 371.5632782 C-244.97832291 371.56471329 -243.76775726 371.56614838 -242.52050781 371.56762695 C-241.24220596 371.5574353 -239.96390411 371.54724365 -238.64686584 371.53674316 C-235.14512567 371.5091605 -231.64354788 371.49988701 -228.14171314 371.49388909 C-224.48078282 371.48450865 -220.81997396 371.45830556 -217.15911865 371.43388367 C-210.22837114 371.3902058 -203.29764718 371.3616668 -196.36680388 371.33856028 C-188.47561854 371.31151547 -180.58455531 371.26760355 -172.69345713 371.22227156 C-156.46236663 371.12940688 -140.23125427 371.05773456 -124 371 C-124.60604065 370.71390586 -125.2120813 370.42781172 -125.83648682 370.13304806 C-128.60552285 368.82442441 -131.3730813 367.51270431 -134.140625 366.20092773 C-135.09404785 365.75091148 -136.0474707 365.30089523 -137.02978516 364.83724213 C-143.23500757 361.89263738 -149.25032241 358.83536354 -155 355.0625 C-156.15495972 354.31963745 -156.15495972 354.31963745 -157.33325195 353.56176758 C-164.3945819 348.92461906 -170.73754279 343.64972759 -177 338 C-178.37415442 336.83233748 -179.74904855 335.66554439 -181.125 334.5 C-190.89846781 325.8329625 -199.29174983 316.52133482 -207 306 C-207.41604492 305.43361816 -207.83208984 304.86723633 -208.26074219 304.28369141 C-239.88872653 260.57888354 -250.26479092 207.02967194 -241.88452148 154.22436523 C-235.30793969 116.90199417 -217.54966731 82.80659966 -191.45947266 55.52685547 C-190.47491573 54.49684225 -189.4955186 53.46187541 -188.52099609 52.42236328 C-158.53397922 20.51446988 -114.58035108 -0.82625991 -71 -5 C-69.32164062 -5.16435547 -69.32164062 -5.16435547 -67.609375 -5.33203125 C-44.75203034 -7.25389319 -22.29283446 -5.2962427 0 0 Z M-175 58 C-175.49467773 58.46212891 -175.98935547 58.92425781 -176.49902344 59.40039062 C-201.55035338 82.92551647 -218.74353159 114.45447172 -226.8125 147.75 C-227.00739014 148.55203857 -227.20228027 149.35407715 -227.40307617 150.18041992 C-230.37318097 163.20358987 -231.41076213 176.13020452 -231.375 189.4375 C-231.37478851 190.17234619 -231.37457703 190.90719238 -231.37435913 191.66430664 C-231.33614058 205.07521301 -230.01984753 217.90572274 -227 231 C-226.81808105 231.80775879 -226.63616211 232.61551758 -226.44873047 233.44775391 C-215.90099076 278.87184476 -185.85063297 318.80402318 -147 344 C-124.35588956 358.03934847 -99.39630145 367.31987372 -73 371 C-72.35119873 371.0942627 -71.70239746 371.18852539 -71.03393555 371.28564453 C-63.7779725 372.23034777 -56.49475075 372.24351297 -49.1875 372.25 C-48.15913025 372.25101212 -48.15913025 372.25101212 -47.10998535 372.25204468 C-35.52370887 372.2340054 -24.33991877 371.48948741 -13 369 C-12.21802246 368.82839355 -11.43604492 368.65678711 -10.63037109 368.47998047 C22.77877953 360.87370589 51.77571816 345.07435086 77 322 C77.94230469 321.14148438 78.88460938 320.28296875 79.85546875 319.3984375 C111.12824082 289.52459175 132.03779522 244.20029339 133.26478577 200.87277222 C133.32594664 197.35219773 133.33059037 193.8334805 133.3125 190.3125 C133.31067719 189.57087616 133.30885437 188.82925232 133.30697632 188.06515503 C133.25792194 176.1669917 132.60526371 164.63853907 130 153 C129.82839355 152.21705566 129.65678711 151.43411133 129.47998047 150.62744141 C118.84560197 103.51876023 89.98378114 61.81525832 49.1875 35.875 C-22.33082638 -8.39456922 -113.82782427 -0.03040236 -175 58 Z " fill="#2C4355" transform="translate(305,73)"/>
<path d="M0 0 C2.11130335 2.90354355 1.80831741 5.82396223 1.76563549 9.2781477 C1.76819876 10.03208461 1.77076204 10.78602152 1.77340299 11.562805 C1.77835592 14.09649681 1.76182349 16.62959658 1.74544811 19.16323376 C1.74460216 20.97646095 1.74507635 22.78968917 1.74677563 24.60291576 C1.74763827 29.53242252 1.72996906 34.46171139 1.70905375 39.3911674 C1.69033169 44.54013869 1.68854005 49.68911467 1.68497753 54.83811474 C1.67564391 64.59162053 1.6510123 74.34502575 1.62092906 84.0984872 C1.58742602 95.20111251 1.57090936 106.30374255 1.55584276 117.40640581 C1.5244639 140.24833721 1.47167781 163.09017927 1.40487194 185.93203259 C2.3503933 185.92926721 3.29591467 185.92650183 4.2700882 185.92365265 C27.25380372 185.85711776 50.2375068 185.80778566 73.22129822 185.77659607 C84.33599103 185.76111295 95.4506203 185.73999588 106.56527233 185.70571423 C116.25036288 185.67585605 125.93540742 185.6564681 135.62054271 185.6497671 C140.7509637 185.64584876 145.88125307 185.63661022 151.01163197 185.61484241 C155.83703162 185.59453381 160.66224497 185.58818735 165.4876833 185.59270954 C167.26185905 185.59188181 169.03604081 185.58588275 170.81017971 185.57441616 C173.22660355 185.55955983 175.64231765 185.5630535 178.05875683 185.57126904 C178.76595279 185.56253051 179.47314875 185.55379199 180.2017749 185.54478866 C183.09327945 185.5714866 184.95925731 185.60917412 187.34116173 187.33492088 C190.17492455 191.58968473 188.49732089 198.01419774 187.55721569 202.73672009 C187.16707928 204.43030459 186.76148409 206.12038505 186.34237194 207.80703259 C186.11759167 208.7190443 185.89281139 209.63105602 185.6612196 210.57070446 C179.72977798 233.78243942 169.50839906 255.2797344 154.40487194 273.93203259 C153.93516979 274.5145277 153.46546764 275.09702282 152.9815321 275.6971693 C124.12910912 311.19951998 83.09346731 333.42590688 37.66659069 338.49453259 C-6.77734118 342.68407601 -51.46353467 330.77909481 -86.59512806 302.93203259 C-89.53244214 300.45855357 -92.34620451 297.86120914 -95.14200306 295.22890759 C-97.27812598 293.22884345 -99.46613402 291.35807096 -101.72012806 289.49453259 C-106.66115935 285.18748291 -110.58579902 280.09275868 -114.59512806 274.93203259 C-115.33891712 273.99230602 -116.08270618 273.05257946 -116.84903431 272.08437634 C-145.02381819 235.6776556 -156.42845195 189.24313308 -150.82559681 143.68447399 C-144.09363349 98.65984572 -119.91683355 57.50901042 -83.43350697 30.29189587 C-82.82684193 29.84314098 -82.22017689 29.3943861 -81.59512806 28.93203259 C-81.02584583 28.50776989 -80.45656361 28.08350719 -79.8700304 27.64638805 C-64.64423515 16.45982186 -46.80770653 7.92231838 -28.59512806 2.93203259 C-27.89661732 2.74028454 -27.19810658 2.54853649 -26.47842884 2.3509779 C-5.09053317 -3.40820508 -5.09053317 -3.40820508 0 0 Z M-50.59512806 25.93203259 C-51.71145618 26.47601696 -52.82778431 27.02000134 -53.97794056 27.58047009 C-67.50324839 34.52237507 -79.27017155 43.87584713 -90.59512806 53.93203259 C-91.24868275 54.51211071 -91.90223743 55.09218884 -92.57559681 55.68984509 C-120.67897845 82.25788759 -137.70650682 122.9290182 -138.79825306 161.32265759 C-139.35042855 202.6197571 -126.82523305 242.73913062 -98.29825306 273.40078259 C-96.4298668 275.28321686 -94.52760092 277.11586596 -92.59512806 278.93203259 C-91.41950306 280.13859509 -91.41950306 280.13859509 -90.22012806 281.36953259 C-83.14346248 288.27770613 -75.93180817 294.58943385 -67.59512806 299.93203259 C-67.00908802 300.3097279 -66.42304798 300.68742321 -65.81924915 301.07656384 C-30.0945619 323.83919642 12.69888656 331.18295774 54.05233288 322.41054821 C77.19719337 317.16924232 99.02819581 307.02102567 117.40487194 291.93203259 C117.96126354 291.48102184 118.51765514 291.0300111 119.0909071 290.56533337 C145.42335401 269.12620579 165.00793319 240.30569547 172.56893444 206.93984509 C172.74787243 206.16455456 172.92681042 205.38926403 173.11117077 204.59047985 C173.54580833 202.70511222 173.9758325 200.81868201 174.40487194 198.93203259 C173.46965804 198.92964423 172.53444414 198.92725588 171.57089043 198.92479515 C148.83743522 198.8660562 126.10408647 198.7902083 103.37074852 198.69631767 C92.37716853 198.65131124 81.3836213 198.61190783 70.38997936 198.58559704 C60.81030299 198.56265614 51.23072984 198.52930212 41.65113527 198.48333102 C36.57664783 198.45934594 31.50226295 198.44065188 26.42772007 198.43441868 C21.65477942 198.42839165 16.88210134 198.40847865 12.1092577 198.37775707 C10.35446143 198.36893848 8.59963089 198.36526212 6.84481335 198.36702442 C4.45458849 198.36866743 2.06517346 198.35206239 -0.32494068 198.33076 C-1.02435475 198.33560758 -1.72376881 198.34045515 -2.44437724 198.34544963 C-5.11460516 198.30599174 -7.16626553 198.16998016 -9.52459431 196.86149883 C-11.1679336 193.89964201 -11.01672543 190.96154907 -10.99385548 187.66184521 C-11.0005023 186.9160754 -11.00714913 186.1703056 -11.01399738 185.40193671 C-11.03269173 182.89596191 -11.03001783 180.39046187 -11.02750111 177.88442516 C-11.03651436 176.09089511 -11.04684049 174.29737125 -11.0583849 172.50385571 C-11.08603241 167.62813966 -11.09524991 162.75254025 -11.10123897 157.87675595 C-11.11060251 152.78378065 -11.1368042 147.69089316 -11.16124439 142.59797192 C-11.20496879 132.95077969 -11.23347924 123.30360444 -11.25656778 113.65634316 C-11.28358765 102.67457002 -11.3275011 91.69288495 -11.3728565 80.71117461 C-11.46578784 58.11817498 -11.53742966 35.52514772 -11.59512806 12.93203259 C-24.40771009 12.93203259 -39.24471284 20.35301494 -50.59512806 25.93203259 Z " fill="#2C4255" transform="translate(236.5951280593872,95.06796741485596)"/>
<path d="M0 0 C42.39251497 14.29062166 77.02461284 46.2906471 97 86 C107.7759769 108.32026823 114.05708818 132.29003117 114.375 157.125 C114.38901855 157.87740967 114.40303711 158.62981934 114.41748047 159.4050293 C114.3720204 164.42486978 114.3720204 164.42486978 112.90449524 166.69361115 C110.01854904 168.67322646 107.60315745 168.38414406 104.12963867 168.39440918 C103.42682109 168.40050028 102.72400351 168.40659139 101.99988842 168.41286707 C99.63908543 168.42954893 97.27881874 168.4247141 94.91796875 168.41992188 C93.22782834 168.42725915 91.53769295 168.43584437 89.8475647 168.44558716 C85.25260194 168.46784605 80.65781826 168.47073173 76.06280899 168.46883965 C72.23054878 168.46872016 68.39832683 168.47727496 64.56607723 168.48561716 C55.52807514 168.50486636 46.49016542 168.50772927 37.45214844 168.50097656 C28.11856749 168.4943316 18.78538131 168.51721489 9.45188046 168.55429029 C1.44587131 168.58494222 -6.56001054 168.59635232 -14.56607723 168.59245348 C-19.35110799 168.59038159 -24.13583152 168.59593283 -28.92080688 168.62034607 C-33.41892143 168.64253695 -37.91639187 168.64079985 -42.41450882 168.62041855 C-44.06774008 168.61699503 -45.72101406 168.62215504 -47.37418747 168.63640213 C-49.62676502 168.65447941 -51.87713035 168.64193593 -54.12963867 168.62145996 C-55.39136398 168.62217247 -56.65308929 168.62288498 -57.95304871 168.62361908 C-61 168 -61 168 -62.90600872 165.89330387 C-64.21092795 162.442154 -64.37472873 159.7777483 -64.3742218 156.0856781 C-64.37819621 155.402275 -64.38217061 154.71887189 -64.38626546 154.0147596 C-64.39586733 151.73155003 -64.3840837 149.44896338 -64.37231445 147.16577148 C-64.3747431 145.52622242 -64.37846313 143.88667484 -64.38337708 142.24713135 C-64.392779 137.79887444 -64.38336691 133.35083784 -64.37004495 128.90259814 C-64.35872645 124.24797709 -64.36283822 119.59336682 -64.36479187 114.93873596 C-64.36567463 107.12326458 -64.35459746 99.30787998 -64.33618164 91.49243164 C-64.3150069 82.45433075 -64.31150582 73.41635691 -64.3177436 64.37823623 C-64.3234362 55.68521091 -64.3177933 46.99223037 -64.30657005 38.2992115 C-64.30192344 34.59873693 -64.30105048 30.89828973 -64.3031559 27.19781303 C-64.30503815 22.84182397 -64.29693977 18.48596442 -64.2810955 14.13000488 C-64.27684961 12.53041685 -64.27600415 10.93081569 -64.27878571 9.33122444 C-64.28200383 7.14978647 -64.27293536 4.96873634 -64.26069641 2.78733826 C-64.25864354 1.5660041 -64.25659067 0.34466993 -64.25447559 -0.91367435 C-64.01009943 -3.87751236 -63.65286024 -5.55763431 -62 -8 C-46.09621268 -15.95189366 -15.55926927 -5.13504057 0 0 Z M-50 4 C-50 53.83 -50 103.66 -50 155 C-0.17 155 49.66 155 101 155 C100.18996248 142.99701036 100.18996248 142.99701036 98.3125 131.25 C98.13807373 130.40638916 97.96364746 129.56277832 97.78393555 128.69360352 C92.02980199 102.10528098 79.84207567 78.4676654 62 58 C61.14664063 57.01257813 60.29328125 56.02515625 59.4140625 55.0078125 C37.80154315 30.44581992 7.98633614 14.2403945 -23.75 7.125 C-24.64734863 6.92165039 -25.54469727 6.71830078 -26.46923828 6.50878906 C-34.43960229 4.84703657 -41.66089928 4.55594005 -50 4 Z " fill="#0ACDB2" transform="translate(313,101)"/>
<path d="M0 0 C0.95200287 -0.00188513 1.90400574 -0.00377026 2.88485718 -0.00571251 C4.52529999 -0.02686119 4.52529999 -0.02686119 6.19888306 -0.04843712 C7.3989801 -0.03831596 8.59907715 -0.02819481 9.83554077 -0.01776695 C11.09912415 -0.02652855 12.36270752 -0.03529015 13.6645813 -0.04431725 C17.13167995 -0.06713202 20.59803559 -0.05826617 24.0651474 -0.04242182 C27.69126913 -0.02977367 31.31732673 -0.04149987 34.94345093 -0.04935265 C41.03324827 -0.05845247 47.12274255 -0.04645291 53.2124939 -0.02264977 C60.25583749 0.00456257 67.29845747 -0.00425139 74.34178352 -0.03178179 C80.38606529 -0.05446272 86.43012906 -0.05767807 92.47443962 -0.04458845 C96.08575173 -0.03678816 99.69672359 -0.03576765 103.30801392 -0.05227089 C107.33325134 -0.0693805 111.357239 -0.04567724 115.38241577 -0.01776695 C116.58251282 -0.02788811 117.78260986 -0.03800926 119.01907349 -0.04843712 C120.11270203 -0.034338 121.20633057 -0.02023888 122.33309937 -0.00571251 C123.28510223 -0.00382738 124.2371051 -0.00194225 125.21795654 0 C127.60897827 0.6292057 127.60897827 0.6292057 129.4777832 2.96966934 C130.60897827 5.6292057 130.60897827 5.6292057 129.98397827 8.8167057 C128.60897827 11.6292057 128.60897827 11.6292057 125.60897827 13.6292057 C123.35002136 13.86971474 123.35002136 13.86971474 120.67855835 13.85625648 C119.67774734 13.85610542 118.67693634 13.85595436 117.64579773 13.85579872 C116.56759262 13.84547615 115.48938751 13.83515358 114.37850952 13.8245182 C113.27295212 13.82168831 112.16739471 13.81885841 111.02833557 13.81594276 C107.49260699 13.80473572 103.95713047 13.77962997 100.42147827 13.7542057 C98.02629963 13.74417659 95.63111703 13.73505062 93.2359314 13.72686195 C87.36019416 13.70479468 81.48460422 13.67131188 75.60897827 13.6292057 C75.60897827 15.2792057 75.60897827 16.9292057 75.60897827 18.6292057 C76.94859619 18.60564003 76.94859619 18.60564003 78.3152771 18.58159828 C81.63076584 18.53045132 84.94583502 18.49284758 88.26156616 18.46441078 C89.69620379 18.44932982 91.13079536 18.4288619 92.5652771 18.40288734 C94.62813686 18.36647134 96.69038685 18.34947327 98.75350952 18.33623695 C100.61519775 18.31267128 100.61519775 18.31267128 102.51449585 18.28862953 C105.60897827 18.6292057 105.60897827 18.6292057 107.51400757 19.92876625 C109.36387033 22.80151857 108.96269147 25.32788253 108.60897827 28.6292057 C107.58004761 30.32369423 107.58004761 30.32369423 105.60897827 31.6292057 C102.89538174 31.92527452 100.41114345 32.03905994 97.6968689 32.0173893 C96.48912056 32.02527473 96.48912056 32.02527473 95.25697327 32.03331947 C92.59286151 32.04653395 89.92934622 32.03777643 87.26522827 32.0276432 C85.41582118 32.02966353 83.56641486 32.03257462 81.7170105 32.03634071 C77.83993957 32.04076602 73.9630759 32.03432637 70.08602905 32.02031898 C65.11235304 32.00322697 60.13916265 32.01306704 55.16550446 32.03103638 C51.34626597 32.04186864 47.52714293 32.03843044 43.707901 32.030653 C41.87384484 32.02864945 40.03977824 32.0311157 38.20573425 32.03809166 C35.64390232 32.04569701 33.08286061 32.03411522 30.52108765 32.0173893 C29.38016914 32.02649834 29.38016914 32.02649834 28.21620178 32.0357914 C23.12979338 31.97416064 23.12979338 31.97416064 20.63790894 30.32369423 C18.88351454 27.43447994 19.25841421 24.90113696 19.60897827 21.6292057 C20.7449646 19.92876625 20.7449646 19.92876625 22.60897827 18.6292057 C25.42807007 18.28862953 25.42807007 18.28862953 28.80819702 18.33623695 C30.62094116 18.35073891 30.62094116 18.35073891 32.4703064 18.36553383 C34.36426147 18.40323891 34.36426147 18.40323891 36.29647827 18.4417057 C38.20783569 18.46200844 38.20783569 18.46200844 40.1578064 18.48272133 C43.30861885 18.51812372 46.45858872 18.56750781 49.60897827 18.6292057 C49.60897827 16.9792057 49.60897827 15.3292057 49.60897827 13.6292057 C48.68269623 13.63919846 48.68269623 13.63919846 47.73770142 13.64939308 C41.31398726 13.71573302 34.89037032 13.76100078 28.46640015 13.79400063 C26.06857348 13.80909252 23.67077444 13.8295682 21.27304077 13.85552406 C17.82765894 13.89188881 14.3826419 13.90892818 10.93710327 13.92217445 C9.86405945 13.93765831 8.79101562 13.95314217 7.68545532 13.96909523 C6.68471985 13.96932182 5.68398437 13.96954842 4.65292358 13.96978188 C3.7735614 13.97644371 2.89419922 13.98310555 1.9881897 13.98996925 C-0.91048847 13.55043815 -2.26346522 12.61495863 -4.39102173 10.6292057 C-5.32852173 8.2542057 -5.32852173 8.2542057 -5.39102173 5.6292057 C-3.27189645 0.86101096 -3.27189645 0.86101096 0 0 Z " fill="#0ACEB2" transform="translate(193.39102172851563,469.37079429626465)"/>
<path d="M0 0 C3.28685947 0.55946544 3.96938606 0.91125923 5.9375 3.5 C6.52734375 5.93359375 6.52734375 5.93359375 6.875 8.9375 C10.91137357 38.09626266 19.95637182 63.69858136 38.9375 86.5 C40.04931641 87.84191406 40.04931641 87.84191406 41.18359375 89.2109375 C49.16523261 98.45882566 58.74842345 105.82654376 68.9375 112.5 C69.79214844 113.06332031 70.64679688 113.62664062 71.52734375 114.20703125 C88.89896752 125.00034027 108.95257583 131.28447762 129.3190918 132.64208984 C133.99482625 133.03869486 136.71844023 134.03716677 139.9375 137.5 C139.86863135 141.49438174 139.8060771 143.6314229 136.9375 146.5 C106.18404988 150.22506579 72.42718397 134.05046998 48.8125 115.625 C17.54019492 89.69312141 -1.71990854 55.15399259 -6.5625 14.75 C-6.67625977 13.90405273 -6.79001953 13.05810547 -6.90722656 12.18652344 C-7.33249149 8.05228123 -7.43217301 6.13372516 -5.28515625 2.453125 C-3.0625 0.5 -3.0625 0.5 0 0 Z " fill="#2C4255" transform="translate(116.0625,262.5)"/>
<path d="M0 0 C2.38714518 0.62455841 4.7425378 1.31203173 7.10009766 2.0402832 C7.95958008 2.30421875 8.8190625 2.5681543 9.70458984 2.84008789 C30.3996252 9.40933765 48.68220449 19.70232256 64.60009766 34.4777832 C65.17501953 35.00887695 65.74994141 35.5399707 66.34228516 36.0871582 C87.9212547 56.25265813 102.17923963 81.25229379 109.16259766 109.9777832 C109.33122314 110.66541748 109.49984863 111.35305176 109.67358398 112.06152344 C110.50748102 115.83463557 110.74893558 118.76771248 109.60009766 122.4777832 C108.41259766 124.2902832 108.41259766 124.2902832 106.60009766 125.4777832 C103.66259766 125.9777832 103.66259766 125.9777832 100.60009766 125.4777832 C96.72123728 121.66466623 95.70475541 117.78223201 94.72509766 112.6027832 C89.48805202 88.20344791 76.53291727 67.48619026 59.60009766 49.4777832 C59.02388672 48.82551758 58.44767578 48.17325195 57.85400391 47.5012207 C41.08834998 29.35398727 15.60615787 17.89734811 -8.26123047 12.85766602 C-14.3136382 11.51647229 -14.3136382 11.51647229 -16.39990234 8.4777832 C-16.92245237 4.96923306 -16.77375255 3.14051766 -15.02490234 0.0402832 C-10.43709549 -2.69055421 -5.05393442 -1.09973202 0 0 Z " fill="#0ACEB2" transform="translate(290.39990234375,119.522216796875)"/>
<path d="M0 0 C0.67671753 -0.00287018 1.35343506 -0.00574036 2.05065918 -0.00869751 C3.47958209 -0.01073647 4.90853302 -0.00521819 6.33740234 0.00732422 C8.52374725 0.02338239 10.70824379 0.00747216 12.89453125 -0.01171875 C14.28385824 -0.00973629 15.67318409 -0.00589254 17.0625 0 C18.32642578 0.00338379 19.59035156 0.00676758 20.89257812 0.01025391 C24.03125 0.3984375 24.03125 0.3984375 25.93945312 1.73974609 C27.68377881 4.38977935 27.47188502 6.31399235 27.03125 9.3984375 C24.82842209 12.34475312 23.64683016 13.2972685 19.97851562 13.90014648 C18.80998047 13.89829346 17.64144531 13.89644043 16.4375 13.89453125 C14.52130859 13.89549805 14.52130859 13.89549805 12.56640625 13.89648438 C11.57278076 13.88089478 11.57278076 13.88089478 10.55908203 13.86499023 C8.53725102 13.83602348 6.51804328 13.84438815 4.49609375 13.85742188 C-5.24864788 13.79350581 -5.24864788 13.79350581 -8.35351562 12.09008789 C-9.96875 10.3984375 -9.96875 10.3984375 -10.40625 6.8984375 C-9.96875 3.3984375 -9.96875 3.3984375 -8.87695312 1.70458984 C-5.97229184 -0.28363148 -3.48613118 0.00933309 0 0 Z " fill="#0ACDB1" transform="translate(338.96875,469.6015625)"/>
<path d="M0 0 C0.67671753 -0.00287018 1.35343506 -0.00574036 2.05065918 -0.00869751 C3.47958209 -0.01073647 4.90853302 -0.00521819 6.33740234 0.00732422 C8.52374725 0.02338239 10.70824379 0.00747216 12.89453125 -0.01171875 C14.28385824 -0.00973629 15.67318409 -0.00589254 17.0625 0 C18.32642578 0.00338379 19.59035156 0.00676758 20.89257812 0.01025391 C24.03125 0.3984375 24.03125 0.3984375 25.93945312 1.70458984 C27.81149186 4.60892901 27.44773119 7.06658795 27.03125 10.3984375 C24.72895172 12.80965648 23.30078364 13.36276266 19.97851562 13.80249023 C13.03325601 13.86043124 13.03325601 13.86043124 10.55908203 13.84448242 C8.53705367 13.83596196 6.51784393 13.8647639 4.49609375 13.89648438 C3.21863281 13.89583984 1.94117188 13.89519531 0.625 13.89453125 C-1.12780273 13.89731079 -1.12780273 13.89731079 -2.91601562 13.90014648 C-6.58433016 13.2972685 -7.76592209 12.34475312 -9.96875 9.3984375 C-10.40938502 6.31399235 -10.62127881 4.38977935 -8.87695312 1.73974609 C-5.97847098 -0.29764655 -3.50742766 0.0093901 0 0 Z " fill="#0ACDB1" transform="translate(155.96875,469.6015625)"/>
<path d="M0 0 C1.8253125 -0.01546875 1.8253125 -0.01546875 3.6875 -0.03125 C7.52478956 0.58416436 8.7220827 1.40494284 11 4.5 C11.43670311 7.55692178 11.62401242 9.49161491 9.97265625 12.16015625 C6.87396211 14.26481385 3.61212482 13.93284542 0 13.875 C-1.08667969 13.89240234 -1.08667969 13.89240234 -2.1953125 13.91015625 C-7.43885675 13.88113294 -7.43885675 13.88113294 -9.97265625 12.16015625 C-11.62401242 9.49161491 -11.43670311 7.55692178 -11 4.5 C-7.82786225 0.18994552 -5.20258596 -0.04408971 0 0 Z " fill="#2D4355" transform="translate(483,444.5)"/>
<path d="M0 0 C1.8253125 -0.01546875 1.8253125 -0.01546875 3.6875 -0.03125 C7.52478956 0.58416436 8.7220827 1.40494284 11 4.5 C11.43670311 7.55692178 11.62401242 9.49161491 9.97265625 12.16015625 C6.87396211 14.26481385 3.61212482 13.93284542 0 13.875 C-1.08667969 13.89240234 -1.08667969 13.89240234 -2.1953125 13.91015625 C-7.43885675 13.88113294 -7.43885675 13.88113294 -9.97265625 12.16015625 C-11.62401242 9.49161491 -11.43670311 7.55692178 -11 4.5 C-7.82786225 0.18994552 -5.20258596 -0.04408971 0 0 Z " fill="#2D4355" transform="translate(29,444.5)"/>
<path d="M0 0 C3.69059994 0.87426509 5.13063077 2.36922768 7.16015625 5.51171875 C8.10666867 9.70341662 7.60623459 12.63814867 5.66015625 16.44921875 C2.29574263 19.22485998 -0.51721343 19.8124982 -4.83984375 19.51171875 C-7.80203303 18.28820579 -9.2832314 17.2803739 -11.15234375 14.69921875 C-12.0983123 11.68931883 -12.2805665 9.65973839 -11.83984375 6.51171875 C-8.73642578 1.10576487 -6.27795379 -0.47163259 0 0 Z M-3.83984375 5.51171875 C-4.49984375 6.17171875 -5.15984375 6.83171875 -5.83984375 7.51171875 C-5.51942978 10.11452443 -5.51942978 10.11452443 -4.83984375 12.51171875 C-3.18984375 12.84171875 -1.53984375 13.17171875 0.16015625 13.51171875 C0.82015625 11.86171875 1.48015625 10.21171875 2.16015625 8.51171875 C0.84814452 6.94922066 0.84814452 6.94922066 -0.83984375 5.51171875 C-1.82984375 5.51171875 -2.81984375 5.51171875 -3.83984375 5.51171875 Z " fill="#2D4356" transform="translate(270.83984375,29.48828125)"/>
<path d="M0 0 C2.8992226 0.46761655 3.86675182 0.86675182 6 3 C6.33 2.01 6.66 1.02 7 0 C8.65 0.33 10.3 0.66 12 1 C10.515 3.475 10.515 3.475 9 6 C10.65 6 12.3 6 14 6 C14 7.65 14 9.3 14 11 C12.35 11 10.7 11 9 11 C9.7425 11.680625 9.7425 11.680625 10.5 12.375 C12 14 12 14 12 16 C10.35 16.33 8.7 16.66 7 17 C6.34 15.68 5.68 14.36 5 13 C4.34 14.32 3.68 15.64 3 17 C1.68 16.67 0.36 16.34 -1 16 C-0.34 14.35 0.32 12.7 1 11 C-0.65 11 -2.3 11 -4 11 C-4 9.35 -4 7.7 -4 6 C-2.35 6 -0.7 6 1 6 C0.34 4.35 -0.32 2.7 -1 1 C-0.67 0.67 -0.34 0.34 0 0 Z " fill="#09CFB1" transform="translate(113,67)"/>
<path d="M0 0 C2.86724686 0.57344937 3.8614515 0.8614515 6 3 C6.33 2.01 6.66 1.02 7 0 C8.65 0.33 10.3 0.66 12 1 C10.515 3.475 10.515 3.475 9 6 C10.65 6 12.3 6 14 6 C14 7.32 14 8.64 14 10 C12.68 10.33 11.36 10.66 10 11 C10.66 12.32 11.32 13.64 12 15 C10.02 15.99 10.02 15.99 8 17 C7.01 15.68 6.02 14.36 5 13 C4.34 14.32 3.68 15.64 3 17 C1.68 16.34 0.36 15.68 -1 15 C-0.34 13.68 0.32 12.36 1 11 C-0.32 10.67 -1.64 10.34 -3 10 C-3 8.68 -3 7.36 -3 6 C-1.35 6 0.3 6 2 6 C1.01 5.01 0.02 4.02 -1 3 C-0.67 2.01 -0.34 1.02 0 0 Z " fill="#0ACEB2" transform="translate(471,141)"/>
<path d="M0 0 C2.32528287 2.32528287 2.29511025 2.84665898 2.3125 6 C2.32925781 6.70125 2.34601562 7.4025 2.36328125 8.125 C2.18345703 9.053125 2.18345703 9.053125 2 10 C-1.70415293 12.46943529 -3.62144505 12.46913089 -8 12 C-10 10.375 -10 10.375 -11 8 C-10.92897215 4.5196355 -10.61415498 2.70514091 -8.3125 0.0625 C-5.16096578 -1.38550221 -3.29050737 -0.929926 0 0 Z " fill="#2C4255" transform="translate(510,446)"/>
<path d="M0 0 C1.9375 1.6875 1.9375 1.6875 3 4 C2.77962372 7.67293796 2.63033454 9.36966546 0 12 C-4.33643601 12.31537716 -6.32653229 12.44897847 -10 10 C-10.77902622 2.98876404 -10.77902622 2.98876404 -8.375 -0.0625 C-5.12721302 -1.34452118 -3.30703161 -1.05543562 0 0 Z " fill="#2D4356" transform="translate(10,446)"/>
<path d="M0 0 C0.99 0.33 1.98 0.66 3 1 C2.67 2.65 2.34 4.3 2 6 C3.32 6 4.64 6 6 6 C6 7.32 6 8.64 6 10 C4.68 10.33 3.36 10.66 2 11 C2.33 12.32 2.66 13.64 3 15 C1.68 15 0.36 15 -1 15 C-1 14.01 -1 13.02 -1 12 C-1.66 12 -2.32 12 -3 12 C-3.66 13.32 -4.32 14.64 -5 16 C-5.66 15.67 -6.32 15.34 -7 15 C-6.67 13.35 -6.34 11.7 -6 10 C-7.32 10 -8.64 10 -10 10 C-10 8.68 -10 7.36 -10 6 C-8.68 5.67 -7.36 5.34 -6 5 C-6.33 3.68 -6.66 2.36 -7 1 C-5.68 1.33 -4.36 1.66 -3 2 C-3 2.66 -3 3.32 -3 4 C-2.34 4 -1.68 4 -1 4 C-0.67 2.68 -0.34 1.36 0 0 Z " fill="#0ACFB4" transform="translate(484,15)"/>
<path d="M0 0 C0.70125 0.00515625 1.4025 0.0103125 2.125 0.015625 C2.82625 0.01046875 3.5275 0.0053125 4.25 0 C6.125 0.265625 6.125 0.265625 8.125 2.265625 C8.69391496 7.3858596 8.69391496 7.3858596 8.125 10.265625 C6 12.390625 6 12.390625 3.125 13.265625 C-0.0625 12.640625 -0.0625 12.640625 -2.875 11.265625 C-4.875 8.265625 -4.875 8.265625 -4.625 5.203125 C-3.83373451 2.10400185 -3.35162194 0.47481311 0 0 Z M0.125 4.265625 C-0.205 4.925625 -0.535 5.585625 -0.875 6.265625 C-0.545 6.925625 -0.215 7.585625 0.125 8.265625 C1.445 8.265625 2.765 8.265625 4.125 8.265625 C4.125 6.945625 4.125 5.625625 4.125 4.265625 C2.805 4.265625 1.485 4.265625 0.125 4.265625 Z " fill="#2D4255" transform="translate(43.875,172.734375)"/>
<path d="M0 0 C2.3989516 1.57172691 2.90600171 2.71800513 3.8125 5.4375 C4.02578982 8.35246093 3.62661237 9.60288704 2 12 C-0.79870027 13.39935013 -2.90498792 13.25265405 -6 13 C-7.875 11.9375 -7.875 11.9375 -9 10 C-9.63316583 4.09045226 -9.63316583 4.09045226 -7.875 1.0625 C-5.11019567 -0.50422245 -3.11811483 -0.38976435 0 0 Z M-4 4 C-4.33 5.32 -4.66 6.64 -5 8 C-3.68 8 -2.36 8 -1 8 C-1 7.01 -1 6.02 -1 5 C-1.99 4.67 -2.98 4.34 -4 4 Z " fill="#2C4255" transform="translate(189,11)"/>
<path d="M0 0 C1.875 1.0625 1.875 1.0625 3 3 C3.63316583 8.90954774 3.63316583 8.90954774 1.875 11.9375 C-0.93512264 13.52990283 -2.82764724 13.45319325 -6 13 C-8.4375 11.4375 -8.4375 11.4375 -10 9 C-9.9375 5.375 -9.9375 5.375 -9 2 C-5.53076119 -0.31282587 -4.07794425 -0.42478586 0 0 Z M-5 4 C-5.33 5.32 -5.66 6.64 -6 8 C-4.68 8.33 -3.36 8.66 -2 9 C-1.67 7.68 -1.34 6.36 -1 5 C-2.32 4.67 -3.64 4.34 -5 4 Z " fill="#2D4255" transform="translate(415,75)"/>
<path d="M0 0 C2.375 2.125 2.375 2.125 4 5 C3.9375 8.1875 3.9375 8.1875 3 11 C-0.46923881 13.31282587 -1.92205575 13.42478586 -6 13 C-7.875 11.9375 -7.875 11.9375 -9 10 C-9.4375 6.5 -9.4375 6.5 -9 3 C-6.3773336 -0.01120957 -3.90597484 -0.78119497 0 0 Z M-4 4 C-4.33 5.32 -4.66 6.64 -5 8 C-3.68 8.33 -2.36 8.66 -1 9 C-0.67 8.01 -0.34 7.02 0 6 C-1.32 5.34 -2.64 4.68 -4 4 Z " fill="#2C4356" transform="translate(384,20)"/>
<path d="M0 0 C0.86625 0.2784375 0.86625 0.2784375 1.75 0.5625 C4.20692525 1.04023546 5.64397534 0.75729364 8 0 C7.67 0.99 7.34 1.98 7 3 C7.66 3 8.32 3 9 3 C9 3.99 9 4.98 9 6 C8.01 6.495 8.01 6.495 7 7 C7 7.99 7 8.98 7 10 C3 10 3 10 0 9 C0 8.34 0 7.68 0 7 C-0.66 6.67 -1.32 6.34 -2 6 C-2 5.01 -2 4.02 -2 3 C-1.34 2.67 -0.68 2.34 0 2 C0 1.34 0 0.68 0 0 Z " fill="#09D0B0" transform="translate(24,46)"/>
</svg>
