<?xml version="1.0" encoding="UTF-8"?>
<svg version="1.1" xmlns="http://www.w3.org/2000/svg" width="512" height="512">
<path d="M0 0 C2.96203823 3.71205269 3.37472748 6.63469832 3.37358761 11.30161285 C3.38057735 12.57992399 3.3875671 13.85823512 3.39476866 15.17528296 C3.38737538 16.59166951 3.37971313 18.00805467 3.37181091 19.42443848 C3.37438549 20.93074518 3.37828645 22.4370501 3.3834005 23.94335032 C3.39368578 28.08404924 3.38536351 32.22453543 3.37410367 36.36522412 C3.36525978 40.83017833 3.37375043 45.29510214 3.38031006 49.76005554 C3.38947169 57.49750194 3.38813398 65.23488905 3.38012505 72.97233582 C3.36890395 84.16486202 3.37792497 95.35730356 3.39268685 106.54982239 C3.41646616 124.7156679 3.42982556 142.88150297 3.43383789 161.04736328 C3.43408276 162.13479861 3.43432763 163.22223395 3.43457992 164.34262186 C3.43712639 176.47774339 3.43769234 188.61286412 3.43664551 200.74798584 C3.43631248 205.14953613 3.43602708 209.55108642 3.43579102 213.95263672 C3.43569683 215.58180585 3.43569683 215.58180585 3.43560075 217.24388748 C3.43499636 235.34124129 3.44985889 253.43854686 3.47662407 271.53588057 C3.49244978 282.70297863 3.49466566 293.86992127 3.47949005 305.03702104 C3.47004229 312.6853933 3.47475351 320.33367169 3.49070387 327.9820329 C3.49942031 332.39785531 3.50148573 336.81342855 3.48617744 341.22923851 C3.47228229 345.26954957 3.47665179 349.30940867 3.49569846 353.34969491 C3.49931951 354.813285 3.49613327 356.27691059 3.48554879 357.74046689 C3.4721512 359.72640143 3.48566104 361.71246339 3.50057125 363.69838715 C3.50046391 364.80256155 3.50035658 365.90673594 3.50024599 367.04437017 C4.13516675 370.79939901 5.25096659 372.38307829 8 375 C12.25763214 376.94799134 16.00364992 377.25009432 20.6488905 377.25053978 C21.61776735 377.25473629 21.61776735 377.25473629 22.60621747 377.25901759 C24.76745644 377.26596825 26.92841058 377.25872331 29.08964539 377.2515564 C30.65598639 377.25369537 32.22232639 377.25672109 33.78866416 377.26055682 C38.09054176 377.26859705 42.3923324 377.26428999 46.69420969 377.25803804 C51.33429346 377.25350571 55.97436061 377.26054355 60.61444092 377.26634216 C68.65361309 377.27497596 76.69276326 377.27678317 84.73193932 377.27439499 C96.35852336 377.27129964 107.98505864 377.28292759 119.61163042 377.29894479 C138.4791197 377.32490796 157.34660901 377.34492735 176.21411133 377.35839844 C177.34337439 377.35920881 178.47263744 377.36001918 179.6361206 377.3608541 C195.67482589 377.37208434 211.71352771 377.37735876 227.7522364 377.38024123 C229.44749535 377.38054721 229.44749535 377.38054721 231.17700195 377.38085938 C232.30580073 377.38105931 233.4345995 377.38125925 234.5976043 377.38146524 C253.39785151 377.38519369 272.1980458 377.40424634 290.99826652 377.43595374 C302.60073364 377.45490232 314.20306527 377.46080901 325.80554364 377.45013656 C333.74871068 377.44383418 341.69178028 377.45181051 349.63492592 377.47119068 C354.22264718 377.48190962 358.81013201 377.48596199 363.39785194 377.47271919 C367.5928395 377.46073103 371.78738226 377.46691797 375.98233078 377.48791118 C377.50439822 377.49223889 379.02650276 377.48971895 380.54854449 377.47987001 C382.60912043 377.46749828 384.6681356 377.47945655 386.72863293 377.49777794 C387.87555337 377.49821267 389.02247382 377.49864741 390.20414943 377.49909532 C393 378 393 378 394.89586669 379.83998263 C396.48613382 382.9510242 396.04673054 384.72024431 395 388 C392.63576095 390.41233898 391.24919762 390.96990433 387.8672033 391.37834883 C385.99620985 391.38070563 385.99620985 391.38070563 384.08741856 391.38311005 C383.3886912 391.38806956 382.68996385 391.39302908 381.97006294 391.39813888 C379.61703056 391.41114375 377.26456111 391.40269514 374.91151428 391.39440918 C373.21220366 391.39929578 371.51289637 391.4054845 369.81359476 391.41286707 C365.13478715 391.42931901 360.45614746 391.42693802 355.77732098 391.4214921 C350.73496421 391.41882837 345.69265287 391.43334127 340.65031433 391.44558716 C330.7684445 391.46667087 320.8866333 391.47118034 311.00474364 391.46939927 C302.97522077 391.46809318 294.94571624 391.47188796 286.91619682 391.47932434 C284.60593794 391.48142347 282.29567905 391.48352107 279.98542017 391.48561716 C278.26076565 391.48718245 278.26076565 391.48718245 276.50126963 391.48877937 C254.74237063 391.50769343 232.98350532 391.5066279 211.2246015 391.49981004 C191.30481275 391.49423308 171.38515255 391.51506447 151.46539385 391.54817051 C131.02669768 391.5818762 110.58806315 391.59707978 90.14933866 391.59245348 C78.66854808 391.59020571 67.18787634 391.5954969 55.70710945 391.62034607 C45.93384749 391.64131885 36.16076953 391.6449912 26.38750011 391.62604648 C21.39849817 391.61686396 16.40983967 391.61582234 11.42086411 391.63640213 C6.85678525 391.65502144 2.29333329 391.65071101 -2.27072103 391.62785631 C-3.92478532 391.62364757 -5.57889683 391.62794637 -7.23291134 391.64145225 C-9.47656482 391.65853003 -11.71800886 391.64498519 -13.96157742 391.62361908 C-15.83281439 391.62402766 -15.83281439 391.62402766 -17.74185413 391.62444448 C-21.91209504 390.82519116 -23.43284195 389.32131532 -26 386 C-25.9263784 382.24529849 -25.67158839 380.67158839 -23 378 C-20.41935871 377.85502015 -17.95056116 377.81322455 -15.375 377.875 C-14.66859375 377.88402344 -13.9621875 377.89304687 -13.234375 377.90234375 C-11.48943902 377.92592397 -9.74467705 377.96179539 -8 378 C-8.309375 377.29875 -8.61875 376.5975 -8.9375 375.875 C-10.79905572 370.83784924 -11.12520187 365.95629516 -11.12863445 360.61939812 C-11.13347112 358.71369508 -11.13347112 358.71369508 -11.1384055 356.76949298 C-11.13693451 355.36715172 -11.1353668 353.96481055 -11.13371277 352.56246948 C-11.13558155 351.06696361 -11.13788252 349.57145822 -11.14057809 348.0759536 C-11.14669381 343.96985684 -11.14656277 339.86378045 -11.14538372 335.75768018 C-11.14517966 331.3282167 -11.1506988 326.89875975 -11.15544128 322.46929932 C-11.16374629 313.7938982 -11.16649603 305.11850388 -11.16705366 296.44309913 C-11.16752873 289.39426649 -11.16958302 282.34543609 -11.17275429 275.29660416 C-11.18155912 255.32012928 -11.18617373 235.34365978 -11.18542381 215.36718296 C-11.18538386 214.29033387 -11.1853439 213.21348478 -11.18530273 212.10400391 C-11.18524141 210.48676346 -11.18524141 210.48676346 -11.18517885 208.83685149 C-11.18477205 191.3479719 -11.19435068 173.85911381 -11.2084411 156.37024044 C-11.22278871 138.42091266 -11.22971223 120.47159539 -11.22884732 102.52226174 C-11.22851488 92.4416495 -11.231283 82.36105981 -11.24202538 72.28045273 C-11.25110897 63.70144576 -11.25332319 55.12247158 -11.24651595 46.5434619 C-11.24324036 42.16427548 -11.2432314 37.78515204 -11.2518692 33.40597153 C-11.25968908 29.40041408 -11.25834939 25.39497005 -11.24958507 21.38941552 C-11.24804011 19.93731208 -11.24990339 18.48520036 -11.25544515 17.03310667 C-11.26246097 15.06505561 -11.25604221 13.09697017 -11.24888897 11.1289196 C-11.24910634 10.03402084 -11.24932371 8.93912208 -11.24954766 7.81104457 C-10.99917821 4.99074286 -10.55134991 3.3483853 -9 1 C-5.88122044 -0.55938978 -3.42744229 -0.3607834 0 0 Z " fill="#2D4355" transform="translate(71,73)"/>
<path d="M0 0 C1.61107635 -0.00856522 1.61107635 -0.00856522 3.25469971 -0.01730347 C4.44328583 -0.01842133 5.63187195 -0.01953918 6.85647583 -0.02069092 C8.10026001 -0.02565582 9.34404419 -0.03062073 10.6255188 -0.03573608 C14.0470552 -0.04787022 17.46853027 -0.05530955 20.89008093 -0.05974674 C23.0260288 -0.0626739 25.16197126 -0.06677803 27.29791641 -0.07125092 C33.97585618 -0.08493221 40.65378363 -0.09459564 47.33173645 -0.09845281 C55.04956267 -0.10293461 62.76721189 -0.12048538 70.48498428 -0.1494534 C76.44424139 -0.17104714 82.40344862 -0.18115585 88.36274445 -0.18249393 C91.92485035 -0.18354367 95.48679 -0.18948697 99.04885483 -0.20731354 C103.02124534 -0.22680598 106.99341352 -0.22251445 110.96585083 -0.21600342 C112.15038849 -0.2252182 113.33492615 -0.23443298 114.55535889 -0.243927 C116.17489471 -0.23557327 116.17489471 -0.23557327 117.82714844 -0.22705078 C118.76700026 -0.22851734 119.70685207 -0.2299839 120.67518425 -0.2314949 C123.48124988 0.20973732 124.32994175 0.92121386 126.04055786 3.14044189 C126.91555786 5.01544189 126.91555786 5.01544189 127.04055786 7.14044189 C125.89268845 9.38400483 124.83098117 11.35001859 123.04055786 13.14044189 C121.44444805 13.23377895 119.84422358 13.25789562 118.24539185 13.25396729 C117.22440903 13.25389175 116.20342621 13.25381622 115.15150452 13.2537384 C114.04110306 13.24857712 112.9307016 13.24341583 111.78665161 13.23809814 C110.65606827 13.2366832 109.52548492 13.23526825 108.36064148 13.23381042 C104.73308721 13.22819208 101.10559362 13.21563647 97.47805786 13.20294189 C95.02558479 13.19792926 92.57311076 13.19336594 90.12063599 13.18927002 C84.09392241 13.1782167 78.06724447 13.16146073 72.04055786 13.14044189 C72.04055786 14.79044189 72.04055786 16.44044189 72.04055786 18.14044189 C73.3268811 18.109021 73.3268811 18.109021 74.63919067 18.07696533 C77.82974259 18.00867663 81.01992132 17.95858676 84.21096802 17.92071533 C85.59032466 17.90063547 86.96959655 17.87336524 88.34866333 17.83868408 C90.33412765 17.79001372 92.3202204 17.76957772 94.30618286 17.74981689 C95.500177 17.72886963 96.69417114 17.70792236 97.92434692 17.68634033 C101.04055786 18.14044189 101.04055786 18.14044189 103.43411255 19.97344971 C105.04055786 22.14044189 105.04055786 22.14044189 105.47805786 25.20294189 C105.04055786 28.14044189 105.04055786 28.14044189 104.00772095 29.79977417 C100.93690259 31.89260881 97.71731776 31.55727885 94.12844849 31.52862549 C92.92070015 31.53651093 92.92070015 31.53651093 91.68855286 31.54455566 C89.0244411 31.55777014 86.36092581 31.54901262 83.69680786 31.53887939 C81.84740077 31.54089972 79.99799445 31.54381081 78.14859009 31.5475769 C74.27151916 31.55200221 70.39465549 31.54556256 66.51760864 31.53155518 C61.54393263 31.51446316 56.57074224 31.52430323 51.59708405 31.54227257 C47.77784556 31.55310483 43.95872252 31.54966664 40.13948059 31.54188919 C38.30542443 31.53988564 36.47135783 31.54235189 34.63731384 31.54932785 C32.0754819 31.5569332 29.5144402 31.54535141 26.95266724 31.52862549 C25.81174873 31.53773453 25.81174873 31.53773453 24.64778137 31.54702759 C19.54644518 31.48521595 19.54644518 31.48521595 17.07339478 29.79977417 C15.4136801 27.13331435 15.60357827 25.19929902 16.04055786 22.14044189 C18.18747897 19.31648342 19.33863662 18.25264312 22.88137817 17.68634033 C24.48384399 17.71776123 24.48384399 17.71776123 26.11868286 17.74981689 C27.27883911 17.76270752 28.43899536 17.77559814 29.63430786 17.78887939 C30.84087036 17.82239502 32.04743286 17.85591064 33.29055786 17.89044189 C35.12360474 17.91751221 35.12360474 17.91751221 36.99368286 17.94512939 C40.01009864 17.99226089 43.02493277 18.05804777 46.04055786 18.14044189 C46.04055786 16.49044189 46.04055786 14.84044189 46.04055786 13.14044189 C45.40828781 13.14710373 44.77601776 13.15376556 44.12458801 13.16062927 C37.55504431 13.22690336 30.98559527 13.2722095 24.415802 13.30523682 C21.96263778 13.32034071 19.50950063 13.3408251 17.056427 13.36676025 C13.53414231 13.40307247 10.01221405 13.42015226 6.48977661 13.43341064 C4.83965828 13.45663643 4.83965828 13.45663643 3.15620422 13.48033142 C1.62495659 13.48067131 1.62495659 13.48067131 0.06277466 13.48101807 C-0.83657303 13.4876799 -1.73592072 13.49434174 -2.66252136 13.50120544 C-5.42563598 13.06721963 -6.2659369 12.31860906 -7.95944214 10.14044189 C-8.83444214 8.26544189 -8.83444214 8.26544189 -8.95944214 6.14044189 C-6.359011 1.05778104 -5.6011484 0.01774206 0 0 Z " fill="#0BCEB1" transform="translate(196.95944213867188,474.85955810546875)"/>
<path d="M0 0 C1.63684753 -0.00934319 1.63684753 -0.00934319 3.3067627 -0.01887512 C4.48492554 -0.00966537 5.66308838 -0.00045563 6.87695312 0.0090332 C8.08637573 0.0085347 9.29579834 0.00803619 10.54187012 0.00752258 C13.10068402 0.00986465 15.65950015 0.01960086 18.21826172 0.03613281 C22.14246143 0.05971984 26.06598184 0.0566951 29.99023438 0.05004883 C32.47331136 0.05562556 34.95638547 0.0627354 37.43945312 0.0715332 C39.20669739 0.07016609 39.20669739 0.07016609 41.00964355 0.06877136 C42.64649109 0.08306938 42.64649109 0.08306938 44.31640625 0.09765625 C45.27776489 0.10226364 46.23912354 0.10687103 47.22961426 0.11161804 C49.65820312 0.37231445 49.65820312 0.37231445 52.65820312 2.37231445 C53.6377406 5.31092688 53.79567677 7.25118319 53.81933594 10.31518555 C53.82894348 11.31987885 53.83855103 12.32457214 53.84844971 13.35971069 C53.85269958 14.44410431 53.85694946 15.52849792 53.86132812 16.64575195 C53.8670282 17.76164703 53.87272827 18.87754211 53.87860107 20.0272522 C53.88805146 22.38933361 53.89458521 24.75142821 53.8984375 27.11352539 C53.90814602 30.72606396 53.93917095 34.33803436 53.97070312 37.95043945 C53.97723294 40.24470691 53.98248349 42.53897843 53.98632812 44.83325195 C53.99867493 45.91359711 54.01102173 46.99394226 54.02374268 48.10702515 C53.99557063 57.59750555 53.99557063 57.59750555 50.65820312 61.37231445 C48.28320312 62.37231445 48.28320312 62.37231445 45.65820312 62.37231445 C41.0611882 60.1782846 41.0611882 60.1782846 39.65820312 57.37231445 C39.32820313 46.48231445 38.99820313 35.59231445 38.65820312 24.37231445 C19.84820312 43.18231445 1.03820312 61.99231445 -18.34179688 81.37231445 C-25.34179688 75.37231445 -25.34179688 75.37231445 -28.34179688 71.37231445 C-9.53179687 52.56231445 9.27820313 33.75231445 28.65820312 14.37231445 C17.76820313 14.04231445 6.87820313 13.71231445 -4.34179688 13.37231445 C-5.66179687 12.38231445 -6.98179687 11.39231445 -8.34179688 10.37231445 C-9.08484797 4.42790567 -9.08484797 4.42790567 -7.14831543 1.67683411 C-4.68086636 -0.1049554 -3.02971994 -0.00198363 0 0 Z " fill="#2D4255" transform="translate(398.341796875,72.627685546875)"/>
<path d="M0 0 C7.31324251 5.29327869 12.14992271 11.07210411 14 20 C14.95812065 28.95293064 12.85113644 36.62507092 7.375 43.8125 C1.95480853 49.66132906 -5.85766585 52.71916379 -13.6875 53.25 C-21.64601034 53.13143746 -28.81580733 49.92780831 -34.59375 44.50390625 C-40.07806165 38.68354609 -42.09102336 32.48675616 -42.4375 24.5625 C-42.16183343 16.66740934 -39.71024976 10.46785449 -34.375 4.625 C-25.26209371 -3.68085924 -10.98255953 -6.60721388 0 0 Z M-25.8125 15.6875 C-28.38685095 19.58580287 -29.43629502 22.3403692 -29 27 C-27.66211811 31.5421916 -25.7354923 34.37643044 -22.125 37.4375 C-17.30936603 39.84531699 -14.01019726 40.5391843 -8.875 38.875 C-4.20255288 36.91328556 -2.15139944 34.02865616 0.3125 29.6875 C1.27840799 25.91167786 1.19683261 22.67399778 0 19 C-2.25054579 15.35354606 -4.78422913 12.69906825 -8.5 10.5625 C-15.79848047 8.92034189 -20.42245223 10.53700991 -25.8125 15.6875 Z " fill="#0ACEB2" transform="translate(139,155)"/>
<path d="M0 0 C6.18070658 5.80986418 9.12000069 13.80651796 9.4375 22.125 C8.98099863 31.13594017 5.97911162 37.168789 -0.4375 43.4375 C-6.04333624 48.0546197 -11.63190022 49.61234645 -18.75 50.375 C-27.97163785 49.38696737 -35.75331176 46.42348658 -41.78515625 39.1484375 C-46.52395012 32.21294327 -47.97605482 24.83328756 -46.84375 16.546875 C-44.86649991 8.06551278 -40.44456532 1.84120283 -33.25 -3 C-22.34254842 -9.37596335 -10.10746009 -6.21997544 0 0 Z M-31.6875 13.625 C-33.80696682 18.20304834 -34.0490206 22.03638716 -33.25 27 C-31.06152692 31.45800073 -28.77717302 33.95199316 -24.25 36 C-19.66078593 37.42775549 -16.47563193 36.88869661 -12.1484375 35.08984375 C-8.09646248 32.76370994 -5.72530387 29.42591161 -4.25 25 C-3.78821426 20.19742836 -4.22024056 16.72105742 -6.8515625 12.578125 C-10.17294324 8.82997467 -14.47396009 7.2899657 -19.3125 6.5 C-24.68731897 7.4148628 -28.07186867 9.73124318 -31.6875 13.625 Z " fill="#0ACEB2" transform="translate(296.25,94)"/>
<path d="M0 0 C7.49346304 4.26059749 11.66202364 9.89496876 14.02734375 18.15234375 C15.81468244 27.02995164 14.22953765 34.68740954 9.33203125 42.3203125 C5.47512588 47.28810647 0.43037867 50.56456261 -5.5 52.5 C-13.93802024 53.2646678 -22.41319976 53.76745054 -29.5 48.5 C-30.551875 47.778125 -31.60375 47.05625 -32.6875 46.3125 C-38.59144792 40.40855208 -41.58247679 33.68004844 -41.8125 25.375 C-41.73315552 17.94637352 -39.3663922 12.32625105 -35.3125 6.1875 C-25.62624135 -3.06825827 -12.32979662 -5.69423649 0 0 Z M-25.8125 16.75 C-27.98297281 20.28706681 -28.80210809 23.39888271 -28.5 27.5 C-27.25025784 32.03031533 -25.22115998 35.41328111 -21.25 38 C-16.66936307 40.19244161 -12.40307607 40.44408978 -7.578125 38.875 C-3.25258364 36.80465542 -0.97322611 34.03073424 0.8984375 29.64453125 C1.92548696 25.98316663 1.85738663 23.06047487 0.5 19.5 C-2.12527851 15.4135573 -4.94861312 12.34492164 -9.5 10.5 C-16.93556749 9.78042895 -20.39074876 11.47478258 -25.8125 16.75 Z " fill="#2C4255" transform="translate(205.5,75.5)"/>
<path d="M0 0 C6.7028411 5.65644765 10.74601126 10.67493697 11.609375 19.51171875 C11.90974425 29.94676907 10.37020745 36.65690094 3.25 44.3515625 C-3.34787845 50.24392523 -10.76972137 51.4765606 -19.36328125 51.390625 C-27.05628721 50.75550474 -33.66683998 46.89673361 -38.72265625 41.11328125 C-44.38798988 33.46866651 -44.93114859 25.37173079 -43.72265625 16.11328125 C-41.51866987 8.27805693 -36.44821214 2.55790376 -29.72265625 -1.88671875 C-19.85859999 -6.35942823 -9.04511147 -6.26798973 0 0 Z M-25.97265625 12.48828125 C-29.8258907 16.16636868 -30.57525732 17.61472545 -31.09765625 22.92578125 C-30.95512621 27.42805377 -29.66319438 30.69706783 -26.72265625 34.11328125 C-23.40518371 36.89700202 -20.50580648 38.00140265 -16.22265625 38.61328125 C-11.05343755 37.87482144 -7.42774222 35.98887581 -3.84765625 32.05078125 C-1.46275637 27.94345368 -1.07200607 23.75575822 -1.72265625 19.11328125 C-3.4151061 15.78220961 -3.4151061 15.78220961 -5.72265625 13.11328125 C-6.13515625 12.53578125 -6.54765625 11.95828125 -6.97265625 11.36328125 C-13.39914464 6.7729324 -19.96867219 7.8040135 -25.97265625 12.48828125 Z " fill="#2C4255" transform="translate(177.72265625,247.88671875)"/>
<path d="M0 0 C5.74269047 4.68200697 9.17680435 10.18424235 10.65625 17.45703125 C11.52533018 27.13390479 9.83244659 34.2412101 3.59375 41.76953125 C-2.57235685 48.16438077 -8.51630519 50.57273788 -17.34375 50.95703125 C-25.09533348 50.64856002 -31.4841324 48.52768495 -37.21875 43.20703125 C-43.31550554 36.52073095 -45.74864598 29.11495816 -45.6171875 20.17578125 C-44.78767124 11.92801957 -40.62791677 4.781971 -34.34375 -0.54296875 C-23.12573601 -7.18141614 -11.01417991 -7.25100178 0 0 Z M-26.34375 10.45703125 C-29.31972086 13.43300211 -31.29813064 16.3696101 -32.34375 20.45703125 C-32.34375 26.49486392 -31.14300613 29.69237596 -26.94140625 34.04296875 C-23.42597217 37.15442874 -20.5464597 37.64292809 -15.96875 37.45703125 C-10.82023937 36.72644126 -7.6197125 34.42901978 -4.34375 30.45703125 C-2.00076513 25.86868587 -2.10348997 22.41807136 -3.34375 17.45703125 C-6.30080572 11.96535634 -9.24096257 9.4223429 -15.15625 7.58203125 C-19.4278324 7.41451821 -22.6170938 8.38666669 -26.34375 10.45703125 Z " fill="#2C4255" transform="translate(273.34375,245.54296875)"/>
<path d="M0 0 C5.0251105 3.79132378 9.11330833 9.65281626 10.21484375 15.90234375 C11.01758922 26.46963244 9.83112516 33.37156041 4.08984375 42.15234375 C-2.67369175 48.62181249 -10.85040786 51.29224491 -20.05859375 51.18359375 C-27.30254979 50.43636619 -33.77639024 47.14407562 -38.78515625 41.90234375 C-44.38399906 33.27586584 -45.59156254 26.18402398 -44.78515625 15.90234375 C-42.7289232 8.1467691 -38.22485688 2.12937098 -31.28515625 -1.91015625 C-21.01815505 -7.49554951 -9.7134534 -5.97260483 0 0 Z M-29.1875 13.4453125 C-31.94518873 17.7339601 -32.73147026 21.89476543 -31.78515625 26.90234375 C-30.33505086 31.36141781 -28.09874506 34.0665801 -24.03515625 36.40234375 C-19.72717586 38.2600602 -16.23630013 38.33076466 -11.78515625 36.90234375 C-6.92096589 34.42435998 -4.57644978 32.07719173 -2.78515625 26.90234375 C-2.20108224 21.64567765 -2.49300998 17.9394182 -5.3828125 13.4453125 C-8.56221125 9.94708825 -12.72635414 8.31410417 -17.28515625 7.40234375 C-21.84395836 8.31410417 -26.00810125 9.94708825 -29.1875 13.4453125 Z " fill="#0ACEB2" transform="translate(242.78515625,169.09765625)"/>
<path d="M0 0 C6.09097485 4.14296037 10.16733767 9.46909173 11.6015625 16.76953125 C12.57312155 25.80503041 12.1223343 33.32680852 6.6015625 40.76953125 C0.21373175 48.12559618 -6.32768234 51.1190932 -15.8984375 52.14453125 C-24.46095902 51.22711823 -32.07094814 48.6839939 -37.8671875 42.1015625 C-43.94108382 34.10308857 -44.36329046 25.56024971 -43.3984375 15.76953125 C-41.06992702 7.58183859 -35.77414532 1.97208059 -28.5625 -2.32421875 C-19.01932146 -6.67300897 -8.85131236 -4.98616145 0 0 Z M-28.8359375 15.45703125 C-30.85504473 19.73753857 -31.22544235 23.11658479 -30.3984375 27.76953125 C-28.19520948 32.09438625 -25.64153498 35.37125876 -21.3984375 37.76953125 C-16.42165888 38.58648988 -12.58371252 38.34021922 -8.0234375 36.14453125 C-3.79496027 32.31876613 -1.62860636 29.58211099 -0.8984375 23.83203125 C-1.15893202 19.43723662 -2.52615587 16.10644667 -5.3984375 12.76953125 C-8.71591004 9.98581048 -11.61528727 8.88140985 -15.8984375 8.26953125 C-21.61235155 9.08580469 -24.97954888 11.20511559 -28.8359375 15.45703125 Z " fill="#0ACEB2" transform="translate(363.3984375,153.23046875)"/>
<path d="M0 0 C8.29763114 5.06699606 13.03344744 10.96097572 15.46484375 20.3125 C16.79587396 27.91446633 15.30342192 35.61936001 10.98046875 42.01171875 C5.20488221 48.78481592 -0.17529609 52.79540231 -9.03125 54.0390625 C-17.50750923 54.55828205 -24.4403543 52.46993502 -31.09375 47.1640625 C-36.66087857 41.99998397 -39.63352574 36.64698768 -40.41015625 29.08203125 C-40.76632331 19.21275702 -38.48598779 11.99101412 -31.80859375 4.66796875 C-23.52305796 -2.59838952 -10.05074978 -4.55690774 0 0 Z M-23.09375 15.1640625 C-25.91185618 18.51263572 -26.99790138 21.38358091 -27.53125 25.7265625 C-26.87394761 30.89108131 -25.4059695 33.97986441 -21.53125 37.4765625 C-17.05479787 40.57564474 -13.45703758 40.80620992 -8.09375 40.1640625 C-3.27668927 37.8009761 -0.4568364 34.98112323 1.90625 30.1640625 C2.74553774 25.39382505 2.39480428 22.10627433 0.15625 17.7890625 C-3.60143268 13.40509938 -6.50001089 11.41346049 -12.34375 10.8515625 C-16.84922234 11.22701853 -19.64264687 12.25966878 -23.09375 15.1640625 Z " fill="#0ACEB2" transform="translate(436.09375,336.8359375)"/>
<path d="M0 0 C6.94211432 4.35583644 11.60851657 9.21302101 13.9921875 17.25 C15.02583908 25.75495774 14.97158857 34.00857012 9.9921875 41.25 C5.28412937 47.22148639 -0.29341072 50.87017509 -7.5703125 53 C-15.74069739 53.83798819 -22.86481004 53.12097588 -29.73046875 48.36328125 C-36.43921734 42.70184835 -40.41260787 37.7018211 -41.375 28.88671875 C-41.70734224 19.7864062 -40.17070588 13.16005997 -34.6328125 5.9375 C-25.51940721 -3.39289113 -11.77652245 -6.21179206 0 0 Z M-25.0078125 15.25 C-27.77421361 19.14025156 -28.54641898 22.60606552 -28.3671875 27.29296875 C-27.55836552 31.6975319 -24.40341208 35.44493948 -21.0078125 38.25 C-16.59996071 39.71928393 -12.59854901 40.09637473 -8.0078125 39.25 C-3.80957296 36.69960367 -0.57719104 33.95813562 0.9921875 29.25 C1.52714482 24.6458591 1.42583064 21.16932346 -0.5703125 16.9375 C-4.40664376 12.70769886 -7.78763177 10.6133023 -13.4453125 9.6875 C-18.17025508 10.43354357 -21.3823325 12.15527721 -25.0078125 15.25 Z " fill="#0ACEB2" transform="translate(434.0078125,215.75)"/>
<path d="M0 0 C5.69753283 5.09891775 9.62385796 10.56576214 10.27734375 18.26953125 C10.55775394 28.80173799 9.17215543 35.45793076 1.97265625 43.23828125 C-4.67954487 49.17915789 -12.06005486 50.31252982 -20.7109375 50.20703125 C-28.90245505 49.69141316 -34.57680598 46.0938662 -40 40 C-45.70163602 32.39321684 -46.20621485 24.24100137 -45 15 C-42.78316406 7.11909519 -37.62491682 1.62836655 -31 -3 C-20.30041834 -7.8796577 -9.62728119 -6.4447089 0 0 Z M-30.375 14.6875 C-32.47238534 18.96293935 -32.83842582 22.32158392 -32 27 C-29.34641502 32.11762818 -26.46882174 35.17705942 -21 37 C-16.04944539 37.47601487 -12.70878054 36.97565305 -8.578125 34.32421875 C-5.22615498 31.51155083 -3.42598813 28.27047282 -2.62109375 23.98046875 C-2.31564134 18.82719102 -3.68912338 15.83364661 -7 12 C-11.15531456 8.32786155 -14.41873732 7.34464222 -19.82421875 7.6171875 C-24.61173611 8.45951551 -27.26023336 11.16289565 -30.375 14.6875 Z " fill="#2C4255" transform="translate(365,383)"/>
<path d="M0 0 C7.21338918 5.33275558 11.62329066 12.06677978 13 20.9921875 C13.65884127 29.24873027 11.34327556 36.16906714 6.1875 42.6171875 C-0.16089853 49.31406614 -5.95425131 51.76694785 -15.125 52.1171875 C-23.22232995 51.92534553 -28.84766766 50.21337319 -34.87109375 44.75 C-41.89675876 37.2423247 -43.35855615 31.14560986 -43.08984375 20.98828125 C-42.40538279 12.66870647 -38.9093649 7.26336012 -32.8125 1.6171875 C-23.356802 -5.23276491 -10.09697884 -5.87883307 0 0 Z M-27.125 15.1171875 C-29.95647449 19.31196452 -30.15013378 22.63708922 -29.8125 27.6171875 C-27.82405883 32.95458223 -24.90582352 36.07052574 -19.8125 38.6171875 C-15.19358804 39.18069476 -11.71408688 39.0594754 -7.5 36.9921875 C-3.97539565 33.87742086 -1.27201551 31.22892361 -0.4296875 26.44140625 C-0.15714222 21.03592482 -1.14036155 17.77250206 -4.8125 13.6171875 C-8.77548159 10.19461249 -11.73586718 9.0035444 -16.859375 9.296875 C-21.32683894 10.02953909 -24.09245748 11.83876315 -27.125 15.1171875 Z " fill="#2C4255" transform="translate(374.8125,268.3828125)"/>
<path d="M0 0 C5.46404118 4.10546833 10.7918321 9.73034975 12.15234375 16.6171875 C13.09714266 25.91655654 12.90953991 33.95483222 7.15234375 41.6171875 C1.90797485 47.39915907 -3.44246014 51.16962762 -11.26953125 51.96484375 C-20.7621625 52.33654317 -27.75908271 51.23262991 -34.90625 44.75 C-42.07337921 37.09115507 -43.50006071 30.73742573 -43.25390625 20.34765625 C-42.44027708 12.87634989 -39.40948425 7.76745845 -33.97265625 2.6796875 C-24.14161792 -5.02522979 -11.09263149 -6.53376297 0 0 Z M-28.22265625 16.3046875 C-30.32004159 20.58012685 -30.68608207 23.93877142 -29.84765625 28.6171875 C-27.19407127 33.73481568 -24.31647799 36.79424692 -18.84765625 38.6171875 C-13.59871458 39.01333404 -10.29423531 38.48276067 -5.84765625 35.6171875 C-1.64859984 30.96417905 -0.4814597 28.08418208 -0.5703125 21.93359375 C-1.15630124 17.03934978 -3.98542604 14.37915839 -7.53515625 11.2421875 C-15.85317555 7.16164973 -22.23023537 9.52379018 -28.22265625 16.3046875 Z " fill="#2C4355" transform="translate(237.84765625,387.3828125)"/>
<path d="M0 0 C6.30998951 4.48009255 11.28853512 9.27588876 13 17 C14.05839961 26.2609966 13.77312911 34.3960406 8 42 C2.50176065 47.99348517 -2.26447412 51.50013893 -10.515625 52.37109375 C-20.02206469 52.54014132 -26.87538442 51.6481333 -34.05859375 45.1328125 C-41.22572296 37.47396757 -42.65240446 31.12023823 -42.40625 20.73046875 C-41.59614275 13.29150318 -38.5666119 8.16576 -33.1875 3.0625 C-24.05488434 -4.13495175 -10.317327 -6.30033493 0 0 Z M-26.3125 15.5 C-29.19216045 19.76616363 -29.67871919 23.96218291 -29 29 C-26.60160527 33.79678945 -23.81721665 36.63683712 -19 39 C-14.31355821 39.82454452 -10.97133409 39.47650352 -6.6875 37.375 C-3.16289565 34.26023336 -0.45951551 31.61173611 0.3828125 26.82421875 C0.65577548 21.41045291 -0.39016251 18.21147707 -4 14 C-7.30259924 11.09771582 -9.88157448 10.08440947 -14.3125 9.75 C-19.6375112 10.11101771 -22.69141877 11.58531758 -26.3125 15.5 Z " fill="#0ACEB2" transform="translate(179,335)"/>
<path d="M0 0 C5.46404118 4.10546833 10.7918321 9.73034975 12.15234375 16.6171875 C13.09714266 25.91655654 12.90953991 33.95483222 7.15234375 41.6171875 C1.90797485 47.39915907 -3.44246014 51.16962762 -11.26953125 51.96484375 C-20.7621625 52.33654317 -27.75908271 51.23262991 -34.90625 44.75 C-42.07337921 37.09115507 -43.50006071 30.73742573 -43.25390625 20.34765625 C-42.44027708 12.87634989 -39.40948425 7.76745845 -33.97265625 2.6796875 C-24.14161792 -5.02522979 -11.09263149 -6.53376297 0 0 Z M-28.22265625 16.3046875 C-30.32415977 20.58852159 -30.67220077 23.93074571 -29.84765625 28.6171875 C-27.48456985 33.43424823 -24.66471698 36.2541011 -19.84765625 38.6171875 C-15.16121446 39.44173202 -11.81899034 39.09369102 -7.53515625 36.9921875 C-4.0105519 33.87742086 -1.30717176 31.22892361 -0.46484375 26.44140625 C-0.19229847 21.03592482 -1.1755178 17.77250206 -4.84765625 13.6171875 C-9.00297081 9.94504905 -12.26639357 8.96182972 -17.671875 9.234375 C-22.45939236 10.07670301 -25.10788961 12.78008315 -28.22265625 16.3046875 Z " fill="#0ACEB2" transform="translate(301.84765625,329.3828125)"/>
<path d="M0 0 C1.10865985 0.91122727 2.21172219 1.82926659 3.3125 2.75 C4.23482422 3.51570313 4.23482422 3.51570313 5.17578125 4.296875 C7.05932329 6.05538534 8.51573656 7.89919636 10 10 C5.1465434 15.00555464 0.26973841 19.98745851 -4.62402344 24.95361328 C-6.28607537 26.64584304 -7.9427031 28.34341805 -9.59375 30.04638672 C-11.96770693 32.49310314 -14.36049533 34.91994505 -16.7578125 37.34375 C-17.49242706 38.10933228 -18.22704163 38.87491455 -18.98391724 39.66369629 C-24.17561284 44.85875173 -24.17561284 44.85875173 -28.36279297 45.57617188 C-31 45 -31 45 -33.4375 43.4375 C-35.20346785 40.68259015 -35.29767821 39.16841133 -34.74075317 35.97579956 C-33.16627032 31.77620565 -29.64124838 28.92212239 -26.46484375 25.87890625 C-25.71159317 25.13414536 -24.95834259 24.38938446 -24.18226624 23.62205505 C-21.78109371 21.2543788 -19.35988144 18.90845349 -16.9375 16.5625 C-15.30266866 14.95777248 -13.66918841 13.35166728 -12.03710938 11.74414062 C-8.04026017 7.81332594 -4.02676542 3.90014991 0 0 Z " fill="#2C4355" transform="translate(132,382)"/>
<path d="M0 0 C3.72070823 1.24023608 4.62521091 2.95730148 7 6 C7.99 6.66 8.98 7.32 10 8 C8.6238464 11.09179136 7.04841555 13.19638753 4.65185547 15.57519531 C3.97130096 16.25559875 3.29074646 16.9360022 2.58956909 17.63702393 C1.85618317 18.36008728 1.12279724 19.08315063 0.3671875 19.828125 C-0.38464813 20.57713074 -1.13648376 21.32613647 -1.91110229 22.09783936 C-4.31107901 24.4866302 -6.71792009 26.86836897 -9.125 29.25 C-10.75436352 30.86933169 -12.38327534 32.48911802 -14.01171875 34.109375 C-18.00258806 38.07820505 -21.99911415 42.04126899 -26 46 C-27.10865985 45.08877273 -28.21172219 44.17073341 -29.3125 43.25 C-30.23482422 42.48429687 -30.23482422 42.48429687 -31.17578125 41.703125 C-33 40 -33 40 -36 36 C-24.12 24.12 -12.24 12.24 0 0 Z " fill="#2D4355" transform="translate(223,291)"/>
<path d="M0 0 C1.27487492 1.43423429 2.54766303 2.87437028 3.71875 4.39453125 C5.19899743 6.31060961 5.19899743 6.31060961 8 9 C-3.88 20.88 -15.76 32.76 -28 45 C-32.44995051 42.77502475 -34.60084691 40.55366005 -38 37 C-36.64385133 33.97662686 -35.12034888 31.86442659 -32.79125977 29.51660156 C-32.14040909 28.85621887 -31.48955841 28.19583618 -30.81898499 27.51544189 C-30.116884 26.81425232 -29.41478302 26.11306274 -28.69140625 25.390625 C-27.6076194 24.30041046 -27.6076194 24.30041046 -26.50193787 23.18817139 C-24.97544315 21.65594033 -23.44632963 20.12631445 -21.91479492 18.59912109 C-19.56604748 16.25354269 -17.23095195 13.89493704 -14.89648438 11.53515625 C-13.41226923 10.04866907 -11.92726967 8.5629646 -10.44140625 7.078125 C-9.7413295 6.3688385 -9.04125275 5.659552 -8.31996155 4.92877197 C-7.66595871 4.28099792 -7.01195587 3.63322388 -6.33813477 2.96582031 C-5.76458755 2.39164368 -5.19104034 1.81746704 -4.60011292 1.22589111 C-3 0 -3 0 0 0 Z " fill="#2D4355" transform="translate(317,200)"/>
<path d="M0 0 C0.67671753 -0.00287018 1.35343506 -0.00574036 2.05065918 -0.00869751 C3.47958209 -0.01073647 4.90853302 -0.00521819 6.33740234 0.00732422 C8.52374725 0.02338239 10.70824379 0.00747216 12.89453125 -0.01171875 C14.28385824 -0.00973629 15.67318409 -0.00589254 17.0625 0 C18.32642578 0.00338379 19.59035156 0.00676758 20.89257812 0.01025391 C24.03125 0.3984375 24.03125 0.3984375 25.94335938 1.70458984 C27.78641739 4.57423448 27.38426048 7.10367298 27.03125 10.3984375 C25.94335938 12.09228516 25.94335938 12.09228516 24.03125 13.3984375 C20.89257812 13.78662109 20.89257812 13.78662109 17.0625 13.796875 C16.38578247 13.79974518 15.70906494 13.80261536 15.01184082 13.80557251 C13.58291791 13.80761147 12.15396698 13.80209319 10.72509766 13.78955078 C8.53875275 13.77349261 6.35425621 13.78940284 4.16796875 13.80859375 C2.77864176 13.80661129 1.38931591 13.80276754 0 13.796875 C-1.26392578 13.79349121 -2.52785156 13.79010742 -3.83007812 13.78662109 C-6.96875 13.3984375 -6.96875 13.3984375 -8.88085938 12.09228516 C-10.72391739 9.22264052 -10.32176048 6.69320202 -9.96875 3.3984375 C-7.48511693 -0.46858365 -4.29281131 0.01149274 0 0 Z " fill="#0ACEB1" transform="translate(338.96875,474.6015625)"/>
<path d="M0 0 C0.67671753 -0.00287018 1.35343506 -0.00574036 2.05065918 -0.00869751 C3.47958209 -0.01073647 4.90853302 -0.00521819 6.33740234 0.00732422 C8.52374725 0.02338239 10.70824379 0.00747216 12.89453125 -0.01171875 C14.28385824 -0.00973629 15.67318409 -0.00589254 17.0625 0 C18.32642578 0.00338379 19.59035156 0.00676758 20.89257812 0.01025391 C24.03125 0.3984375 24.03125 0.3984375 25.94335938 1.70458984 C27.78641739 4.57423448 27.38426048 7.10367298 27.03125 10.3984375 C25.94335938 12.09228516 25.94335938 12.09228516 24.03125 13.3984375 C20.89257812 13.78662109 20.89257812 13.78662109 17.0625 13.796875 C16.38578247 13.79974518 15.70906494 13.80261536 15.01184082 13.80557251 C13.58291791 13.80761147 12.15396698 13.80209319 10.72509766 13.78955078 C8.53875275 13.77349261 6.35425621 13.78940284 4.16796875 13.80859375 C2.77864176 13.80661129 1.38931591 13.80276754 0 13.796875 C-1.26392578 13.79349121 -2.52785156 13.79010742 -3.83007812 13.78662109 C-6.96875 13.3984375 -6.96875 13.3984375 -8.88085938 12.09228516 C-10.72391739 9.22264052 -10.32176048 6.69320202 -9.96875 3.3984375 C-7.48511693 -0.46858365 -4.29281131 0.01149274 0 0 Z " fill="#0ACEB1" transform="translate(155.96875,474.6015625)"/>
<path d="M0 0 C1.08667969 -0.01740234 1.08667969 -0.01740234 2.1953125 -0.03515625 C7.43885675 -0.00613294 7.43885675 -0.00613294 9.97265625 1.71484375 C11.62401242 4.38338509 11.43670311 6.31807822 11 9.375 C8.77310141 12.35314149 7.62655077 13.28165026 3.90625 13.8359375 C2.7821875 13.80757813 1.658125 13.77921875 0.5 13.75 C-0.6240625 13.73710937 -1.748125 13.72421875 -2.90625 13.7109375 C-5.83559106 13.39285249 -7.56773789 12.99268376 -10 11.375 C-11.39935013 8.57629973 -11.25265405 6.47001208 -11 3.375 C-8.49442755 -0.7399209 -4.30591861 -0.06895599 0 0 Z " fill="#2C4355" transform="translate(483,450.625)"/>
<path d="M0 0 C1.08667969 -0.01740234 1.08667969 -0.01740234 2.1953125 -0.03515625 C7.43495511 -0.00615454 7.43495511 -0.00615454 9.98046875 1.7109375 C11.57087064 4.30676587 11.30923001 6.40639191 11 9.375 C9 12.375 9 12.375 6 13.375 C3.8584021 13.54532265 1.71036073 13.64117837 -0.4375 13.6875 C-2.13712891 13.74357422 -2.13712891 13.74357422 -3.87109375 13.80078125 C-7 13.375 -7 13.375 -9.3828125 11.546875 C-11 9.375 -11 9.375 -11.4375 6.3125 C-11 3.375 -11 3.375 -9.97265625 1.71484375 C-6.87396211 -0.38981385 -3.61212482 -0.05784542 0 0 Z " fill="#2C4355" transform="translate(29,450.625)"/>
<path d="M0 0 C2.80915461 1.27688846 4.50106764 2.31099817 6.3125 4.8125 C7.25846855 7.82239992 7.44072275 9.85198036 7 13 C4.54367438 17.27876075 4.54367438 17.27876075 2 19 C-1.17479072 19.80948552 -3.81707281 19.7482469 -7 19 C-10.20879247 16.96994762 -11.62927537 15.57700553 -12.5078125 11.83984375 C-12.75962476 8.56081014 -12.73429862 6.08515802 -10.85546875 3.30859375 C-7.41175137 0.11929349 -4.55221788 -0.7748456 0 0 Z M-5 6 C-5.66 6.66 -6.32 7.32 -7 8 C-6.67958603 10.60280568 -6.67958603 10.60280568 -6 13 C-3.60280568 13.67958603 -3.60280568 13.67958603 -1 14 C-0.34 13.34 0.32 12.68 1 12 C0.67958603 9.39719432 0.67958603 9.39719432 0 7 C-2.39719432 6.32041397 -2.39719432 6.32041397 -5 6 Z " fill="#2C4355" transform="translate(15,106)"/>
<path d="M0 0 C3 1 3 1 5 4 C5.66 2.68 6.32 1.36 7 0 C8.32 0.33 9.64 0.66 11 1 C10.34 2.65 9.68 4.3 9 6 C10.65 6.33 12.3 6.66 14 7 C14 8.32 14 9.64 14 11 C11.03 10.505 11.03 10.505 8 10 C8.515625 10.598125 9.03125 11.19625 9.5625 11.8125 C10.036875 12.534375 10.51125 13.25625 11 14 C10.67 14.99 10.34 15.98 10 17 C7.13275314 16.42655063 6.1385485 16.1385485 4 14 C3.01 15.485 3.01 15.485 2 17 C0.68 16.67 -0.64 16.34 -2 16 C-1.01 14.35 -0.02 12.7 1 11 C-0.65 11 -2.3 11 -4 11 C-4 9.68 -4 8.36 -4 7 C-2.35 7 -0.7 7 1 7 C0.2575 6.071875 0.2575 6.071875 -0.5 5.125 C-2 3 -2 3 -2 1 C-1.34 0.67 -0.68 0.34 0 0 Z " fill="#0ACEB2" transform="translate(278,49)"/>
<path d="M0 0 C1.32 1.32 2.64 2.64 4 4 C4.66 2.68 5.32 1.36 6 0 C7.32 0.33 8.64 0.66 10 1 C9.34 2.65 8.68 4.3 8 6 C9.65 6.33 11.3 6.66 13 7 C13 8.32 13 9.64 13 11 C10.03 10.505 10.03 10.505 7 10 C7.495 10.61875 7.99 11.2375 8.5 11.875 C10 14 10 14 10 16 C8.1875 16.6875 8.1875 16.6875 6 17 C4.25 15.5625 4.25 15.5625 3 14 C2.01 15.485 2.01 15.485 1 17 C-0.32 16.34 -1.64 15.68 -3 15 C-2.01 13.68 -1.02 12.36 0 11 C-1.65 11 -3.3 11 -5 11 C-5 9.68 -5 8.36 -5 7 C-3.35 7 -1.7 7 0 7 C-0.99 5.35 -1.98 3.7 -3 2 C-2.01 1.34 -1.02 0.68 0 0 Z " fill="#0ACEB2" transform="translate(411,43)"/>
<path d="M0 0 C0.70125 0.00515625 1.4025 0.0103125 2.125 0.015625 C2.82625 0.01046875 3.5275 0.0053125 4.25 0 C6.125 0.265625 6.125 0.265625 8.125 2.265625 C8.80473856 9.4028799 8.80473856 9.4028799 6.5 12.328125 C3.25221302 13.61014618 1.43203161 13.32106062 -1.875 12.265625 C-3.8125 10.578125 -3.8125 10.578125 -4.875 8.265625 C-4.41660363 0.62568551 -4.41660363 0.62568551 0 0 Z " fill="#2C4356" transform="translate(503.875,450.734375)"/>
<path d="M0 0 C2.91289646 0.08473881 3.77703881 0.15009119 6.125 2 C7.40702118 5.24778698 7.11793562 7.06796839 6.0625 10.375 C4.375 12.3125 4.375 12.3125 2.0625 13.375 C-1.61043796 13.15462372 -3.30716546 13.00533454 -5.9375 10.375 C-6.203125 8.5 -6.203125 8.5 -6.1875 6.375 C-6.19265625 5.67375 -6.1978125 4.9725 -6.203125 4.25 C-5.64141538 0.2849909 -3.70326965 0.35269235 0 0 Z " fill="#2D4356" transform="translate(5.9375,450.625)"/>
<path d="M0 0 C0.99 0 1.98 0 3 0 C3.66 0.99 4.32 1.98 5 3 C5.33 2.01 5.66 1.02 6 0 C7.32 0.33 8.64 0.66 10 1 C9.34 2.32 8.68 3.64 8 5 C9.32 5 10.64 5 12 5 C12 6.32 12 7.64 12 9 C11.01 9.33 10.02 9.66 9 10 C9.33 11.32 9.66 12.64 10 14 C9.01 14.33 8.02 14.66 7 15 C6.34 14.01 5.68 13.02 5 12 C4.01 13.485 4.01 13.485 3 15 C1.68 14.34 0.36 13.68 -1 13 C-0.34 11.68 0.32 10.36 1 9 C-0.32 9 -1.64 9 -3 9 C-3 7.68 -3 6.36 -3 5 C-1.68 5 -0.36 5 1 5 C0.34 3.68 -0.32 2.36 -1 1 C-0.67 0.67 -0.34 0.34 0 0 Z " fill="#0ACEB2" transform="translate(489,8)"/>
<path d="M0 0 C2 2 2 2 2.4375 4.875 C2 8 2 8 -0.125 10.4375 C-3 12 -3 12 -6.1875 11.9375 C-9 11 -9 11 -11 8 C-11.54640069 2.75455334 -11.54640069 2.75455334 -9.6875 0.1875 C-5.90886426 -2.47153996 -3.94207802 -1.92049955 0 0 Z M-5 2 C-5.66 3.32 -6.32 4.64 -7 6 C-5.515 6.99 -5.515 6.99 -4 8 C-3.34 6.68 -2.68 5.36 -2 4 C-2.99 3.34 -3.98 2.68 -5 2 Z " fill="#2C4254" transform="translate(138,61)"/>
<path d="M0 0 C2.08477638 1.43777681 2.81239178 2.59798239 3.875 4.875 C4.05565151 7.94607567 2.73080642 9.53692932 1 12 C0 13 0 13 -2.875 13.25 C-6 13 -6 13 -7.8125 11.8125 C-9.33818682 9.48382011 -9.79677533 7.7774038 -10 5 C-8.10617872 -0.24442816 -5.29384961 -0.43215099 0 0 Z M-4 4 C-4.99 5.485 -4.99 5.485 -6 7 C-4.02 7.99 -4.02 7.99 -2 9 C-1.67 7.68 -1.34 6.36 -1 5 C-1.99 4.67 -2.98 4.34 -4 4 Z " fill="#2C4254" transform="translate(42,26)"/>
<path d="M0 0 C2 1.625 2 1.625 3 4 C2.92897215 7.4803645 2.61415498 9.29485909 0.3125 11.9375 C-2.83903422 13.38550221 -4.70949263 12.929926 -8 12 C-10 10 -10 10 -10.3125 6.5625 C-10 3 -10 3 -8.9375 1.0625 C-5.84506242 -0.63335287 -3.44485259 -0.43060657 0 0 Z M-6 4 C-5.67 5.65 -5.34 7.3 -5 9 C-4.01 8.67 -3.02 8.34 -2 8 C-2 6.68 -2 5.36 -2 4 C-3.32 4 -4.64 4 -6 4 Z " fill="#2D4355" transform="translate(372,6)"/>
<path d="M0 0 C0.70125 -0.01675781 1.4025 -0.03351563 2.125 -0.05078125 C2.74375 0.06910156 3.3625 0.18898438 4 0.3125 C6.31332486 3.78248729 6.33957563 5.23759248 6 9.3125 C4 12.3125 4 12.3125 1.1875 13.3125 C-2 13.3125 -2 13.3125 -4.9375 11.25 C-7 8.3125 -7 8.3125 -6.9375 5.125 C-5.54760457 0.95531371 -4.23428235 0.02335082 0 0 Z M-2 4.3125 C-2 5.6325 -2 6.9525 -2 8.3125 C-1.34 8.6425 -0.68 8.9725 0 9.3125 C0.66 8.9825 1.32 8.6525 2 8.3125 C2 6.9925 2 5.6725 2 4.3125 C0.68 4.3125 -0.64 4.3125 -2 4.3125 Z " fill="#2C4255" transform="translate(497,126.6875)"/>
<path d="M0 0 C2.64 0 5.28 0 8 0 C7.67 0.99 7.34 1.98 7 3 C7.66 3.33 8.32 3.66 9 4 C9 4.66 9 5.32 9 6 C8.01 6.495 8.01 6.495 7 7 C7 7.99 7 8.98 7 10 C4.66666667 10 2.33333333 10 0 10 C0.33 9.01 0.66 8.02 1 7 C0.34 6.67 -0.32 6.34 -1 6 C-1 5.34 -1 4.68 -1 4 C-0.34 3.67 0.32 3.34 1 3 C0.67 2.01 0.34 1.02 0 0 Z " fill="#09D0B6" transform="translate(200,12)"/>
</svg>
